<?xml version="1.0" encoding="UTF-8"?>
<svg xmlns="http://www.w3.org/2000/svg" xmlns:xlink="http://www.w3.org/1999/xlink" width="780pt" height="380pt" viewBox="0 0 780 380" version="1.1">
<g id="surface451">
<path style="fill:none;stroke-width:3;stroke-linecap:round;stroke-linejoin:bevel;stroke:rgb(56.078431%,30.588235%,54.509804%);stroke-opacity:1;stroke-miterlimit:10;" d="M -131.636719 156 L -136.5625 164.535156 " transform="matrix(1,0,0,1,160,190)"/>
<path style="fill:none;stroke-width:3;stroke-linecap:round;stroke-linejoin:bevel;stroke:rgb(56.078431%,30.588235%,54.509804%);stroke-opacity:1;stroke-miterlimit:10;" d="M -134.5625 168 C -134.5625 173.332031 -142.5625 173.332031 -142.5625 168 C -142.5625 162.667969 -134.5625 162.667969 -134.5625 168 " transform="matrix(1,0,0,1,160,190)"/>
<path style="fill:none;stroke-width:3;stroke-linecap:round;stroke-linejoin:bevel;stroke:rgb(56.078431%,30.588235%,54.509804%);stroke-opacity:1;stroke-miterlimit:10;" d="M -117.78125 156 L -122.707031 147.464844 " transform="matrix(1,0,0,1,160,190)"/>
<path style="fill:none;stroke-width:3;stroke-linecap:round;stroke-linejoin:bevel;stroke:rgb(56.078431%,30.588235%,54.509804%);stroke-opacity:1;stroke-miterlimit:10;" d="M -120.707031 144 C -120.707031 149.332031 -128.707031 149.332031 -128.707031 144 C -128.707031 138.667969 -120.707031 138.667969 -120.707031 144 " transform="matrix(1,0,0,1,160,190)"/>
<path style="fill:none;stroke-width:3;stroke-linecap:round;stroke-linejoin:bevel;stroke:rgb(56.078431%,30.588235%,54.509804%);stroke-opacity:1;stroke-miterlimit:10;" d="M -110.851562 144 L -117.78125 132 L -112.851562 123.464844 " transform="matrix(1,0,0,1,160,190)"/>
<path style="fill:none;stroke-width:3;stroke-linecap:round;stroke-linejoin:bevel;stroke:rgb(56.078431%,30.588235%,54.509804%);stroke-opacity:1;stroke-miterlimit:10;" d="M -106.851562 120 C -106.851562 125.332031 -114.851562 125.332031 -114.851562 120 C -114.851562 114.667969 -106.851562 114.667969 -106.851562 120 " transform="matrix(1,0,0,1,160,190)"/>
<path style="fill:none;stroke-width:3;stroke-linecap:round;stroke-linejoin:bevel;stroke:rgb(27.058824%,22.745098%,38.431373%);stroke-opacity:1;stroke-miterlimit:10;" d="M -103.921875 156 L -110.851562 168 L -120.707031 168 " transform="matrix(1,0,0,1,160,190)"/>
<path style="fill:none;stroke-width:3;stroke-linecap:round;stroke-linejoin:bevel;stroke:rgb(27.058824%,22.745098%,38.431373%);stroke-opacity:1;stroke-miterlimit:10;" d="M -120.707031 168 C -120.707031 173.332031 -128.707031 173.332031 -128.707031 168 C -128.707031 162.667969 -120.707031 162.667969 -120.707031 168 " transform="matrix(1,0,0,1,160,190)"/>
<path style="fill:none;stroke-width:3;stroke-linecap:round;stroke-linejoin:bevel;stroke:rgb(36.862745%,31.372549%,52.54902%);stroke-opacity:1;stroke-miterlimit:10;" d="M -90.066406 156 L -66.355469 156 " transform="matrix(1,0,0,1,160,190)"/>
<path style="fill:none;stroke-width:3;stroke-linecap:round;stroke-linejoin:bevel;stroke:rgb(36.862745%,31.372549%,52.54902%);stroke-opacity:1;stroke-miterlimit:10;" d="M -58.355469 156 C -58.355469 161.332031 -66.355469 161.332031 -66.355469 156 C -66.355469 150.667969 -58.355469 150.667969 -58.355469 156 " transform="matrix(1,0,0,1,160,190)"/>
<path style="fill:none;stroke-width:3;stroke-linecap:round;stroke-linejoin:bevel;stroke:rgb(27.058824%,22.745098%,38.431373%);stroke-opacity:1;stroke-miterlimit:10;" d="M -103.921875 108 L -96.996094 120 L -90.066406 132 L -76.210938 132 L -69.28125 144 L -55.425781 144 L -48.496094 156 L -62.355469 180 L -141.492188 180 " transform="matrix(1,0,0,1,160,190)"/>
<path style="fill:none;stroke-width:3;stroke-linecap:round;stroke-linejoin:bevel;stroke:rgb(27.058824%,22.745098%,38.431373%);stroke-opacity:1;stroke-miterlimit:10;" d="M -141.492188 180 C -141.492188 185.332031 -149.492188 185.332031 -149.492188 180 C -149.492188 174.667969 -141.492188 174.667969 -141.492188 180 " transform="matrix(1,0,0,1,160,190)"/>
<path style="fill:none;stroke-width:3;stroke-linecap:round;stroke-linejoin:bevel;stroke:rgb(36.862745%,31.372549%,52.54902%);stroke-opacity:1;stroke-miterlimit:10;" d="M -83.136719 144 L -96.996094 144 L -101.921875 135.464844 " transform="matrix(1,0,0,1,160,190)"/>
<path style="fill:none;stroke-width:3;stroke-linecap:round;stroke-linejoin:bevel;stroke:rgb(36.862745%,31.372549%,52.54902%);stroke-opacity:1;stroke-miterlimit:10;" d="M -99.921875 132 C -99.921875 137.332031 -107.921875 137.332031 -107.921875 132 C -107.921875 126.667969 -99.921875 126.667969 -99.921875 132 " transform="matrix(1,0,0,1,160,190)"/>
<path style="fill:none;stroke-width:3;stroke-linecap:round;stroke-linejoin:bevel;stroke:rgb(27.058824%,22.745098%,38.431373%);stroke-opacity:1;stroke-miterlimit:10;" d="M -69.28125 168 L -92.996094 168 " transform="matrix(1,0,0,1,160,190)"/>
<path style="fill:none;stroke-width:3;stroke-linecap:round;stroke-linejoin:bevel;stroke:rgb(27.058824%,22.745098%,38.431373%);stroke-opacity:1;stroke-miterlimit:10;" d="M -92.996094 168 C -92.996094 173.332031 -100.996094 173.332031 -100.996094 168 C -100.996094 162.667969 -92.996094 162.667969 -92.996094 168 " transform="matrix(1,0,0,1,160,190)"/>
<path style="fill:none;stroke-width:3;stroke-linecap:round;stroke-linejoin:bevel;stroke:rgb(36.862745%,31.372549%,52.54902%);stroke-opacity:1;stroke-miterlimit:10;" d="M -90.066406 108 L -83.136719 120 L -69.28125 120 L -64.355469 111.464844 " transform="matrix(1,0,0,1,160,190)"/>
<path style="fill:none;stroke-width:3;stroke-linecap:round;stroke-linejoin:bevel;stroke:rgb(36.862745%,31.372549%,52.54902%);stroke-opacity:1;stroke-miterlimit:10;" d="M -58.355469 108 C -58.355469 113.332031 -66.355469 113.332031 -66.355469 108 C -66.355469 102.667969 -58.355469 102.667969 -58.355469 108 " transform="matrix(1,0,0,1,160,190)"/>
<path style="fill:none;stroke-width:3;stroke-linecap:round;stroke-linejoin:bevel;stroke:rgb(36.862745%,31.372549%,52.54902%);stroke-opacity:1;stroke-miterlimit:10;" d="M -69.28125 96 L -83.136719 96 L -90.066406 84 L -83.136719 72 L -76.210938 60 L -69.28125 48 L -62.355469 36 L -57.425781 27.464844 " transform="matrix(1,0,0,1,160,190)"/>
<path style="fill:none;stroke-width:3;stroke-linecap:round;stroke-linejoin:bevel;stroke:rgb(36.862745%,31.372549%,52.54902%);stroke-opacity:1;stroke-miterlimit:10;" d="M -51.425781 24 C -51.425781 29.332031 -59.425781 29.332031 -59.425781 24 C -59.425781 18.667969 -51.425781 18.667969 -51.425781 24 " transform="matrix(1,0,0,1,160,190)"/>
<path style="fill:none;stroke-width:3;stroke-linecap:round;stroke-linejoin:bevel;stroke:rgb(56.078431%,30.588235%,54.509804%);stroke-opacity:1;stroke-miterlimit:10;" d="M -55.425781 120 L -60.355469 128.535156 " transform="matrix(1,0,0,1,160,190)"/>
<path style="fill:none;stroke-width:3;stroke-linecap:round;stroke-linejoin:bevel;stroke:rgb(56.078431%,30.588235%,54.509804%);stroke-opacity:1;stroke-miterlimit:10;" d="M -58.355469 132 C -58.355469 137.332031 -66.355469 137.332031 -66.355469 132 C -66.355469 126.667969 -58.355469 126.667969 -58.355469 132 " transform="matrix(1,0,0,1,160,190)"/>
<path style="fill:none;stroke-width:3;stroke-linecap:round;stroke-linejoin:bevel;stroke:rgb(36.862745%,31.372549%,52.54902%);stroke-opacity:1;stroke-miterlimit:10;" d="M -62.355469 84 L -69.28125 72 L -62.355469 60 L -55.425781 48 L -50.496094 39.464844 " transform="matrix(1,0,0,1,160,190)"/>
<path style="fill:none;stroke-width:3;stroke-linecap:round;stroke-linejoin:bevel;stroke:rgb(36.862745%,31.372549%,52.54902%);stroke-opacity:1;stroke-miterlimit:10;" d="M -44.496094 36 C -44.496094 41.332031 -52.496094 41.332031 -52.496094 36 C -52.496094 30.667969 -44.496094 30.667969 -44.496094 36 " transform="matrix(1,0,0,1,160,190)"/>
<path style="fill:none;stroke-width:3;stroke-linecap:round;stroke-linejoin:bevel;stroke:rgb(36.862745%,31.372549%,52.54902%);stroke-opacity:1;stroke-miterlimit:10;" d="M -55.425781 96 L -48.496094 108 L -43.570312 116.535156 " transform="matrix(1,0,0,1,160,190)"/>
<path style="fill:none;stroke-width:3;stroke-linecap:round;stroke-linejoin:bevel;stroke:rgb(36.862745%,31.372549%,52.54902%);stroke-opacity:1;stroke-miterlimit:10;" d="M -37.570312 120 C -37.570312 125.332031 -45.570312 125.332031 -45.570312 120 C -45.570312 114.667969 -37.570312 114.667969 -37.570312 120 " transform="matrix(1,0,0,1,160,190)"/>
<path style="fill:none;stroke-width:3;stroke-linecap:round;stroke-linejoin:bevel;stroke:rgb(27.058824%,22.745098%,38.431373%);stroke-opacity:1;stroke-miterlimit:10;" d="M -34.640625 132 L -44.496094 132 " transform="matrix(1,0,0,1,160,190)"/>
<path style="fill:none;stroke-width:3;stroke-linecap:round;stroke-linejoin:bevel;stroke:rgb(27.058824%,22.745098%,38.431373%);stroke-opacity:1;stroke-miterlimit:10;" d="M -44.496094 132 C -44.496094 137.332031 -52.496094 137.332031 -52.496094 132 C -52.496094 126.667969 -44.496094 126.667969 -44.496094 132 " transform="matrix(1,0,0,1,160,190)"/>
<path style="fill:none;stroke-width:3;stroke-linecap:round;stroke-linejoin:bevel;stroke:rgb(27.058824%,22.745098%,38.431373%);stroke-opacity:1;stroke-miterlimit:10;" d="M -55.425781 72 L -48.496094 60 L -41.570312 48 L -34.640625 36 L -41.570312 24 L -48.496094 12 L -41.570312 0 L -27.710938 -24 L -20.785156 -36 L -13.855469 -48 L 9.855469 -48 " transform="matrix(1,0,0,1,160,190)"/>
<path style="fill:none;stroke-width:3;stroke-linecap:round;stroke-linejoin:bevel;stroke:rgb(27.058824%,22.745098%,38.431373%);stroke-opacity:1;stroke-miterlimit:10;" d="M 17.855469 -48 C 17.855469 -42.667969 9.855469 -42.667969 9.855469 -48 C 9.855469 -53.332031 17.855469 -53.332031 17.855469 -48 " transform="matrix(1,0,0,1,160,190)"/>
<path style="fill:none;stroke-width:3;stroke-linecap:round;stroke-linejoin:bevel;stroke:rgb(56.078431%,30.588235%,54.509804%);stroke-opacity:1;stroke-miterlimit:10;" d="M -48.496094 84 L -41.570312 96 L -34.640625 108 L -29.710938 116.535156 " transform="matrix(1,0,0,1,160,190)"/>
<path style="fill:none;stroke-width:3;stroke-linecap:round;stroke-linejoin:bevel;stroke:rgb(56.078431%,30.588235%,54.509804%);stroke-opacity:1;stroke-miterlimit:10;" d="M -23.710938 120 C -23.710938 125.332031 -31.710938 125.332031 -31.710938 120 C -31.710938 114.667969 -23.710938 114.667969 -23.710938 120 " transform="matrix(1,0,0,1,160,190)"/>
<path style="fill:none;stroke-width:3;stroke-linecap:round;stroke-linejoin:bevel;stroke:rgb(27.058824%,22.745098%,38.431373%);stroke-opacity:1;stroke-miterlimit:10;" d="M -27.710938 96 L -41.570312 72 L -36.640625 63.464844 " transform="matrix(1,0,0,1,160,190)"/>
<path style="fill:none;stroke-width:3;stroke-linecap:round;stroke-linejoin:bevel;stroke:rgb(27.058824%,22.745098%,38.431373%);stroke-opacity:1;stroke-miterlimit:10;" d="M -30.640625 60 C -30.640625 65.332031 -38.640625 65.332031 -38.640625 60 C -38.640625 54.667969 -30.640625 54.667969 -30.640625 60 " transform="matrix(1,0,0,1,160,190)"/>
<path style="fill:none;stroke-width:3;stroke-linecap:round;stroke-linejoin:bevel;stroke:rgb(27.058824%,22.745098%,38.431373%);stroke-opacity:1;stroke-miterlimit:10;" d="M -20.785156 108 L -15.855469 99.464844 " transform="matrix(1,0,0,1,160,190)"/>
<path style="fill:none;stroke-width:3;stroke-linecap:round;stroke-linejoin:bevel;stroke:rgb(27.058824%,22.745098%,38.431373%);stroke-opacity:1;stroke-miterlimit:10;" d="M -9.855469 96 C -9.855469 101.332031 -17.855469 101.332031 -17.855469 96 C -17.855469 90.667969 -9.855469 90.667969 -9.855469 96 " transform="matrix(1,0,0,1,160,190)"/>
<path style="fill:none;stroke-width:3;stroke-linecap:round;stroke-linejoin:bevel;stroke:rgb(56.078431%,30.588235%,54.509804%);stroke-opacity:1;stroke-miterlimit:10;" d="M -20.785156 84 L -13.855469 72 L -20.785156 60 L -27.710938 48 L -20.785156 36 L -13.855469 24 L -20.785156 12 L -27.710938 0 L -20.785156 -12 L -6.929688 -12 L 6.929688 -36 L 20.785156 -36 L 25.710938 -27.464844 " transform="matrix(1,0,0,1,160,190)"/>
<path style="fill:none;stroke-width:3;stroke-linecap:round;stroke-linejoin:bevel;stroke:rgb(56.078431%,30.588235%,54.509804%);stroke-opacity:1;stroke-miterlimit:10;" d="M 31.710938 -24 C 31.710938 -18.667969 23.710938 -18.667969 23.710938 -24 C 23.710938 -29.332031 31.710938 -29.332031 31.710938 -24 " transform="matrix(1,0,0,1,160,190)"/>
<path style="fill:none;stroke-width:3;stroke-linecap:round;stroke-linejoin:bevel;stroke:rgb(27.058824%,22.745098%,38.431373%);stroke-opacity:1;stroke-miterlimit:10;" d="M -131.636719 -156 L -138.5625 -168 L -143.492188 -176.535156 " transform="matrix(1,0,0,1,160,190)"/>
<path style="fill:none;stroke-width:3;stroke-linecap:round;stroke-linejoin:bevel;stroke:rgb(27.058824%,22.745098%,38.431373%);stroke-opacity:1;stroke-miterlimit:10;" d="M -141.492188 -180 C -141.492188 -174.667969 -149.492188 -174.667969 -149.492188 -180 C -149.492188 -185.332031 -141.492188 -185.332031 -141.492188 -180 " transform="matrix(1,0,0,1,160,190)"/>
<path style="fill:none;stroke-width:3;stroke-linecap:round;stroke-linejoin:bevel;stroke:rgb(56.078431%,30.588235%,54.509804%);stroke-opacity:1;stroke-miterlimit:10;" d="M -124.707031 -144 L -117.78125 -132 L -103.921875 -108 L -98.996094 -99.464844 " transform="matrix(1,0,0,1,160,190)"/>
<path style="fill:none;stroke-width:3;stroke-linecap:round;stroke-linejoin:bevel;stroke:rgb(56.078431%,30.588235%,54.509804%);stroke-opacity:1;stroke-miterlimit:10;" d="M -92.996094 -96 C -92.996094 -90.667969 -100.996094 -90.667969 -100.996094 -96 C -100.996094 -101.332031 -92.996094 -101.332031 -92.996094 -96 " transform="matrix(1,0,0,1,160,190)"/>
<path style="fill:none;stroke-width:3;stroke-linecap:round;stroke-linejoin:bevel;stroke:rgb(27.058824%,22.745098%,38.431373%);stroke-opacity:1;stroke-miterlimit:10;" d="M -27.710938 24 L -32.640625 15.464844 " transform="matrix(1,0,0,1,160,190)"/>
<path style="fill:none;stroke-width:3;stroke-linecap:round;stroke-linejoin:bevel;stroke:rgb(27.058824%,22.745098%,38.431373%);stroke-opacity:1;stroke-miterlimit:10;" d="M -30.640625 12 C -30.640625 17.332031 -38.640625 17.332031 -38.640625 12 C -38.640625 6.667969 -30.640625 6.667969 -30.640625 12 " transform="matrix(1,0,0,1,160,190)"/>
<path style="fill:none;stroke-width:3;stroke-linecap:round;stroke-linejoin:bevel;stroke:rgb(36.862745%,31.372549%,52.54902%);stroke-opacity:1;stroke-miterlimit:10;" d="M -110.851562 -144 L -105.921875 -152.535156 " transform="matrix(1,0,0,1,160,190)"/>
<path style="fill:none;stroke-width:3;stroke-linecap:round;stroke-linejoin:bevel;stroke:rgb(36.862745%,31.372549%,52.54902%);stroke-opacity:1;stroke-miterlimit:10;" d="M -99.921875 -156 C -99.921875 -150.667969 -107.921875 -150.667969 -107.921875 -156 C -107.921875 -161.332031 -99.921875 -161.332031 -99.921875 -156 " transform="matrix(1,0,0,1,160,190)"/>
<path style="fill:none;stroke-width:3;stroke-linecap:round;stroke-linejoin:bevel;stroke:rgb(56.078431%,30.588235%,54.509804%);stroke-opacity:1;stroke-miterlimit:10;" d="M -83.136719 -96 L -96.996094 -120 L -103.921875 -132 L -96.996094 -144 L -90.066406 -156 L -96.996094 -168 L -103.921875 -180 L -127.636719 -180 " transform="matrix(1,0,0,1,160,190)"/>
<path style="fill:none;stroke-width:3;stroke-linecap:round;stroke-linejoin:bevel;stroke:rgb(56.078431%,30.588235%,54.509804%);stroke-opacity:1;stroke-miterlimit:10;" d="M -127.636719 -180 C -127.636719 -174.667969 -135.636719 -174.667969 -135.636719 -180 C -135.636719 -185.332031 -127.636719 -185.332031 -127.636719 -180 " transform="matrix(1,0,0,1,160,190)"/>
<path style="fill:none;stroke-width:3;stroke-linecap:round;stroke-linejoin:bevel;stroke:rgb(36.862745%,31.372549%,52.54902%);stroke-opacity:1;stroke-miterlimit:10;" d="M -55.425781 -48 L -60.355469 -56.535156 " transform="matrix(1,0,0,1,160,190)"/>
<path style="fill:none;stroke-width:3;stroke-linecap:round;stroke-linejoin:bevel;stroke:rgb(36.862745%,31.372549%,52.54902%);stroke-opacity:1;stroke-miterlimit:10;" d="M -58.355469 -60 C -58.355469 -54.667969 -66.355469 -54.667969 -66.355469 -60 C -66.355469 -65.332031 -58.355469 -65.332031 -58.355469 -60 " transform="matrix(1,0,0,1,160,190)"/>
<path style="fill:none;stroke-width:3;stroke-linecap:round;stroke-linejoin:bevel;stroke:rgb(36.862745%,31.372549%,52.54902%);stroke-opacity:1;stroke-miterlimit:10;" d="M -41.570312 -24 L -27.710938 -48 L -20.785156 -60 L -13.855469 -72 L -18.785156 -80.535156 " transform="matrix(1,0,0,1,160,190)"/>
<path style="fill:none;stroke-width:3;stroke-linecap:round;stroke-linejoin:bevel;stroke:rgb(36.862745%,31.372549%,52.54902%);stroke-opacity:1;stroke-miterlimit:10;" d="M -16.785156 -84 C -16.785156 -78.667969 -24.785156 -78.667969 -24.785156 -84 C -24.785156 -89.332031 -16.785156 -89.332031 -16.785156 -84 " transform="matrix(1,0,0,1,160,190)"/>
<path style="fill:none;stroke-width:3;stroke-linecap:round;stroke-linejoin:bevel;stroke:rgb(56.078431%,30.588235%,54.509804%);stroke-opacity:1;stroke-miterlimit:10;" d="M 0 48 L 4.929688 39.464844 " transform="matrix(1,0,0,1,160,190)"/>
<path style="fill:none;stroke-width:3;stroke-linecap:round;stroke-linejoin:bevel;stroke:rgb(56.078431%,30.588235%,54.509804%);stroke-opacity:1;stroke-miterlimit:10;" d="M 10.929688 36 C 10.929688 41.332031 2.929688 41.332031 2.929688 36 C 2.929688 30.667969 10.929688 30.667969 10.929688 36 " transform="matrix(1,0,0,1,160,190)"/>
<path style="fill:none;stroke-width:3;stroke-linecap:round;stroke-linejoin:bevel;stroke:rgb(27.058824%,22.745098%,38.431373%);stroke-opacity:1;stroke-miterlimit:10;" d="M 20.785156 84 L 13.855469 72 L 6.929688 60 L 11.855469 51.464844 " transform="matrix(1,0,0,1,160,190)"/>
<path style="fill:none;stroke-width:3;stroke-linecap:round;stroke-linejoin:bevel;stroke:rgb(27.058824%,22.745098%,38.431373%);stroke-opacity:1;stroke-miterlimit:10;" d="M 17.855469 48 C 17.855469 53.332031 9.855469 53.332031 9.855469 48 C 9.855469 42.667969 17.855469 42.667969 17.855469 48 " transform="matrix(1,0,0,1,160,190)"/>
<path style="fill:none;stroke-width:3;stroke-linecap:round;stroke-linejoin:bevel;stroke:rgb(27.058824%,22.745098%,38.431373%);stroke-opacity:1;stroke-miterlimit:10;" d="M 27.710938 96 L 13.855469 96 L 6.929688 84 L -6.929688 60 L -13.855469 48 L -6.929688 36 L 0 24 L -4.929688 15.464844 " transform="matrix(1,0,0,1,160,190)"/>
<path style="fill:none;stroke-width:3;stroke-linecap:round;stroke-linejoin:bevel;stroke:rgb(27.058824%,22.745098%,38.431373%);stroke-opacity:1;stroke-miterlimit:10;" d="M -2.929688 12 C -2.929688 17.332031 -10.929688 17.332031 -10.929688 12 C -10.929688 6.667969 -2.929688 6.667969 -2.929688 12 " transform="matrix(1,0,0,1,160,190)"/>
<path style="fill:none;stroke-width:3;stroke-linecap:round;stroke-linejoin:bevel;stroke:rgb(36.862745%,31.372549%,52.54902%);stroke-opacity:1;stroke-miterlimit:10;" d="M 34.640625 108 L 27.710938 120 L 41.570312 144 L 48.496094 156 L 103.921875 156 L 110.851562 144 L 115.78125 135.464844 " transform="matrix(1,0,0,1,160,190)"/>
<path style="fill:none;stroke-width:3;stroke-linecap:round;stroke-linejoin:bevel;stroke:rgb(36.862745%,31.372549%,52.54902%);stroke-opacity:1;stroke-miterlimit:10;" d="M 121.78125 132 C 121.78125 137.332031 113.78125 137.332031 113.78125 132 C 113.78125 126.667969 121.78125 126.667969 121.78125 132 " transform="matrix(1,0,0,1,160,190)"/>
<path style="fill:none;stroke-width:3;stroke-linecap:round;stroke-linejoin:bevel;stroke:rgb(27.058824%,22.745098%,38.431373%);stroke-opacity:1;stroke-miterlimit:10;" d="M 69.28125 168 L 106.851562 168 " transform="matrix(1,0,0,1,160,190)"/>
<path style="fill:none;stroke-width:3;stroke-linecap:round;stroke-linejoin:bevel;stroke:rgb(27.058824%,22.745098%,38.431373%);stroke-opacity:1;stroke-miterlimit:10;" d="M 114.851562 168 C 114.851562 173.332031 106.851562 173.332031 106.851562 168 C 106.851562 162.667969 114.851562 162.667969 114.851562 168 " transform="matrix(1,0,0,1,160,190)"/>
<path style="fill:none;stroke-width:3;stroke-linecap:round;stroke-linejoin:bevel;stroke:rgb(56.078431%,30.588235%,54.509804%);stroke-opacity:1;stroke-miterlimit:10;" d="M -110.851562 -168 L -120.707031 -168 " transform="matrix(1,0,0,1,160,190)"/>
<path style="fill:none;stroke-width:3;stroke-linecap:round;stroke-linejoin:bevel;stroke:rgb(56.078431%,30.588235%,54.509804%);stroke-opacity:1;stroke-miterlimit:10;" d="M -120.707031 -168 C -120.707031 -162.667969 -128.707031 -162.667969 -128.707031 -168 C -128.707031 -173.332031 -120.707031 -173.332031 -120.707031 -168 " transform="matrix(1,0,0,1,160,190)"/>
<path style="fill:none;stroke-width:3;stroke-linecap:round;stroke-linejoin:bevel;stroke:rgb(56.078431%,30.588235%,54.509804%);stroke-opacity:1;stroke-miterlimit:10;" d="M -90.066406 -132 L -85.136719 -123.464844 " transform="matrix(1,0,0,1,160,190)"/>
<path style="fill:none;stroke-width:3;stroke-linecap:round;stroke-linejoin:bevel;stroke:rgb(56.078431%,30.588235%,54.509804%);stroke-opacity:1;stroke-miterlimit:10;" d="M -79.136719 -120 C -79.136719 -114.667969 -87.136719 -114.667969 -87.136719 -120 C -87.136719 -125.332031 -79.136719 -125.332031 -79.136719 -120 " transform="matrix(1,0,0,1,160,190)"/>
<path style="fill:none;stroke-width:3;stroke-linecap:round;stroke-linejoin:bevel;stroke:rgb(27.058824%,22.745098%,38.431373%);stroke-opacity:1;stroke-miterlimit:10;" d="M -76.210938 -108 L -69.28125 -120 L -76.210938 -132 L -81.136719 -140.535156 " transform="matrix(1,0,0,1,160,190)"/>
<path style="fill:none;stroke-width:3;stroke-linecap:round;stroke-linejoin:bevel;stroke:rgb(27.058824%,22.745098%,38.431373%);stroke-opacity:1;stroke-miterlimit:10;" d="M -79.136719 -144 C -79.136719 -138.667969 -87.136719 -138.667969 -87.136719 -144 C -87.136719 -149.332031 -79.136719 -149.332031 -79.136719 -144 " transform="matrix(1,0,0,1,160,190)"/>
<path style="fill:none;stroke-width:3;stroke-linecap:round;stroke-linejoin:bevel;stroke:rgb(36.862745%,31.372549%,52.54902%);stroke-opacity:1;stroke-miterlimit:10;" d="M -69.28125 -96 L -45.570312 -96 " transform="matrix(1,0,0,1,160,190)"/>
<path style="fill:none;stroke-width:3;stroke-linecap:round;stroke-linejoin:bevel;stroke:rgb(36.862745%,31.372549%,52.54902%);stroke-opacity:1;stroke-miterlimit:10;" d="M -37.570312 -96 C -37.570312 -90.667969 -45.570312 -90.667969 -45.570312 -96 C -45.570312 -101.332031 -37.570312 -101.332031 -37.570312 -96 " transform="matrix(1,0,0,1,160,190)"/>
<path style="fill:none;stroke-width:3;stroke-linecap:round;stroke-linejoin:bevel;stroke:rgb(56.078431%,30.588235%,54.509804%);stroke-opacity:1;stroke-miterlimit:10;" d="M -48.496094 -60 L -55.425781 -72 L -69.28125 -72 L -76.210938 -60 L -69.28125 -48 L -64.355469 -39.464844 " transform="matrix(1,0,0,1,160,190)"/>
<path style="fill:none;stroke-width:3;stroke-linecap:round;stroke-linejoin:bevel;stroke:rgb(56.078431%,30.588235%,54.509804%);stroke-opacity:1;stroke-miterlimit:10;" d="M -58.355469 -36 C -58.355469 -30.667969 -66.355469 -30.667969 -66.355469 -36 C -66.355469 -41.332031 -58.355469 -41.332031 -58.355469 -36 " transform="matrix(1,0,0,1,160,190)"/>
<path style="fill:none;stroke-width:3;stroke-linecap:round;stroke-linejoin:bevel;stroke:rgb(56.078431%,30.588235%,54.509804%);stroke-opacity:1;stroke-miterlimit:10;" d="M -13.855469 0 L 0 0 L 6.929688 12 L 13.855469 24 L 20.785156 36 L 27.710938 48 L 20.785156 60 L 27.710938 72 L 34.640625 84 L 39.570312 92.535156 " transform="matrix(1,0,0,1,160,190)"/>
<path style="fill:none;stroke-width:3;stroke-linecap:round;stroke-linejoin:bevel;stroke:rgb(56.078431%,30.588235%,54.509804%);stroke-opacity:1;stroke-miterlimit:10;" d="M 45.570312 96 C 45.570312 101.332031 37.570312 101.332031 37.570312 96 C 37.570312 90.667969 45.570312 90.667969 45.570312 96 " transform="matrix(1,0,0,1,160,190)"/>
<path style="fill:none;stroke-width:3;stroke-linecap:round;stroke-linejoin:bevel;stroke:rgb(56.078431%,30.588235%,54.509804%);stroke-opacity:1;stroke-miterlimit:10;" d="M 55.425781 120 L 48.496094 108 L 55.425781 96 L 96.996094 96 L 103.921875 108 L 110.851562 120 L 103.921875 132 L 96.996094 144 L 55.425781 144 L 48.496094 132 L 43.570312 123.464844 " transform="matrix(1,0,0,1,160,190)"/>
<path style="fill:none;stroke-width:3;stroke-linecap:round;stroke-linejoin:bevel;stroke:rgb(56.078431%,30.588235%,54.509804%);stroke-opacity:1;stroke-miterlimit:10;" d="M 45.570312 120 C 45.570312 125.332031 37.570312 125.332031 37.570312 120 C 37.570312 114.667969 45.570312 114.667969 45.570312 120 " transform="matrix(1,0,0,1,160,190)"/>
<path style="fill:none;stroke-width:3;stroke-linecap:round;stroke-linejoin:bevel;stroke:rgb(27.058824%,22.745098%,38.431373%);stroke-opacity:1;stroke-miterlimit:10;" d="M 41.570312 72 L 48.496094 60 L 41.570312 48 L 27.710938 24 L 20.785156 12 L 13.855469 0 L 6.929688 -12 L 11.855469 -20.535156 " transform="matrix(1,0,0,1,160,190)"/>
<path style="fill:none;stroke-width:3;stroke-linecap:round;stroke-linejoin:bevel;stroke:rgb(27.058824%,22.745098%,38.431373%);stroke-opacity:1;stroke-miterlimit:10;" d="M 17.855469 -24 C 17.855469 -18.667969 9.855469 -18.667969 9.855469 -24 C 9.855469 -29.332031 17.855469 -29.332031 17.855469 -24 " transform="matrix(1,0,0,1,160,190)"/>
<path style="fill:none;stroke-width:3;stroke-linecap:round;stroke-linejoin:bevel;stroke:rgb(27.058824%,22.745098%,38.431373%);stroke-opacity:1;stroke-miterlimit:10;" d="M 62.355469 108 L 90.066406 108 L 94.996094 116.535156 " transform="matrix(1,0,0,1,160,190)"/>
<path style="fill:none;stroke-width:3;stroke-linecap:round;stroke-linejoin:bevel;stroke:rgb(27.058824%,22.745098%,38.431373%);stroke-opacity:1;stroke-miterlimit:10;" d="M 100.996094 120 C 100.996094 125.332031 92.996094 125.332031 92.996094 120 C 92.996094 114.667969 100.996094 114.667969 100.996094 120 " transform="matrix(1,0,0,1,160,190)"/>
<path style="fill:none;stroke-width:3;stroke-linecap:round;stroke-linejoin:bevel;stroke:rgb(36.862745%,31.372549%,52.54902%);stroke-opacity:1;stroke-miterlimit:10;" d="M 103.921875 180 L 62.355469 180 L 57.425781 171.464844 " transform="matrix(1,0,0,1,160,190)"/>
<path style="fill:none;stroke-width:3;stroke-linecap:round;stroke-linejoin:bevel;stroke:rgb(36.862745%,31.372549%,52.54902%);stroke-opacity:1;stroke-miterlimit:10;" d="M 59.425781 168 C 59.425781 173.332031 51.425781 173.332031 51.425781 168 C 51.425781 162.667969 59.425781 162.667969 59.425781 168 " transform="matrix(1,0,0,1,160,190)"/>
<path style="fill:none;stroke-width:3;stroke-linecap:round;stroke-linejoin:bevel;stroke:rgb(36.862745%,31.372549%,52.54902%);stroke-opacity:1;stroke-miterlimit:10;" d="M -90.066406 -180 L -85.136719 -171.464844 " transform="matrix(1,0,0,1,160,190)"/>
<path style="fill:none;stroke-width:3;stroke-linecap:round;stroke-linejoin:bevel;stroke:rgb(36.862745%,31.372549%,52.54902%);stroke-opacity:1;stroke-miterlimit:10;" d="M -79.136719 -168 C -79.136719 -162.667969 -87.136719 -162.667969 -87.136719 -168 C -87.136719 -173.332031 -79.136719 -173.332031 -79.136719 -168 " transform="matrix(1,0,0,1,160,190)"/>
<path style="fill:none;stroke-width:3;stroke-linecap:round;stroke-linejoin:bevel;stroke:rgb(36.862745%,31.372549%,52.54902%);stroke-opacity:1;stroke-miterlimit:10;" d="M -34.640625 -84 L -86.066406 -84 " transform="matrix(1,0,0,1,160,190)"/>
<path style="fill:none;stroke-width:3;stroke-linecap:round;stroke-linejoin:bevel;stroke:rgb(36.862745%,31.372549%,52.54902%);stroke-opacity:1;stroke-miterlimit:10;" d="M -86.066406 -84 C -86.066406 -78.667969 -94.066406 -78.667969 -94.066406 -84 C -94.066406 -89.332031 -86.066406 -89.332031 -86.066406 -84 " transform="matrix(1,0,0,1,160,190)"/>
<path style="fill:none;stroke-width:3;stroke-linecap:round;stroke-linejoin:bevel;stroke:rgb(36.862745%,31.372549%,52.54902%);stroke-opacity:1;stroke-miterlimit:10;" d="M -27.710938 -72 L -41.570312 -48 L -48.496094 -36 L -55.425781 -24 L -50.496094 -15.464844 " transform="matrix(1,0,0,1,160,190)"/>
<path style="fill:none;stroke-width:3;stroke-linecap:round;stroke-linejoin:bevel;stroke:rgb(36.862745%,31.372549%,52.54902%);stroke-opacity:1;stroke-miterlimit:10;" d="M -44.496094 -12 C -44.496094 -6.667969 -52.496094 -6.667969 -52.496094 -12 C -52.496094 -17.332031 -44.496094 -17.332031 -44.496094 -12 " transform="matrix(1,0,0,1,160,190)"/>
<path style="fill:none;stroke-width:3;stroke-linecap:round;stroke-linejoin:bevel;stroke:rgb(36.862745%,31.372549%,52.54902%);stroke-opacity:1;stroke-miterlimit:10;" d="M -6.929688 -36 L -11.855469 -27.464844 " transform="matrix(1,0,0,1,160,190)"/>
<path style="fill:none;stroke-width:3;stroke-linecap:round;stroke-linejoin:bevel;stroke:rgb(36.862745%,31.372549%,52.54902%);stroke-opacity:1;stroke-miterlimit:10;" d="M -9.855469 -24 C -9.855469 -18.667969 -17.855469 -18.667969 -17.855469 -24 C -17.855469 -29.332031 -9.855469 -29.332031 -9.855469 -24 " transform="matrix(1,0,0,1,160,190)"/>
<path style="fill:none;stroke-width:3;stroke-linecap:round;stroke-linejoin:bevel;stroke:rgb(27.058824%,22.745098%,38.431373%);stroke-opacity:1;stroke-miterlimit:10;" d="M 83.136719 120 L 73.28125 120 " transform="matrix(1,0,0,1,160,190)"/>
<path style="fill:none;stroke-width:3;stroke-linecap:round;stroke-linejoin:bevel;stroke:rgb(27.058824%,22.745098%,38.431373%);stroke-opacity:1;stroke-miterlimit:10;" d="M 73.28125 120 C 73.28125 125.332031 65.28125 125.332031 65.28125 120 C 65.28125 114.667969 73.28125 114.667969 73.28125 120 " transform="matrix(1,0,0,1,160,190)"/>
<path style="fill:none;stroke-width:3;stroke-linecap:round;stroke-linejoin:bevel;stroke:rgb(27.058824%,22.745098%,38.431373%);stroke-opacity:1;stroke-miterlimit:10;" d="M 90.066406 132 L 66.355469 132 " transform="matrix(1,0,0,1,160,190)"/>
<path style="fill:none;stroke-width:3;stroke-linecap:round;stroke-linejoin:bevel;stroke:rgb(27.058824%,22.745098%,38.431373%);stroke-opacity:1;stroke-miterlimit:10;" d="M 66.355469 132 C 66.355469 137.332031 58.355469 137.332031 58.355469 132 C 58.355469 126.667969 66.355469 126.667969 66.355469 132 " transform="matrix(1,0,0,1,160,190)"/>
<path style="fill:none;stroke-width:3;stroke-linecap:round;stroke-linejoin:bevel;stroke:rgb(56.078431%,30.588235%,54.509804%);stroke-opacity:1;stroke-miterlimit:10;" d="M 117.78125 180 L 124.707031 168 L 119.78125 159.464844 " transform="matrix(1,0,0,1,160,190)"/>
<path style="fill:none;stroke-width:3;stroke-linecap:round;stroke-linejoin:bevel;stroke:rgb(56.078431%,30.588235%,54.509804%);stroke-opacity:1;stroke-miterlimit:10;" d="M 121.78125 156 C 121.78125 161.332031 113.78125 161.332031 113.78125 156 C 113.78125 150.667969 121.78125 150.667969 121.78125 156 " transform="matrix(1,0,0,1,160,190)"/>
<path style="fill:none;stroke-width:3;stroke-linecap:round;stroke-linejoin:bevel;stroke:rgb(56.078431%,30.588235%,54.509804%);stroke-opacity:1;stroke-miterlimit:10;" d="M -55.425781 -144 L -41.570312 -144 L -36.640625 -135.464844 " transform="matrix(1,0,0,1,160,190)"/>
<path style="fill:none;stroke-width:3;stroke-linecap:round;stroke-linejoin:bevel;stroke:rgb(56.078431%,30.588235%,54.509804%);stroke-opacity:1;stroke-miterlimit:10;" d="M -30.640625 -132 C -30.640625 -126.667969 -38.640625 -126.667969 -38.640625 -132 C -38.640625 -137.332031 -30.640625 -137.332031 -30.640625 -132 " transform="matrix(1,0,0,1,160,190)"/>
<path style="fill:none;stroke-width:3;stroke-linecap:round;stroke-linejoin:bevel;stroke:rgb(36.862745%,31.372549%,52.54902%);stroke-opacity:1;stroke-miterlimit:10;" d="M -6.929688 -60 L 2.929688 -60 " transform="matrix(1,0,0,1,160,190)"/>
<path style="fill:none;stroke-width:3;stroke-linecap:round;stroke-linejoin:bevel;stroke:rgb(36.862745%,31.372549%,52.54902%);stroke-opacity:1;stroke-miterlimit:10;" d="M 10.929688 -60 C 10.929688 -54.667969 2.929688 -54.667969 2.929688 -60 C 2.929688 -65.332031 10.929688 -65.332031 10.929688 -60 " transform="matrix(1,0,0,1,160,190)"/>
<path style="fill:none;stroke-width:3;stroke-linecap:round;stroke-linejoin:bevel;stroke:rgb(36.862745%,31.372549%,52.54902%);stroke-opacity:1;stroke-miterlimit:10;" d="M 27.710938 0 L 22.785156 -8.535156 " transform="matrix(1,0,0,1,160,190)"/>
<path style="fill:none;stroke-width:3;stroke-linecap:round;stroke-linejoin:bevel;stroke:rgb(36.862745%,31.372549%,52.54902%);stroke-opacity:1;stroke-miterlimit:10;" d="M 24.785156 -12 C 24.785156 -6.667969 16.785156 -6.667969 16.785156 -12 C 16.785156 -17.332031 24.785156 -17.332031 24.785156 -12 " transform="matrix(1,0,0,1,160,190)"/>
<path style="fill:none;stroke-width:3;stroke-linecap:round;stroke-linejoin:bevel;stroke:rgb(27.058824%,22.745098%,38.431373%);stroke-opacity:1;stroke-miterlimit:10;" d="M 41.570312 24 L 48.496094 12 L 41.570312 0 L 36.640625 -8.535156 " transform="matrix(1,0,0,1,160,190)"/>
<path style="fill:none;stroke-width:3;stroke-linecap:round;stroke-linejoin:bevel;stroke:rgb(27.058824%,22.745098%,38.431373%);stroke-opacity:1;stroke-miterlimit:10;" d="M 38.640625 -12 C 38.640625 -6.667969 30.640625 -6.667969 30.640625 -12 C 30.640625 -17.332031 38.640625 -17.332031 38.640625 -12 " transform="matrix(1,0,0,1,160,190)"/>
<path style="fill:none;stroke-width:3;stroke-linecap:round;stroke-linejoin:bevel;stroke:rgb(36.862745%,31.372549%,52.54902%);stroke-opacity:1;stroke-miterlimit:10;" d="M 48.496094 36 L 58.355469 36 " transform="matrix(1,0,0,1,160,190)"/>
<path style="fill:none;stroke-width:3;stroke-linecap:round;stroke-linejoin:bevel;stroke:rgb(36.862745%,31.372549%,52.54902%);stroke-opacity:1;stroke-miterlimit:10;" d="M 66.355469 36 C 66.355469 41.332031 58.355469 41.332031 58.355469 36 C 58.355469 30.667969 66.355469 30.667969 66.355469 36 " transform="matrix(1,0,0,1,160,190)"/>
<path style="fill:none;stroke-width:3;stroke-linecap:round;stroke-linejoin:bevel;stroke:rgb(27.058824%,22.745098%,38.431373%);stroke-opacity:1;stroke-miterlimit:10;" d="M 55.425781 48 L 62.355469 60 L 67.28125 68.535156 " transform="matrix(1,0,0,1,160,190)"/>
<path style="fill:none;stroke-width:3;stroke-linecap:round;stroke-linejoin:bevel;stroke:rgb(27.058824%,22.745098%,38.431373%);stroke-opacity:1;stroke-miterlimit:10;" d="M 73.28125 72 C 73.28125 77.332031 65.28125 77.332031 65.28125 72 C 65.28125 66.667969 73.28125 66.667969 73.28125 72 " transform="matrix(1,0,0,1,160,190)"/>
<path style="fill:none;stroke-width:3;stroke-linecap:round;stroke-linejoin:bevel;stroke:rgb(36.862745%,31.372549%,52.54902%);stroke-opacity:1;stroke-miterlimit:10;" d="M -55.425781 -168 L -60.355469 -159.464844 " transform="matrix(1,0,0,1,160,190)"/>
<path style="fill:none;stroke-width:3;stroke-linecap:round;stroke-linejoin:bevel;stroke:rgb(36.862745%,31.372549%,52.54902%);stroke-opacity:1;stroke-miterlimit:10;" d="M -58.355469 -156 C -58.355469 -150.667969 -66.355469 -150.667969 -66.355469 -156 C -66.355469 -161.332031 -58.355469 -161.332031 -58.355469 -156 " transform="matrix(1,0,0,1,160,190)"/>
<path style="fill:none;stroke-width:3;stroke-linecap:round;stroke-linejoin:bevel;stroke:rgb(36.862745%,31.372549%,52.54902%);stroke-opacity:1;stroke-miterlimit:10;" d="M -27.710938 -120 L -41.570312 -120 L -48.496094 -132 L -62.355469 -132 L -69.28125 -144 L -76.210938 -156 L -69.28125 -168 L -64.355469 -176.535156 " transform="matrix(1,0,0,1,160,190)"/>
<path style="fill:none;stroke-width:3;stroke-linecap:round;stroke-linejoin:bevel;stroke:rgb(36.862745%,31.372549%,52.54902%);stroke-opacity:1;stroke-miterlimit:10;" d="M -58.355469 -180 C -58.355469 -174.667969 -66.355469 -174.667969 -66.355469 -180 C -66.355469 -185.332031 -58.355469 -185.332031 -58.355469 -180 " transform="matrix(1,0,0,1,160,190)"/>
<path style="fill:none;stroke-width:3;stroke-linecap:round;stroke-linejoin:bevel;stroke:rgb(56.078431%,30.588235%,54.509804%);stroke-opacity:1;stroke-miterlimit:10;" d="M 0 -72 L -6.929688 -84 L -13.855469 -96 L -27.710938 -96 L -34.640625 -108 L -48.496094 -108 L -53.425781 -116.535156 " transform="matrix(1,0,0,1,160,190)"/>
<path style="fill:none;stroke-width:3;stroke-linecap:round;stroke-linejoin:bevel;stroke:rgb(56.078431%,30.588235%,54.509804%);stroke-opacity:1;stroke-miterlimit:10;" d="M -51.425781 -120 C -51.425781 -114.667969 -59.425781 -114.667969 -59.425781 -120 C -59.425781 -125.332031 -51.425781 -125.332031 -51.425781 -120 " transform="matrix(1,0,0,1,160,190)"/>
<path style="fill:none;stroke-width:3;stroke-linecap:round;stroke-linejoin:bevel;stroke:rgb(36.862745%,31.372549%,52.54902%);stroke-opacity:1;stroke-miterlimit:10;" d="M 76.210938 60 L 71.28125 51.464844 " transform="matrix(1,0,0,1,160,190)"/>
<path style="fill:none;stroke-width:3;stroke-linecap:round;stroke-linejoin:bevel;stroke:rgb(36.862745%,31.372549%,52.54902%);stroke-opacity:1;stroke-miterlimit:10;" d="M 73.28125 48 C 73.28125 53.332031 65.28125 53.332031 65.28125 48 C 65.28125 42.667969 73.28125 42.667969 73.28125 48 " transform="matrix(1,0,0,1,160,190)"/>
<path style="fill:none;stroke-width:3;stroke-linecap:round;stroke-linejoin:bevel;stroke:rgb(36.862745%,31.372549%,52.54902%);stroke-opacity:1;stroke-miterlimit:10;" d="M 83.136719 72 L 76.210938 84 L 52.496094 84 " transform="matrix(1,0,0,1,160,190)"/>
<path style="fill:none;stroke-width:3;stroke-linecap:round;stroke-linejoin:bevel;stroke:rgb(36.862745%,31.372549%,52.54902%);stroke-opacity:1;stroke-miterlimit:10;" d="M 52.496094 84 C 52.496094 89.332031 44.496094 89.332031 44.496094 84 C 44.496094 78.667969 52.496094 78.667969 52.496094 84 " transform="matrix(1,0,0,1,160,190)"/>
<path style="fill:none;stroke-width:3;stroke-linecap:round;stroke-linejoin:bevel;stroke:rgb(27.058824%,22.745098%,38.431373%);stroke-opacity:1;stroke-miterlimit:10;" d="M 138.5625 168 L 131.636719 156 L 126.707031 147.464844 " transform="matrix(1,0,0,1,160,190)"/>
<path style="fill:none;stroke-width:3;stroke-linecap:round;stroke-linejoin:bevel;stroke:rgb(27.058824%,22.745098%,38.431373%);stroke-opacity:1;stroke-miterlimit:10;" d="M 128.707031 144 C 128.707031 149.332031 120.707031 149.332031 120.707031 144 C 120.707031 138.667969 128.707031 138.667969 128.707031 144 " transform="matrix(1,0,0,1,160,190)"/>
<path style="fill:none;stroke-width:3;stroke-linecap:round;stroke-linejoin:bevel;stroke:rgb(27.058824%,22.745098%,38.431373%);stroke-opacity:1;stroke-miterlimit:10;" d="M 145.492188 180 L 135.636719 180 " transform="matrix(1,0,0,1,160,190)"/>
<path style="fill:none;stroke-width:3;stroke-linecap:round;stroke-linejoin:bevel;stroke:rgb(27.058824%,22.745098%,38.431373%);stroke-opacity:1;stroke-miterlimit:10;" d="M 135.636719 180 C 135.636719 185.332031 127.636719 185.332031 127.636719 180 C 127.636719 174.667969 135.636719 174.667969 135.636719 180 " transform="matrix(1,0,0,1,160,190)"/>
<path style="fill:none;stroke-width:6;stroke-linecap:round;stroke-linejoin:bevel;stroke:rgb(56.078431%,30.588235%,54.509804%);stroke-opacity:1;stroke-miterlimit:10;" d="M 142.964844 19.046875 L 98.972656 -57.144531 L 109.972656 -76.191406 L 175.953125 -76.191406 L 227.765625 13.550781 " transform="matrix(1,0,0,1,48,86)"/>
<path style="fill:none;stroke-width:6;stroke-linecap:round;stroke-linejoin:bevel;stroke:rgb(56.078431%,30.588235%,54.509804%);stroke-opacity:1;stroke-miterlimit:10;" d="M 237.289062 19.046875 C 237.289062 22.554688 234.445312 25.398438 230.941406 25.398438 C 227.433594 25.398438 224.589844 22.554688 224.589844 19.046875 C 224.589844 15.542969 227.433594 12.699219 230.941406 12.699219 C 234.445312 12.699219 237.289062 15.542969 237.289062 19.046875 " transform="matrix(1,0,0,1,48,86)"/>
<path style="fill:none;stroke-width:6;stroke-linecap:round;stroke-linejoin:bevel;stroke:rgb(56.078431%,30.588235%,54.509804%);stroke-opacity:1;stroke-miterlimit:10;" d="M 131.964844 -76.191406 L 161.78125 -24.546875 " transform="matrix(1,0,0,1,48,86)"/>
<path style="fill:none;stroke-width:6;stroke-linecap:round;stroke-linejoin:bevel;stroke:rgb(56.078431%,30.588235%,54.509804%);stroke-opacity:1;stroke-miterlimit:10;" d="M 171.304688 -19.046875 C 171.304688 -15.542969 168.464844 -12.699219 164.957031 -12.699219 C 161.449219 -12.699219 158.609375 -15.542969 158.609375 -19.046875 C 158.609375 -22.554688 161.449219 -25.398438 164.957031 -25.398438 C 168.464844 -25.398438 171.304688 -22.554688 171.304688 -19.046875 " transform="matrix(1,0,0,1,48,86)"/>
<path style="fill:none;stroke-width:6;stroke-linecap:round;stroke-linejoin:bevel;stroke:rgb(56.078431%,30.588235%,54.509804%);stroke-opacity:1;stroke-miterlimit:10;" d="M 219.941406 -76.191406 L 274.929688 19.046875 L 340.910156 19.046875 L 351.910156 0 L 311.09375 -70.691406 " transform="matrix(1,0,0,1,48,86)"/>
<path style="fill:none;stroke-width:6;stroke-linecap:round;stroke-linejoin:bevel;stroke:rgb(56.078431%,30.588235%,54.509804%);stroke-opacity:1;stroke-miterlimit:10;" d="M 314.269531 -76.191406 C 314.269531 -72.683594 311.425781 -69.839844 307.921875 -69.839844 C 304.414062 -69.839844 301.570312 -72.683594 301.570312 -76.191406 C 301.570312 -79.695312 304.414062 -82.539062 307.921875 -82.539062 C 311.425781 -82.539062 314.269531 -79.695312 314.269531 -76.191406 " transform="matrix(1,0,0,1,48,86)"/>
<path style="fill:none;stroke-width:6;stroke-linecap:round;stroke-linejoin:bevel;stroke:rgb(56.078431%,30.588235%,54.509804%);stroke-opacity:1;stroke-miterlimit:10;" d="M 406.894531 19.046875 L 362.90625 -57.144531 L 373.902344 -76.191406 L 439.886719 -76.191406 L 491.695312 13.550781 " transform="matrix(1,0,0,1,48,86)"/>
<path style="fill:none;stroke-width:6;stroke-linecap:round;stroke-linejoin:bevel;stroke:rgb(56.078431%,30.588235%,54.509804%);stroke-opacity:1;stroke-miterlimit:10;" d="M 501.222656 19.046875 C 501.222656 22.554688 498.378906 25.398438 494.871094 25.398438 C 491.363281 25.398438 488.523438 22.554688 488.523438 19.046875 C 488.523438 15.542969 491.363281 12.699219 494.871094 12.699219 C 498.378906 12.699219 501.222656 15.542969 501.222656 19.046875 " transform="matrix(1,0,0,1,48,86)"/>
<path style="fill:none;stroke-width:6;stroke-linecap:round;stroke-linejoin:bevel;stroke:rgb(56.078431%,30.588235%,54.509804%);stroke-opacity:1;stroke-miterlimit:10;" d="M 538.859375 19.046875 L 487.050781 -70.691406 " transform="matrix(1,0,0,1,48,86)"/>
<path style="fill:none;stroke-width:6;stroke-linecap:round;stroke-linejoin:bevel;stroke:rgb(56.078431%,30.588235%,54.509804%);stroke-opacity:1;stroke-miterlimit:10;" d="M 490.222656 -76.191406 C 490.222656 -72.683594 487.382812 -69.839844 483.875 -69.839844 C 480.367188 -69.839844 477.523438 -72.683594 477.523438 -76.191406 C 477.523438 -79.695312 480.367188 -82.539062 483.875 -82.539062 C 487.382812 -82.539062 490.222656 -79.695312 490.222656 -76.191406 " transform="matrix(1,0,0,1,48,86)"/>
<path style="fill:none;stroke-width:6;stroke-linecap:round;stroke-linejoin:bevel;stroke:rgb(36.862745%,31.372549%,52.54902%);stroke-opacity:1;stroke-miterlimit:10;" d="M 219.941406 152.382812 L 168.132812 62.640625 " transform="matrix(1,0,0,1,48,86)"/>
<path style="fill:none;stroke-width:6;stroke-linecap:round;stroke-linejoin:bevel;stroke:rgb(36.862745%,31.372549%,52.54902%);stroke-opacity:1;stroke-miterlimit:10;" d="M 171.304688 57.144531 C 171.304688 60.648438 168.464844 63.492188 164.957031 63.492188 C 161.449219 63.492188 158.609375 60.648438 158.609375 57.144531 C 158.609375 53.636719 161.449219 50.792969 164.957031 50.792969 C 168.464844 50.792969 171.304688 53.636719 171.304688 57.144531 " transform="matrix(1,0,0,1,48,86)"/>
<path style="fill:none;stroke-width:6;stroke-linecap:round;stroke-linejoin:bevel;stroke:rgb(36.862745%,31.372549%,52.54902%);stroke-opacity:1;stroke-miterlimit:10;" d="M 192.449219 104.761719 L 252.082031 104.761719 " transform="matrix(1,0,0,1,48,86)"/>
<path style="fill:none;stroke-width:6;stroke-linecap:round;stroke-linejoin:bevel;stroke:rgb(36.862745%,31.372549%,52.54902%);stroke-opacity:1;stroke-miterlimit:10;" d="M 264.78125 104.761719 C 264.78125 108.269531 261.941406 111.109375 258.433594 111.109375 C 254.925781 111.109375 252.082031 108.269531 252.082031 104.761719 C 252.082031 101.253906 254.925781 98.414062 258.433594 98.414062 C 261.941406 98.414062 264.78125 101.253906 264.78125 104.761719 " transform="matrix(1,0,0,1,48,86)"/>
<path style="fill:none;stroke-width:6;stroke-linecap:round;stroke-linejoin:bevel;stroke:rgb(36.862745%,31.372549%,52.54902%);stroke-opacity:1;stroke-miterlimit:10;" d="M 307.921875 152.382812 L 256.109375 62.640625 " transform="matrix(1,0,0,1,48,86)"/>
<path style="fill:none;stroke-width:6;stroke-linecap:round;stroke-linejoin:bevel;stroke:rgb(36.862745%,31.372549%,52.54902%);stroke-opacity:1;stroke-miterlimit:10;" d="M 259.285156 57.144531 C 259.285156 60.648438 256.441406 63.492188 252.933594 63.492188 C 249.429688 63.492188 246.585938 60.648438 246.585938 57.144531 C 246.585938 53.636719 249.429688 50.792969 252.933594 50.792969 C 256.441406 50.792969 259.285156 53.636719 259.285156 57.144531 " transform="matrix(1,0,0,1,48,86)"/>
<path style="fill:none;stroke-width:6;stroke-linecap:round;stroke-linejoin:bevel;stroke:rgb(36.862745%,31.372549%,52.54902%);stroke-opacity:1;stroke-miterlimit:10;" d="M 351.910156 152.382812 L 307.921875 76.191406 L 318.917969 57.144531 L 384.898438 57.144531 L 436.710938 146.882812 " transform="matrix(1,0,0,1,48,86)"/>
<path style="fill:none;stroke-width:6;stroke-linecap:round;stroke-linejoin:bevel;stroke:rgb(36.862745%,31.372549%,52.54902%);stroke-opacity:1;stroke-miterlimit:10;" d="M 446.234375 152.382812 C 446.234375 155.886719 443.390625 158.730469 439.886719 158.730469 C 436.378906 158.730469 433.535156 155.886719 433.535156 152.382812 C 433.535156 148.875 436.378906 146.03125 439.886719 146.03125 C 443.390625 146.03125 446.234375 148.875 446.234375 152.382812 " transform="matrix(1,0,0,1,48,86)"/>
<path style="fill:none;stroke-width:6;stroke-linecap:round;stroke-linejoin:bevel;stroke:rgb(36.862745%,31.372549%,52.54902%);stroke-opacity:1;stroke-miterlimit:10;" d="M 324.414062 104.761719 L 384.050781 104.761719 " transform="matrix(1,0,0,1,48,86)"/>
<path style="fill:none;stroke-width:6;stroke-linecap:round;stroke-linejoin:bevel;stroke:rgb(36.862745%,31.372549%,52.54902%);stroke-opacity:1;stroke-miterlimit:10;" d="M 396.746094 104.761719 C 396.746094 108.269531 393.90625 111.109375 390.398438 111.109375 C 386.890625 111.109375 384.050781 108.269531 384.050781 104.761719 C 384.050781 101.253906 386.890625 98.414062 390.398438 98.414062 C 393.90625 98.414062 396.746094 101.253906 396.746094 104.761719 " transform="matrix(1,0,0,1,48,86)"/>
<path style="fill:none;stroke-width:6;stroke-linecap:round;stroke-linejoin:bevel;stroke:rgb(36.862745%,31.372549%,52.54902%);stroke-opacity:1;stroke-miterlimit:10;" d="M 571.851562 152.382812 L 483.875 152.382812 L 439.886719 76.191406 L 450.882812 57.144531 L 510.515625 57.144531 " transform="matrix(1,0,0,1,48,86)"/>
<path style="fill:none;stroke-width:6;stroke-linecap:round;stroke-linejoin:bevel;stroke:rgb(36.862745%,31.372549%,52.54902%);stroke-opacity:1;stroke-miterlimit:10;" d="M 523.214844 57.144531 C 523.214844 60.648438 520.371094 63.492188 516.867188 63.492188 C 513.359375 63.492188 510.515625 60.648438 510.515625 57.144531 C 510.515625 53.636719 513.359375 50.792969 516.867188 50.792969 C 520.371094 50.792969 523.214844 53.636719 523.214844 57.144531 " transform="matrix(1,0,0,1,48,86)"/>
<path style="fill:none;stroke-width:6;stroke-linecap:round;stroke-linejoin:bevel;stroke:rgb(27.058824%,22.745098%,38.431373%);stroke-opacity:1;stroke-miterlimit:10;" d="M 373.902344 285.714844 L 296.921875 285.714844 L 280.425781 257.144531 L 291.425781 238.09375 L 324.414062 238.09375 L 335.414062 219.046875 L 318.917969 190.476562 L 263.929688 190.476562 L 261.609375 194.5 " transform="matrix(1,0,0,1,48,86)"/>
<path style="fill:none;stroke-width:6;stroke-linecap:round;stroke-linejoin:bevel;stroke:rgb(27.058824%,22.745098%,38.431373%);stroke-opacity:1;stroke-miterlimit:10;" d="M 264.78125 200 C 264.78125 203.507812 261.941406 206.347656 258.433594 206.347656 C 254.925781 206.347656 252.082031 203.507812 252.082031 200 C 252.082031 196.492188 254.925781 193.652344 258.433594 193.652344 C 261.941406 193.652344 264.78125 196.492188 264.78125 200 " transform="matrix(1,0,0,1,48,86)"/>
<path style="fill:none;stroke-width:6;stroke-linecap:round;stroke-linejoin:bevel;stroke:rgb(27.058824%,22.745098%,38.431373%);stroke-opacity:1;stroke-miterlimit:10;" d="M 406.894531 285.714844 L 461.878906 285.714844 L 472.878906 266.667969 L 428.890625 190.476562 L 373.902344 190.476562 L 362.90625 209.523438 L 392.722656 261.167969 " transform="matrix(1,0,0,1,48,86)"/>
<path style="fill:none;stroke-width:6;stroke-linecap:round;stroke-linejoin:bevel;stroke:rgb(27.058824%,22.745098%,38.431373%);stroke-opacity:1;stroke-miterlimit:10;" d="M 402.246094 266.667969 C 402.246094 270.171875 399.402344 273.015625 395.898438 273.015625 C 392.390625 273.015625 389.546875 270.171875 389.546875 266.667969 C 389.546875 263.160156 392.390625 260.316406 395.898438 260.316406 C 399.402344 260.316406 402.246094 263.160156 402.246094 266.667969 " transform="matrix(1,0,0,1,48,86)"/>
<path style="fill:none;stroke-width:6;stroke-linecap:round;stroke-linejoin:bevel;stroke:rgb(27.058824%,22.745098%,38.431373%);stroke-opacity:1;stroke-miterlimit:10;" d="M 593.847656 285.714844 L 516.867188 285.714844 L 500.371094 257.144531 L 511.367188 238.09375 L 544.359375 238.09375 L 555.355469 219.046875 L 538.859375 190.476562 L 483.875 190.476562 L 481.550781 194.5 " transform="matrix(1,0,0,1,48,86)"/>
<path style="fill:none;stroke-width:6;stroke-linecap:round;stroke-linejoin:bevel;stroke:rgb(27.058824%,22.745098%,38.431373%);stroke-opacity:1;stroke-miterlimit:10;" d="M 484.726562 200 C 484.726562 203.507812 481.882812 206.347656 478.375 206.347656 C 474.871094 206.347656 472.027344 203.507812 472.027344 200 C 472.027344 196.492188 474.871094 193.652344 478.375 193.652344 C 481.882812 193.652344 484.726562 196.492188 484.726562 200 " transform="matrix(1,0,0,1,48,86)"/>
<path style="fill:none;stroke-width:6;stroke-linecap:round;stroke-linejoin:bevel;stroke:rgb(27.058824%,22.745098%,38.431373%);stroke-opacity:1;stroke-miterlimit:10;" d="M 703.816406 285.714844 L 626.835938 285.714844 L 610.339844 257.144531 L 621.339844 238.09375 L 654.332031 238.09375 L 665.328125 219.046875 L 648.832031 190.476562 L 593.847656 190.476562 L 591.523438 194.5 " transform="matrix(1,0,0,1,48,86)"/>
<path style="fill:none;stroke-width:6;stroke-linecap:round;stroke-linejoin:bevel;stroke:rgb(27.058824%,22.745098%,38.431373%);stroke-opacity:1;stroke-miterlimit:10;" d="M 594.695312 200 C 594.695312 203.507812 591.855469 206.347656 588.347656 206.347656 C 584.839844 206.347656 582 203.507812 582 200 C 582 196.492188 584.839844 193.652344 588.347656 193.652344 C 591.855469 193.652344 594.695312 196.492188 594.695312 200 " transform="matrix(1,0,0,1,48,86)"/>
</g>
</svg>
