<?xml version="1.0" encoding="UTF-8"?>
<svg xmlns="http://www.w3.org/2000/svg" xmlns:xlink="http://www.w3.org/1999/xlink" width="650pt" height="380pt" viewBox="0 0 650 380" version="1.1">
<g id="surface1">
<path style="fill:none;stroke-width:3;stroke-linecap:round;stroke-linejoin:bevel;stroke:rgb(56.078431%,30.588235%,54.509804%);stroke-opacity:1;stroke-miterlimit:10;" d="M -131.636719 156 L -136.5625 164.535156 " transform="matrix(1,0,0,1,160,190)"/>
<path style="fill:none;stroke-width:3;stroke-linecap:round;stroke-linejoin:bevel;stroke:rgb(56.078431%,30.588235%,54.509804%);stroke-opacity:1;stroke-miterlimit:10;" d="M -134.5625 168 C -134.5625 173.332031 -142.5625 173.332031 -142.5625 168 C -142.5625 162.667969 -134.5625 162.667969 -134.5625 168 " transform="matrix(1,0,0,1,160,190)"/>
<path style="fill:none;stroke-width:3;stroke-linecap:round;stroke-linejoin:bevel;stroke:rgb(56.078431%,30.588235%,54.509804%);stroke-opacity:1;stroke-miterlimit:10;" d="M -117.78125 156 L -122.707031 147.464844 " transform="matrix(1,0,0,1,160,190)"/>
<path style="fill:none;stroke-width:3;stroke-linecap:round;stroke-linejoin:bevel;stroke:rgb(56.078431%,30.588235%,54.509804%);stroke-opacity:1;stroke-miterlimit:10;" d="M -120.707031 144 C -120.707031 149.332031 -128.707031 149.332031 -128.707031 144 C -128.707031 138.667969 -120.707031 138.667969 -120.707031 144 " transform="matrix(1,0,0,1,160,190)"/>
<path style="fill:none;stroke-width:3;stroke-linecap:round;stroke-linejoin:bevel;stroke:rgb(56.078431%,30.588235%,54.509804%);stroke-opacity:1;stroke-miterlimit:10;" d="M -110.851562 144 L -117.78125 132 L -112.851562 123.464844 " transform="matrix(1,0,0,1,160,190)"/>
<path style="fill:none;stroke-width:3;stroke-linecap:round;stroke-linejoin:bevel;stroke:rgb(56.078431%,30.588235%,54.509804%);stroke-opacity:1;stroke-miterlimit:10;" d="M -106.851562 120 C -106.851562 125.332031 -114.851562 125.332031 -114.851562 120 C -114.851562 114.667969 -106.851562 114.667969 -106.851562 120 " transform="matrix(1,0,0,1,160,190)"/>
<path style="fill:none;stroke-width:3;stroke-linecap:round;stroke-linejoin:bevel;stroke:rgb(27.058824%,22.745098%,38.431373%);stroke-opacity:1;stroke-miterlimit:10;" d="M -103.921875 156 L -110.851562 168 L -120.707031 168 " transform="matrix(1,0,0,1,160,190)"/>
<path style="fill:none;stroke-width:3;stroke-linecap:round;stroke-linejoin:bevel;stroke:rgb(27.058824%,22.745098%,38.431373%);stroke-opacity:1;stroke-miterlimit:10;" d="M -120.707031 168 C -120.707031 173.332031 -128.707031 173.332031 -128.707031 168 C -128.707031 162.667969 -120.707031 162.667969 -120.707031 168 " transform="matrix(1,0,0,1,160,190)"/>
<path style="fill:none;stroke-width:3;stroke-linecap:round;stroke-linejoin:bevel;stroke:rgb(36.862745%,31.372549%,52.54902%);stroke-opacity:1;stroke-miterlimit:10;" d="M -90.066406 156 L -66.355469 156 " transform="matrix(1,0,0,1,160,190)"/>
<path style="fill:none;stroke-width:3;stroke-linecap:round;stroke-linejoin:bevel;stroke:rgb(36.862745%,31.372549%,52.54902%);stroke-opacity:1;stroke-miterlimit:10;" d="M -58.355469 156 C -58.355469 161.332031 -66.355469 161.332031 -66.355469 156 C -66.355469 150.667969 -58.355469 150.667969 -58.355469 156 " transform="matrix(1,0,0,1,160,190)"/>
<path style="fill:none;stroke-width:3;stroke-linecap:round;stroke-linejoin:bevel;stroke:rgb(27.058824%,22.745098%,38.431373%);stroke-opacity:1;stroke-miterlimit:10;" d="M -103.921875 108 L -96.996094 120 L -90.066406 132 L -76.210938 132 L -69.28125 144 L -55.425781 144 L -48.496094 156 L -62.355469 180 L -141.492188 180 " transform="matrix(1,0,0,1,160,190)"/>
<path style="fill:none;stroke-width:3;stroke-linecap:round;stroke-linejoin:bevel;stroke:rgb(27.058824%,22.745098%,38.431373%);stroke-opacity:1;stroke-miterlimit:10;" d="M -141.492188 180 C -141.492188 185.332031 -149.492188 185.332031 -149.492188 180 C -149.492188 174.667969 -141.492188 174.667969 -141.492188 180 " transform="matrix(1,0,0,1,160,190)"/>
<path style="fill:none;stroke-width:3;stroke-linecap:round;stroke-linejoin:bevel;stroke:rgb(36.862745%,31.372549%,52.54902%);stroke-opacity:1;stroke-miterlimit:10;" d="M -83.136719 144 L -96.996094 144 L -101.921875 135.464844 " transform="matrix(1,0,0,1,160,190)"/>
<path style="fill:none;stroke-width:3;stroke-linecap:round;stroke-linejoin:bevel;stroke:rgb(36.862745%,31.372549%,52.54902%);stroke-opacity:1;stroke-miterlimit:10;" d="M -99.921875 132 C -99.921875 137.332031 -107.921875 137.332031 -107.921875 132 C -107.921875 126.667969 -99.921875 126.667969 -99.921875 132 " transform="matrix(1,0,0,1,160,190)"/>
<path style="fill:none;stroke-width:3;stroke-linecap:round;stroke-linejoin:bevel;stroke:rgb(27.058824%,22.745098%,38.431373%);stroke-opacity:1;stroke-miterlimit:10;" d="M -69.28125 168 L -92.996094 168 " transform="matrix(1,0,0,1,160,190)"/>
<path style="fill:none;stroke-width:3;stroke-linecap:round;stroke-linejoin:bevel;stroke:rgb(27.058824%,22.745098%,38.431373%);stroke-opacity:1;stroke-miterlimit:10;" d="M -92.996094 168 C -92.996094 173.332031 -100.996094 173.332031 -100.996094 168 C -100.996094 162.667969 -92.996094 162.667969 -92.996094 168 " transform="matrix(1,0,0,1,160,190)"/>
<path style="fill:none;stroke-width:3;stroke-linecap:round;stroke-linejoin:bevel;stroke:rgb(36.862745%,31.372549%,52.54902%);stroke-opacity:1;stroke-miterlimit:10;" d="M -90.066406 108 L -83.136719 120 L -69.28125 120 L -64.355469 111.464844 " transform="matrix(1,0,0,1,160,190)"/>
<path style="fill:none;stroke-width:3;stroke-linecap:round;stroke-linejoin:bevel;stroke:rgb(36.862745%,31.372549%,52.54902%);stroke-opacity:1;stroke-miterlimit:10;" d="M -58.355469 108 C -58.355469 113.332031 -66.355469 113.332031 -66.355469 108 C -66.355469 102.667969 -58.355469 102.667969 -58.355469 108 " transform="matrix(1,0,0,1,160,190)"/>
<path style="fill:none;stroke-width:3;stroke-linecap:round;stroke-linejoin:bevel;stroke:rgb(36.862745%,31.372549%,52.54902%);stroke-opacity:1;stroke-miterlimit:10;" d="M -69.28125 96 L -83.136719 96 L -90.066406 84 L -83.136719 72 L -76.210938 60 L -69.28125 48 L -62.355469 36 L -57.425781 27.464844 " transform="matrix(1,0,0,1,160,190)"/>
<path style="fill:none;stroke-width:3;stroke-linecap:round;stroke-linejoin:bevel;stroke:rgb(36.862745%,31.372549%,52.54902%);stroke-opacity:1;stroke-miterlimit:10;" d="M -51.425781 24 C -51.425781 29.332031 -59.425781 29.332031 -59.425781 24 C -59.425781 18.667969 -51.425781 18.667969 -51.425781 24 " transform="matrix(1,0,0,1,160,190)"/>
<path style="fill:none;stroke-width:3;stroke-linecap:round;stroke-linejoin:bevel;stroke:rgb(56.078431%,30.588235%,54.509804%);stroke-opacity:1;stroke-miterlimit:10;" d="M -55.425781 120 L -60.355469 128.535156 " transform="matrix(1,0,0,1,160,190)"/>
<path style="fill:none;stroke-width:3;stroke-linecap:round;stroke-linejoin:bevel;stroke:rgb(56.078431%,30.588235%,54.509804%);stroke-opacity:1;stroke-miterlimit:10;" d="M -58.355469 132 C -58.355469 137.332031 -66.355469 137.332031 -66.355469 132 C -66.355469 126.667969 -58.355469 126.667969 -58.355469 132 " transform="matrix(1,0,0,1,160,190)"/>
<path style="fill:none;stroke-width:3;stroke-linecap:round;stroke-linejoin:bevel;stroke:rgb(36.862745%,31.372549%,52.54902%);stroke-opacity:1;stroke-miterlimit:10;" d="M -62.355469 84 L -69.28125 72 L -62.355469 60 L -55.425781 48 L -50.496094 39.464844 " transform="matrix(1,0,0,1,160,190)"/>
<path style="fill:none;stroke-width:3;stroke-linecap:round;stroke-linejoin:bevel;stroke:rgb(36.862745%,31.372549%,52.54902%);stroke-opacity:1;stroke-miterlimit:10;" d="M -44.496094 36 C -44.496094 41.332031 -52.496094 41.332031 -52.496094 36 C -52.496094 30.667969 -44.496094 30.667969 -44.496094 36 " transform="matrix(1,0,0,1,160,190)"/>
<path style="fill:none;stroke-width:3;stroke-linecap:round;stroke-linejoin:bevel;stroke:rgb(36.862745%,31.372549%,52.54902%);stroke-opacity:1;stroke-miterlimit:10;" d="M -55.425781 96 L -48.496094 108 L -43.570312 116.535156 " transform="matrix(1,0,0,1,160,190)"/>
<path style="fill:none;stroke-width:3;stroke-linecap:round;stroke-linejoin:bevel;stroke:rgb(36.862745%,31.372549%,52.54902%);stroke-opacity:1;stroke-miterlimit:10;" d="M -37.570312 120 C -37.570312 125.332031 -45.570312 125.332031 -45.570312 120 C -45.570312 114.667969 -37.570312 114.667969 -37.570312 120 " transform="matrix(1,0,0,1,160,190)"/>
<path style="fill:none;stroke-width:3;stroke-linecap:round;stroke-linejoin:bevel;stroke:rgb(27.058824%,22.745098%,38.431373%);stroke-opacity:1;stroke-miterlimit:10;" d="M -34.640625 132 L -44.496094 132 " transform="matrix(1,0,0,1,160,190)"/>
<path style="fill:none;stroke-width:3;stroke-linecap:round;stroke-linejoin:bevel;stroke:rgb(27.058824%,22.745098%,38.431373%);stroke-opacity:1;stroke-miterlimit:10;" d="M -44.496094 132 C -44.496094 137.332031 -52.496094 137.332031 -52.496094 132 C -52.496094 126.667969 -44.496094 126.667969 -44.496094 132 " transform="matrix(1,0,0,1,160,190)"/>
<path style="fill:none;stroke-width:3;stroke-linecap:round;stroke-linejoin:bevel;stroke:rgb(27.058824%,22.745098%,38.431373%);stroke-opacity:1;stroke-miterlimit:10;" d="M -55.425781 72 L -48.496094 60 L -41.570312 48 L -34.640625 36 L -41.570312 24 L -48.496094 12 L -41.570312 0 L -27.710938 -24 L -20.785156 -36 L -13.855469 -48 L 9.855469 -48 " transform="matrix(1,0,0,1,160,190)"/>
<path style="fill:none;stroke-width:3;stroke-linecap:round;stroke-linejoin:bevel;stroke:rgb(27.058824%,22.745098%,38.431373%);stroke-opacity:1;stroke-miterlimit:10;" d="M 17.855469 -48 C 17.855469 -42.667969 9.855469 -42.667969 9.855469 -48 C 9.855469 -53.332031 17.855469 -53.332031 17.855469 -48 " transform="matrix(1,0,0,1,160,190)"/>
<path style="fill:none;stroke-width:3;stroke-linecap:round;stroke-linejoin:bevel;stroke:rgb(56.078431%,30.588235%,54.509804%);stroke-opacity:1;stroke-miterlimit:10;" d="M -48.496094 84 L -41.570312 96 L -34.640625 108 L -29.710938 116.535156 " transform="matrix(1,0,0,1,160,190)"/>
<path style="fill:none;stroke-width:3;stroke-linecap:round;stroke-linejoin:bevel;stroke:rgb(56.078431%,30.588235%,54.509804%);stroke-opacity:1;stroke-miterlimit:10;" d="M -23.710938 120 C -23.710938 125.332031 -31.710938 125.332031 -31.710938 120 C -31.710938 114.667969 -23.710938 114.667969 -23.710938 120 " transform="matrix(1,0,0,1,160,190)"/>
<path style="fill:none;stroke-width:3;stroke-linecap:round;stroke-linejoin:bevel;stroke:rgb(27.058824%,22.745098%,38.431373%);stroke-opacity:1;stroke-miterlimit:10;" d="M -27.710938 96 L -41.570312 72 L -36.640625 63.464844 " transform="matrix(1,0,0,1,160,190)"/>
<path style="fill:none;stroke-width:3;stroke-linecap:round;stroke-linejoin:bevel;stroke:rgb(27.058824%,22.745098%,38.431373%);stroke-opacity:1;stroke-miterlimit:10;" d="M -30.640625 60 C -30.640625 65.332031 -38.640625 65.332031 -38.640625 60 C -38.640625 54.667969 -30.640625 54.667969 -30.640625 60 " transform="matrix(1,0,0,1,160,190)"/>
<path style="fill:none;stroke-width:3;stroke-linecap:round;stroke-linejoin:bevel;stroke:rgb(27.058824%,22.745098%,38.431373%);stroke-opacity:1;stroke-miterlimit:10;" d="M -20.785156 108 L -15.855469 99.464844 " transform="matrix(1,0,0,1,160,190)"/>
<path style="fill:none;stroke-width:3;stroke-linecap:round;stroke-linejoin:bevel;stroke:rgb(27.058824%,22.745098%,38.431373%);stroke-opacity:1;stroke-miterlimit:10;" d="M -9.855469 96 C -9.855469 101.332031 -17.855469 101.332031 -17.855469 96 C -17.855469 90.667969 -9.855469 90.667969 -9.855469 96 " transform="matrix(1,0,0,1,160,190)"/>
<path style="fill:none;stroke-width:3;stroke-linecap:round;stroke-linejoin:bevel;stroke:rgb(56.078431%,30.588235%,54.509804%);stroke-opacity:1;stroke-miterlimit:10;" d="M -20.785156 84 L -13.855469 72 L -20.785156 60 L -27.710938 48 L -20.785156 36 L -13.855469 24 L -20.785156 12 L -27.710938 0 L -20.785156 -12 L -6.929688 -12 L 6.929688 -36 L 20.785156 -36 L 25.710938 -27.464844 " transform="matrix(1,0,0,1,160,190)"/>
<path style="fill:none;stroke-width:3;stroke-linecap:round;stroke-linejoin:bevel;stroke:rgb(56.078431%,30.588235%,54.509804%);stroke-opacity:1;stroke-miterlimit:10;" d="M 31.710938 -24 C 31.710938 -18.667969 23.710938 -18.667969 23.710938 -24 C 23.710938 -29.332031 31.710938 -29.332031 31.710938 -24 " transform="matrix(1,0,0,1,160,190)"/>
<path style="fill:none;stroke-width:3;stroke-linecap:round;stroke-linejoin:bevel;stroke:rgb(27.058824%,22.745098%,38.431373%);stroke-opacity:1;stroke-miterlimit:10;" d="M -131.636719 -156 L -138.5625 -168 L -143.492188 -176.535156 " transform="matrix(1,0,0,1,160,190)"/>
<path style="fill:none;stroke-width:3;stroke-linecap:round;stroke-linejoin:bevel;stroke:rgb(27.058824%,22.745098%,38.431373%);stroke-opacity:1;stroke-miterlimit:10;" d="M -141.492188 -180 C -141.492188 -174.667969 -149.492188 -174.667969 -149.492188 -180 C -149.492188 -185.332031 -141.492188 -185.332031 -141.492188 -180 " transform="matrix(1,0,0,1,160,190)"/>
<path style="fill:none;stroke-width:3;stroke-linecap:round;stroke-linejoin:bevel;stroke:rgb(56.078431%,30.588235%,54.509804%);stroke-opacity:1;stroke-miterlimit:10;" d="M -124.707031 -144 L -117.78125 -132 L -103.921875 -108 L -98.996094 -99.464844 " transform="matrix(1,0,0,1,160,190)"/>
<path style="fill:none;stroke-width:3;stroke-linecap:round;stroke-linejoin:bevel;stroke:rgb(56.078431%,30.588235%,54.509804%);stroke-opacity:1;stroke-miterlimit:10;" d="M -92.996094 -96 C -92.996094 -90.667969 -100.996094 -90.667969 -100.996094 -96 C -100.996094 -101.332031 -92.996094 -101.332031 -92.996094 -96 " transform="matrix(1,0,0,1,160,190)"/>
<path style="fill:none;stroke-width:3;stroke-linecap:round;stroke-linejoin:bevel;stroke:rgb(27.058824%,22.745098%,38.431373%);stroke-opacity:1;stroke-miterlimit:10;" d="M -27.710938 24 L -32.640625 15.464844 " transform="matrix(1,0,0,1,160,190)"/>
<path style="fill:none;stroke-width:3;stroke-linecap:round;stroke-linejoin:bevel;stroke:rgb(27.058824%,22.745098%,38.431373%);stroke-opacity:1;stroke-miterlimit:10;" d="M -30.640625 12 C -30.640625 17.332031 -38.640625 17.332031 -38.640625 12 C -38.640625 6.667969 -30.640625 6.667969 -30.640625 12 " transform="matrix(1,0,0,1,160,190)"/>
<path style="fill:none;stroke-width:3;stroke-linecap:round;stroke-linejoin:bevel;stroke:rgb(36.862745%,31.372549%,52.54902%);stroke-opacity:1;stroke-miterlimit:10;" d="M -110.851562 -144 L -105.921875 -152.535156 " transform="matrix(1,0,0,1,160,190)"/>
<path style="fill:none;stroke-width:3;stroke-linecap:round;stroke-linejoin:bevel;stroke:rgb(36.862745%,31.372549%,52.54902%);stroke-opacity:1;stroke-miterlimit:10;" d="M -99.921875 -156 C -99.921875 -150.667969 -107.921875 -150.667969 -107.921875 -156 C -107.921875 -161.332031 -99.921875 -161.332031 -99.921875 -156 " transform="matrix(1,0,0,1,160,190)"/>
<path style="fill:none;stroke-width:3;stroke-linecap:round;stroke-linejoin:bevel;stroke:rgb(56.078431%,30.588235%,54.509804%);stroke-opacity:1;stroke-miterlimit:10;" d="M -83.136719 -96 L -96.996094 -120 L -103.921875 -132 L -96.996094 -144 L -90.066406 -156 L -96.996094 -168 L -103.921875 -180 L -127.636719 -180 " transform="matrix(1,0,0,1,160,190)"/>
<path style="fill:none;stroke-width:3;stroke-linecap:round;stroke-linejoin:bevel;stroke:rgb(56.078431%,30.588235%,54.509804%);stroke-opacity:1;stroke-miterlimit:10;" d="M -127.636719 -180 C -127.636719 -174.667969 -135.636719 -174.667969 -135.636719 -180 C -135.636719 -185.332031 -127.636719 -185.332031 -127.636719 -180 " transform="matrix(1,0,0,1,160,190)"/>
<path style="fill:none;stroke-width:3;stroke-linecap:round;stroke-linejoin:bevel;stroke:rgb(36.862745%,31.372549%,52.54902%);stroke-opacity:1;stroke-miterlimit:10;" d="M -55.425781 -48 L -60.355469 -56.535156 " transform="matrix(1,0,0,1,160,190)"/>
<path style="fill:none;stroke-width:3;stroke-linecap:round;stroke-linejoin:bevel;stroke:rgb(36.862745%,31.372549%,52.54902%);stroke-opacity:1;stroke-miterlimit:10;" d="M -58.355469 -60 C -58.355469 -54.667969 -66.355469 -54.667969 -66.355469 -60 C -66.355469 -65.332031 -58.355469 -65.332031 -58.355469 -60 " transform="matrix(1,0,0,1,160,190)"/>
<path style="fill:none;stroke-width:3;stroke-linecap:round;stroke-linejoin:bevel;stroke:rgb(36.862745%,31.372549%,52.54902%);stroke-opacity:1;stroke-miterlimit:10;" d="M -41.570312 -24 L -27.710938 -48 L -20.785156 -60 L -13.855469 -72 L -18.785156 -80.535156 " transform="matrix(1,0,0,1,160,190)"/>
<path style="fill:none;stroke-width:3;stroke-linecap:round;stroke-linejoin:bevel;stroke:rgb(36.862745%,31.372549%,52.54902%);stroke-opacity:1;stroke-miterlimit:10;" d="M -16.785156 -84 C -16.785156 -78.667969 -24.785156 -78.667969 -24.785156 -84 C -24.785156 -89.332031 -16.785156 -89.332031 -16.785156 -84 " transform="matrix(1,0,0,1,160,190)"/>
<path style="fill:none;stroke-width:3;stroke-linecap:round;stroke-linejoin:bevel;stroke:rgb(56.078431%,30.588235%,54.509804%);stroke-opacity:1;stroke-miterlimit:10;" d="M 0 48 L 4.929688 39.464844 " transform="matrix(1,0,0,1,160,190)"/>
<path style="fill:none;stroke-width:3;stroke-linecap:round;stroke-linejoin:bevel;stroke:rgb(56.078431%,30.588235%,54.509804%);stroke-opacity:1;stroke-miterlimit:10;" d="M 10.929688 36 C 10.929688 41.332031 2.929688 41.332031 2.929688 36 C 2.929688 30.667969 10.929688 30.667969 10.929688 36 " transform="matrix(1,0,0,1,160,190)"/>
<path style="fill:none;stroke-width:3;stroke-linecap:round;stroke-linejoin:bevel;stroke:rgb(27.058824%,22.745098%,38.431373%);stroke-opacity:1;stroke-miterlimit:10;" d="M 20.785156 84 L 13.855469 72 L 6.929688 60 L 11.855469 51.464844 " transform="matrix(1,0,0,1,160,190)"/>
<path style="fill:none;stroke-width:3;stroke-linecap:round;stroke-linejoin:bevel;stroke:rgb(27.058824%,22.745098%,38.431373%);stroke-opacity:1;stroke-miterlimit:10;" d="M 17.855469 48 C 17.855469 53.332031 9.855469 53.332031 9.855469 48 C 9.855469 42.667969 17.855469 42.667969 17.855469 48 " transform="matrix(1,0,0,1,160,190)"/>
<path style="fill:none;stroke-width:3;stroke-linecap:round;stroke-linejoin:bevel;stroke:rgb(27.058824%,22.745098%,38.431373%);stroke-opacity:1;stroke-miterlimit:10;" d="M 27.710938 96 L 13.855469 96 L 6.929688 84 L -6.929688 60 L -13.855469 48 L -6.929688 36 L 0 24 L -4.929688 15.464844 " transform="matrix(1,0,0,1,160,190)"/>
<path style="fill:none;stroke-width:3;stroke-linecap:round;stroke-linejoin:bevel;stroke:rgb(27.058824%,22.745098%,38.431373%);stroke-opacity:1;stroke-miterlimit:10;" d="M -2.929688 12 C -2.929688 17.332031 -10.929688 17.332031 -10.929688 12 C -10.929688 6.667969 -2.929688 6.667969 -2.929688 12 " transform="matrix(1,0,0,1,160,190)"/>
<path style="fill:none;stroke-width:3;stroke-linecap:round;stroke-linejoin:bevel;stroke:rgb(36.862745%,31.372549%,52.54902%);stroke-opacity:1;stroke-miterlimit:10;" d="M 34.640625 108 L 27.710938 120 L 41.570312 144 L 48.496094 156 L 103.921875 156 L 110.851562 144 L 115.78125 135.464844 " transform="matrix(1,0,0,1,160,190)"/>
<path style="fill:none;stroke-width:3;stroke-linecap:round;stroke-linejoin:bevel;stroke:rgb(36.862745%,31.372549%,52.54902%);stroke-opacity:1;stroke-miterlimit:10;" d="M 121.78125 132 C 121.78125 137.332031 113.78125 137.332031 113.78125 132 C 113.78125 126.667969 121.78125 126.667969 121.78125 132 " transform="matrix(1,0,0,1,160,190)"/>
<path style="fill:none;stroke-width:3;stroke-linecap:round;stroke-linejoin:bevel;stroke:rgb(27.058824%,22.745098%,38.431373%);stroke-opacity:1;stroke-miterlimit:10;" d="M 69.28125 168 L 106.851562 168 " transform="matrix(1,0,0,1,160,190)"/>
<path style="fill:none;stroke-width:3;stroke-linecap:round;stroke-linejoin:bevel;stroke:rgb(27.058824%,22.745098%,38.431373%);stroke-opacity:1;stroke-miterlimit:10;" d="M 114.851562 168 C 114.851562 173.332031 106.851562 173.332031 106.851562 168 C 106.851562 162.667969 114.851562 162.667969 114.851562 168 " transform="matrix(1,0,0,1,160,190)"/>
<path style="fill:none;stroke-width:3;stroke-linecap:round;stroke-linejoin:bevel;stroke:rgb(56.078431%,30.588235%,54.509804%);stroke-opacity:1;stroke-miterlimit:10;" d="M -110.851562 -168 L -120.707031 -168 " transform="matrix(1,0,0,1,160,190)"/>
<path style="fill:none;stroke-width:3;stroke-linecap:round;stroke-linejoin:bevel;stroke:rgb(56.078431%,30.588235%,54.509804%);stroke-opacity:1;stroke-miterlimit:10;" d="M -120.707031 -168 C -120.707031 -162.667969 -128.707031 -162.667969 -128.707031 -168 C -128.707031 -173.332031 -120.707031 -173.332031 -120.707031 -168 " transform="matrix(1,0,0,1,160,190)"/>
<path style="fill:none;stroke-width:3;stroke-linecap:round;stroke-linejoin:bevel;stroke:rgb(56.078431%,30.588235%,54.509804%);stroke-opacity:1;stroke-miterlimit:10;" d="M -90.066406 -132 L -85.136719 -123.464844 " transform="matrix(1,0,0,1,160,190)"/>
<path style="fill:none;stroke-width:3;stroke-linecap:round;stroke-linejoin:bevel;stroke:rgb(56.078431%,30.588235%,54.509804%);stroke-opacity:1;stroke-miterlimit:10;" d="M -79.136719 -120 C -79.136719 -114.667969 -87.136719 -114.667969 -87.136719 -120 C -87.136719 -125.332031 -79.136719 -125.332031 -79.136719 -120 " transform="matrix(1,0,0,1,160,190)"/>
<path style="fill:none;stroke-width:3;stroke-linecap:round;stroke-linejoin:bevel;stroke:rgb(27.058824%,22.745098%,38.431373%);stroke-opacity:1;stroke-miterlimit:10;" d="M -76.210938 -108 L -69.28125 -120 L -76.210938 -132 L -81.136719 -140.535156 " transform="matrix(1,0,0,1,160,190)"/>
<path style="fill:none;stroke-width:3;stroke-linecap:round;stroke-linejoin:bevel;stroke:rgb(27.058824%,22.745098%,38.431373%);stroke-opacity:1;stroke-miterlimit:10;" d="M -79.136719 -144 C -79.136719 -138.667969 -87.136719 -138.667969 -87.136719 -144 C -87.136719 -149.332031 -79.136719 -149.332031 -79.136719 -144 " transform="matrix(1,0,0,1,160,190)"/>
<path style="fill:none;stroke-width:3;stroke-linecap:round;stroke-linejoin:bevel;stroke:rgb(36.862745%,31.372549%,52.54902%);stroke-opacity:1;stroke-miterlimit:10;" d="M -69.28125 -96 L -45.570312 -96 " transform="matrix(1,0,0,1,160,190)"/>
<path style="fill:none;stroke-width:3;stroke-linecap:round;stroke-linejoin:bevel;stroke:rgb(36.862745%,31.372549%,52.54902%);stroke-opacity:1;stroke-miterlimit:10;" d="M -37.570312 -96 C -37.570312 -90.667969 -45.570312 -90.667969 -45.570312 -96 C -45.570312 -101.332031 -37.570312 -101.332031 -37.570312 -96 " transform="matrix(1,0,0,1,160,190)"/>
<path style="fill:none;stroke-width:3;stroke-linecap:round;stroke-linejoin:bevel;stroke:rgb(56.078431%,30.588235%,54.509804%);stroke-opacity:1;stroke-miterlimit:10;" d="M -48.496094 -60 L -55.425781 -72 L -69.28125 -72 L -76.210938 -60 L -69.28125 -48 L -64.355469 -39.464844 " transform="matrix(1,0,0,1,160,190)"/>
<path style="fill:none;stroke-width:3;stroke-linecap:round;stroke-linejoin:bevel;stroke:rgb(56.078431%,30.588235%,54.509804%);stroke-opacity:1;stroke-miterlimit:10;" d="M -58.355469 -36 C -58.355469 -30.667969 -66.355469 -30.667969 -66.355469 -36 C -66.355469 -41.332031 -58.355469 -41.332031 -58.355469 -36 " transform="matrix(1,0,0,1,160,190)"/>
<path style="fill:none;stroke-width:3;stroke-linecap:round;stroke-linejoin:bevel;stroke:rgb(56.078431%,30.588235%,54.509804%);stroke-opacity:1;stroke-miterlimit:10;" d="M -13.855469 0 L 0 0 L 6.929688 12 L 13.855469 24 L 20.785156 36 L 27.710938 48 L 20.785156 60 L 27.710938 72 L 34.640625 84 L 39.570312 92.535156 " transform="matrix(1,0,0,1,160,190)"/>
<path style="fill:none;stroke-width:3;stroke-linecap:round;stroke-linejoin:bevel;stroke:rgb(56.078431%,30.588235%,54.509804%);stroke-opacity:1;stroke-miterlimit:10;" d="M 45.570312 96 C 45.570312 101.332031 37.570312 101.332031 37.570312 96 C 37.570312 90.667969 45.570312 90.667969 45.570312 96 " transform="matrix(1,0,0,1,160,190)"/>
<path style="fill:none;stroke-width:3;stroke-linecap:round;stroke-linejoin:bevel;stroke:rgb(56.078431%,30.588235%,54.509804%);stroke-opacity:1;stroke-miterlimit:10;" d="M 55.425781 120 L 48.496094 108 L 55.425781 96 L 96.996094 96 L 103.921875 108 L 110.851562 120 L 103.921875 132 L 96.996094 144 L 55.425781 144 L 48.496094 132 L 43.570312 123.464844 " transform="matrix(1,0,0,1,160,190)"/>
<path style="fill:none;stroke-width:3;stroke-linecap:round;stroke-linejoin:bevel;stroke:rgb(56.078431%,30.588235%,54.509804%);stroke-opacity:1;stroke-miterlimit:10;" d="M 45.570312 120 C 45.570312 125.332031 37.570312 125.332031 37.570312 120 C 37.570312 114.667969 45.570312 114.667969 45.570312 120 " transform="matrix(1,0,0,1,160,190)"/>
<path style="fill:none;stroke-width:3;stroke-linecap:round;stroke-linejoin:bevel;stroke:rgb(27.058824%,22.745098%,38.431373%);stroke-opacity:1;stroke-miterlimit:10;" d="M 41.570312 72 L 48.496094 60 L 41.570312 48 L 27.710938 24 L 20.785156 12 L 13.855469 0 L 6.929688 -12 L 11.855469 -20.535156 " transform="matrix(1,0,0,1,160,190)"/>
<path style="fill:none;stroke-width:3;stroke-linecap:round;stroke-linejoin:bevel;stroke:rgb(27.058824%,22.745098%,38.431373%);stroke-opacity:1;stroke-miterlimit:10;" d="M 17.855469 -24 C 17.855469 -18.667969 9.855469 -18.667969 9.855469 -24 C 9.855469 -29.332031 17.855469 -29.332031 17.855469 -24 " transform="matrix(1,0,0,1,160,190)"/>
<path style="fill:none;stroke-width:3;stroke-linecap:round;stroke-linejoin:bevel;stroke:rgb(27.058824%,22.745098%,38.431373%);stroke-opacity:1;stroke-miterlimit:10;" d="M 62.355469 108 L 90.066406 108 L 94.996094 116.535156 " transform="matrix(1,0,0,1,160,190)"/>
<path style="fill:none;stroke-width:3;stroke-linecap:round;stroke-linejoin:bevel;stroke:rgb(27.058824%,22.745098%,38.431373%);stroke-opacity:1;stroke-miterlimit:10;" d="M 100.996094 120 C 100.996094 125.332031 92.996094 125.332031 92.996094 120 C 92.996094 114.667969 100.996094 114.667969 100.996094 120 " transform="matrix(1,0,0,1,160,190)"/>
<path style="fill:none;stroke-width:3;stroke-linecap:round;stroke-linejoin:bevel;stroke:rgb(36.862745%,31.372549%,52.54902%);stroke-opacity:1;stroke-miterlimit:10;" d="M 103.921875 180 L 62.355469 180 L 57.425781 171.464844 " transform="matrix(1,0,0,1,160,190)"/>
<path style="fill:none;stroke-width:3;stroke-linecap:round;stroke-linejoin:bevel;stroke:rgb(36.862745%,31.372549%,52.54902%);stroke-opacity:1;stroke-miterlimit:10;" d="M 59.425781 168 C 59.425781 173.332031 51.425781 173.332031 51.425781 168 C 51.425781 162.667969 59.425781 162.667969 59.425781 168 " transform="matrix(1,0,0,1,160,190)"/>
<path style="fill:none;stroke-width:3;stroke-linecap:round;stroke-linejoin:bevel;stroke:rgb(36.862745%,31.372549%,52.54902%);stroke-opacity:1;stroke-miterlimit:10;" d="M -90.066406 -180 L -85.136719 -171.464844 " transform="matrix(1,0,0,1,160,190)"/>
<path style="fill:none;stroke-width:3;stroke-linecap:round;stroke-linejoin:bevel;stroke:rgb(36.862745%,31.372549%,52.54902%);stroke-opacity:1;stroke-miterlimit:10;" d="M -79.136719 -168 C -79.136719 -162.667969 -87.136719 -162.667969 -87.136719 -168 C -87.136719 -173.332031 -79.136719 -173.332031 -79.136719 -168 " transform="matrix(1,0,0,1,160,190)"/>
<path style="fill:none;stroke-width:3;stroke-linecap:round;stroke-linejoin:bevel;stroke:rgb(36.862745%,31.372549%,52.54902%);stroke-opacity:1;stroke-miterlimit:10;" d="M -34.640625 -84 L -86.066406 -84 " transform="matrix(1,0,0,1,160,190)"/>
<path style="fill:none;stroke-width:3;stroke-linecap:round;stroke-linejoin:bevel;stroke:rgb(36.862745%,31.372549%,52.54902%);stroke-opacity:1;stroke-miterlimit:10;" d="M -86.066406 -84 C -86.066406 -78.667969 -94.066406 -78.667969 -94.066406 -84 C -94.066406 -89.332031 -86.066406 -89.332031 -86.066406 -84 " transform="matrix(1,0,0,1,160,190)"/>
<path style="fill:none;stroke-width:3;stroke-linecap:round;stroke-linejoin:bevel;stroke:rgb(36.862745%,31.372549%,52.54902%);stroke-opacity:1;stroke-miterlimit:10;" d="M -27.710938 -72 L -41.570312 -48 L -48.496094 -36 L -55.425781 -24 L -50.496094 -15.464844 " transform="matrix(1,0,0,1,160,190)"/>
<path style="fill:none;stroke-width:3;stroke-linecap:round;stroke-linejoin:bevel;stroke:rgb(36.862745%,31.372549%,52.54902%);stroke-opacity:1;stroke-miterlimit:10;" d="M -44.496094 -12 C -44.496094 -6.667969 -52.496094 -6.667969 -52.496094 -12 C -52.496094 -17.332031 -44.496094 -17.332031 -44.496094 -12 " transform="matrix(1,0,0,1,160,190)"/>
<path style="fill:none;stroke-width:3;stroke-linecap:round;stroke-linejoin:bevel;stroke:rgb(36.862745%,31.372549%,52.54902%);stroke-opacity:1;stroke-miterlimit:10;" d="M -6.929688 -36 L -11.855469 -27.464844 " transform="matrix(1,0,0,1,160,190)"/>
<path style="fill:none;stroke-width:3;stroke-linecap:round;stroke-linejoin:bevel;stroke:rgb(36.862745%,31.372549%,52.54902%);stroke-opacity:1;stroke-miterlimit:10;" d="M -9.855469 -24 C -9.855469 -18.667969 -17.855469 -18.667969 -17.855469 -24 C -17.855469 -29.332031 -9.855469 -29.332031 -9.855469 -24 " transform="matrix(1,0,0,1,160,190)"/>
<path style="fill:none;stroke-width:3;stroke-linecap:round;stroke-linejoin:bevel;stroke:rgb(27.058824%,22.745098%,38.431373%);stroke-opacity:1;stroke-miterlimit:10;" d="M 83.136719 120 L 73.28125 120 " transform="matrix(1,0,0,1,160,190)"/>
<path style="fill:none;stroke-width:3;stroke-linecap:round;stroke-linejoin:bevel;stroke:rgb(27.058824%,22.745098%,38.431373%);stroke-opacity:1;stroke-miterlimit:10;" d="M 73.28125 120 C 73.28125 125.332031 65.28125 125.332031 65.28125 120 C 65.28125 114.667969 73.28125 114.667969 73.28125 120 " transform="matrix(1,0,0,1,160,190)"/>
<path style="fill:none;stroke-width:3;stroke-linecap:round;stroke-linejoin:bevel;stroke:rgb(27.058824%,22.745098%,38.431373%);stroke-opacity:1;stroke-miterlimit:10;" d="M 90.066406 132 L 66.355469 132 " transform="matrix(1,0,0,1,160,190)"/>
<path style="fill:none;stroke-width:3;stroke-linecap:round;stroke-linejoin:bevel;stroke:rgb(27.058824%,22.745098%,38.431373%);stroke-opacity:1;stroke-miterlimit:10;" d="M 66.355469 132 C 66.355469 137.332031 58.355469 137.332031 58.355469 132 C 58.355469 126.667969 66.355469 126.667969 66.355469 132 " transform="matrix(1,0,0,1,160,190)"/>
<path style="fill:none;stroke-width:3;stroke-linecap:round;stroke-linejoin:bevel;stroke:rgb(56.078431%,30.588235%,54.509804%);stroke-opacity:1;stroke-miterlimit:10;" d="M 117.78125 180 L 124.707031 168 L 119.78125 159.464844 " transform="matrix(1,0,0,1,160,190)"/>
<path style="fill:none;stroke-width:3;stroke-linecap:round;stroke-linejoin:bevel;stroke:rgb(56.078431%,30.588235%,54.509804%);stroke-opacity:1;stroke-miterlimit:10;" d="M 121.78125 156 C 121.78125 161.332031 113.78125 161.332031 113.78125 156 C 113.78125 150.667969 121.78125 150.667969 121.78125 156 " transform="matrix(1,0,0,1,160,190)"/>
<path style="fill:none;stroke-width:3;stroke-linecap:round;stroke-linejoin:bevel;stroke:rgb(56.078431%,30.588235%,54.509804%);stroke-opacity:1;stroke-miterlimit:10;" d="M -55.425781 -144 L -41.570312 -144 L -36.640625 -135.464844 " transform="matrix(1,0,0,1,160,190)"/>
<path style="fill:none;stroke-width:3;stroke-linecap:round;stroke-linejoin:bevel;stroke:rgb(56.078431%,30.588235%,54.509804%);stroke-opacity:1;stroke-miterlimit:10;" d="M -30.640625 -132 C -30.640625 -126.667969 -38.640625 -126.667969 -38.640625 -132 C -38.640625 -137.332031 -30.640625 -137.332031 -30.640625 -132 " transform="matrix(1,0,0,1,160,190)"/>
<path style="fill:none;stroke-width:3;stroke-linecap:round;stroke-linejoin:bevel;stroke:rgb(36.862745%,31.372549%,52.54902%);stroke-opacity:1;stroke-miterlimit:10;" d="M -6.929688 -60 L 2.929688 -60 " transform="matrix(1,0,0,1,160,190)"/>
<path style="fill:none;stroke-width:3;stroke-linecap:round;stroke-linejoin:bevel;stroke:rgb(36.862745%,31.372549%,52.54902%);stroke-opacity:1;stroke-miterlimit:10;" d="M 10.929688 -60 C 10.929688 -54.667969 2.929688 -54.667969 2.929688 -60 C 2.929688 -65.332031 10.929688 -65.332031 10.929688 -60 " transform="matrix(1,0,0,1,160,190)"/>
<path style="fill:none;stroke-width:3;stroke-linecap:round;stroke-linejoin:bevel;stroke:rgb(36.862745%,31.372549%,52.54902%);stroke-opacity:1;stroke-miterlimit:10;" d="M 27.710938 0 L 22.785156 -8.535156 " transform="matrix(1,0,0,1,160,190)"/>
<path style="fill:none;stroke-width:3;stroke-linecap:round;stroke-linejoin:bevel;stroke:rgb(36.862745%,31.372549%,52.54902%);stroke-opacity:1;stroke-miterlimit:10;" d="M 24.785156 -12 C 24.785156 -6.667969 16.785156 -6.667969 16.785156 -12 C 16.785156 -17.332031 24.785156 -17.332031 24.785156 -12 " transform="matrix(1,0,0,1,160,190)"/>
<path style="fill:none;stroke-width:3;stroke-linecap:round;stroke-linejoin:bevel;stroke:rgb(27.058824%,22.745098%,38.431373%);stroke-opacity:1;stroke-miterlimit:10;" d="M 41.570312 24 L 48.496094 12 L 41.570312 0 L 36.640625 -8.535156 " transform="matrix(1,0,0,1,160,190)"/>
<path style="fill:none;stroke-width:3;stroke-linecap:round;stroke-linejoin:bevel;stroke:rgb(27.058824%,22.745098%,38.431373%);stroke-opacity:1;stroke-miterlimit:10;" d="M 38.640625 -12 C 38.640625 -6.667969 30.640625 -6.667969 30.640625 -12 C 30.640625 -17.332031 38.640625 -17.332031 38.640625 -12 " transform="matrix(1,0,0,1,160,190)"/>
<path style="fill:none;stroke-width:3;stroke-linecap:round;stroke-linejoin:bevel;stroke:rgb(36.862745%,31.372549%,52.54902%);stroke-opacity:1;stroke-miterlimit:10;" d="M 48.496094 36 L 58.355469 36 " transform="matrix(1,0,0,1,160,190)"/>
<path style="fill:none;stroke-width:3;stroke-linecap:round;stroke-linejoin:bevel;stroke:rgb(36.862745%,31.372549%,52.54902%);stroke-opacity:1;stroke-miterlimit:10;" d="M 66.355469 36 C 66.355469 41.332031 58.355469 41.332031 58.355469 36 C 58.355469 30.667969 66.355469 30.667969 66.355469 36 " transform="matrix(1,0,0,1,160,190)"/>
<path style="fill:none;stroke-width:3;stroke-linecap:round;stroke-linejoin:bevel;stroke:rgb(27.058824%,22.745098%,38.431373%);stroke-opacity:1;stroke-miterlimit:10;" d="M 55.425781 48 L 62.355469 60 L 67.28125 68.535156 " transform="matrix(1,0,0,1,160,190)"/>
<path style="fill:none;stroke-width:3;stroke-linecap:round;stroke-linejoin:bevel;stroke:rgb(27.058824%,22.745098%,38.431373%);stroke-opacity:1;stroke-miterlimit:10;" d="M 73.28125 72 C 73.28125 77.332031 65.28125 77.332031 65.28125 72 C 65.28125 66.667969 73.28125 66.667969 73.28125 72 " transform="matrix(1,0,0,1,160,190)"/>
<path style="fill:none;stroke-width:3;stroke-linecap:round;stroke-linejoin:bevel;stroke:rgb(36.862745%,31.372549%,52.54902%);stroke-opacity:1;stroke-miterlimit:10;" d="M -55.425781 -168 L -60.355469 -159.464844 " transform="matrix(1,0,0,1,160,190)"/>
<path style="fill:none;stroke-width:3;stroke-linecap:round;stroke-linejoin:bevel;stroke:rgb(36.862745%,31.372549%,52.54902%);stroke-opacity:1;stroke-miterlimit:10;" d="M -58.355469 -156 C -58.355469 -150.667969 -66.355469 -150.667969 -66.355469 -156 C -66.355469 -161.332031 -58.355469 -161.332031 -58.355469 -156 " transform="matrix(1,0,0,1,160,190)"/>
<path style="fill:none;stroke-width:3;stroke-linecap:round;stroke-linejoin:bevel;stroke:rgb(36.862745%,31.372549%,52.54902%);stroke-opacity:1;stroke-miterlimit:10;" d="M -27.710938 -120 L -41.570312 -120 L -48.496094 -132 L -62.355469 -132 L -69.28125 -144 L -76.210938 -156 L -69.28125 -168 L -64.355469 -176.535156 " transform="matrix(1,0,0,1,160,190)"/>
<path style="fill:none;stroke-width:3;stroke-linecap:round;stroke-linejoin:bevel;stroke:rgb(36.862745%,31.372549%,52.54902%);stroke-opacity:1;stroke-miterlimit:10;" d="M -58.355469 -180 C -58.355469 -174.667969 -66.355469 -174.667969 -66.355469 -180 C -66.355469 -185.332031 -58.355469 -185.332031 -58.355469 -180 " transform="matrix(1,0,0,1,160,190)"/>
<path style="fill:none;stroke-width:3;stroke-linecap:round;stroke-linejoin:bevel;stroke:rgb(56.078431%,30.588235%,54.509804%);stroke-opacity:1;stroke-miterlimit:10;" d="M 0 -72 L -6.929688 -84 L -13.855469 -96 L -27.710938 -96 L -34.640625 -108 L -48.496094 -108 L -53.425781 -116.535156 " transform="matrix(1,0,0,1,160,190)"/>
<path style="fill:none;stroke-width:3;stroke-linecap:round;stroke-linejoin:bevel;stroke:rgb(56.078431%,30.588235%,54.509804%);stroke-opacity:1;stroke-miterlimit:10;" d="M -51.425781 -120 C -51.425781 -114.667969 -59.425781 -114.667969 -59.425781 -120 C -59.425781 -125.332031 -51.425781 -125.332031 -51.425781 -120 " transform="matrix(1,0,0,1,160,190)"/>
<path style="fill:none;stroke-width:3;stroke-linecap:round;stroke-linejoin:bevel;stroke:rgb(36.862745%,31.372549%,52.54902%);stroke-opacity:1;stroke-miterlimit:10;" d="M 76.210938 60 L 71.28125 51.464844 " transform="matrix(1,0,0,1,160,190)"/>
<path style="fill:none;stroke-width:3;stroke-linecap:round;stroke-linejoin:bevel;stroke:rgb(36.862745%,31.372549%,52.54902%);stroke-opacity:1;stroke-miterlimit:10;" d="M 73.28125 48 C 73.28125 53.332031 65.28125 53.332031 65.28125 48 C 65.28125 42.667969 73.28125 42.667969 73.28125 48 " transform="matrix(1,0,0,1,160,190)"/>
<path style="fill:none;stroke-width:3;stroke-linecap:round;stroke-linejoin:bevel;stroke:rgb(36.862745%,31.372549%,52.54902%);stroke-opacity:1;stroke-miterlimit:10;" d="M 83.136719 72 L 76.210938 84 L 52.496094 84 " transform="matrix(1,0,0,1,160,190)"/>
<path style="fill:none;stroke-width:3;stroke-linecap:round;stroke-linejoin:bevel;stroke:rgb(36.862745%,31.372549%,52.54902%);stroke-opacity:1;stroke-miterlimit:10;" d="M 52.496094 84 C 52.496094 89.332031 44.496094 89.332031 44.496094 84 C 44.496094 78.667969 52.496094 78.667969 52.496094 84 " transform="matrix(1,0,0,1,160,190)"/>
<path style="fill:none;stroke-width:3;stroke-linecap:round;stroke-linejoin:bevel;stroke:rgb(27.058824%,22.745098%,38.431373%);stroke-opacity:1;stroke-miterlimit:10;" d="M 138.5625 168 L 131.636719 156 L 126.707031 147.464844 " transform="matrix(1,0,0,1,160,190)"/>
<path style="fill:none;stroke-width:3;stroke-linecap:round;stroke-linejoin:bevel;stroke:rgb(27.058824%,22.745098%,38.431373%);stroke-opacity:1;stroke-miterlimit:10;" d="M 128.707031 144 C 128.707031 149.332031 120.707031 149.332031 120.707031 144 C 120.707031 138.667969 128.707031 138.667969 128.707031 144 " transform="matrix(1,0,0,1,160,190)"/>
<path style="fill:none;stroke-width:3;stroke-linecap:round;stroke-linejoin:bevel;stroke:rgb(27.058824%,22.745098%,38.431373%);stroke-opacity:1;stroke-miterlimit:10;" d="M 145.492188 180 L 135.636719 180 " transform="matrix(1,0,0,1,160,190)"/>
<path style="fill:none;stroke-width:3;stroke-linecap:round;stroke-linejoin:bevel;stroke:rgb(27.058824%,22.745098%,38.431373%);stroke-opacity:1;stroke-miterlimit:10;" d="M 135.636719 180 C 135.636719 185.332031 127.636719 185.332031 127.636719 180 C 127.636719 174.667969 135.636719 174.667969 135.636719 180 " transform="matrix(1,0,0,1,160,190)"/>
<path style="fill:none;stroke-width:3;stroke-linecap:round;stroke-linejoin:bevel;stroke:rgb(56.078431%,30.588235%,54.509804%);stroke-opacity:1;stroke-miterlimit:10;" d="M 90.066406 12 L 62.355469 -36 L 69.28125 -48 L 110.851562 -48 L 144.160156 9.691406 " transform="matrix(1,0,0,1,160,190)"/>
<path style="fill:none;stroke-width:3;stroke-linecap:round;stroke-linejoin:bevel;stroke:rgb(56.078431%,30.588235%,54.509804%);stroke-opacity:1;stroke-miterlimit:10;" d="M 148.160156 12 C 148.160156 15.554688 142.824219 15.554688 142.824219 12 C 142.824219 8.445312 148.160156 8.445312 148.160156 12 " transform="matrix(1,0,0,1,160,190)"/>
<path style="fill:none;stroke-width:3;stroke-linecap:round;stroke-linejoin:bevel;stroke:rgb(56.078431%,30.588235%,54.509804%);stroke-opacity:1;stroke-miterlimit:10;" d="M 83.136719 -48 L 102.589844 -14.308594 " transform="matrix(1,0,0,1,160,190)"/>
<path style="fill:none;stroke-width:3;stroke-linecap:round;stroke-linejoin:bevel;stroke:rgb(56.078431%,30.588235%,54.509804%);stroke-opacity:1;stroke-miterlimit:10;" d="M 106.589844 -12 C 106.589844 -8.445312 101.257812 -8.445312 101.257812 -12 C 101.257812 -15.554688 106.589844 -15.554688 106.589844 -12 " transform="matrix(1,0,0,1,160,190)"/>
<path style="fill:none;stroke-width:3;stroke-linecap:round;stroke-linejoin:bevel;stroke:rgb(56.078431%,30.588235%,54.509804%);stroke-opacity:1;stroke-miterlimit:10;" d="M 138.5625 -48 L 173.207031 12 L 214.773438 12 L 221.703125 0 L 195.324219 -45.691406 " transform="matrix(1,0,0,1,160,190)"/>
<path style="fill:none;stroke-width:3;stroke-linecap:round;stroke-linejoin:bevel;stroke:rgb(56.078431%,30.588235%,54.509804%);stroke-opacity:1;stroke-miterlimit:10;" d="M 196.65625 -48 C 196.65625 -44.445312 191.324219 -44.445312 191.324219 -48 C 191.324219 -51.554688 196.65625 -51.554688 196.65625 -48 " transform="matrix(1,0,0,1,160,190)"/>
<path style="fill:none;stroke-width:3;stroke-linecap:round;stroke-linejoin:bevel;stroke:rgb(56.078431%,30.588235%,54.509804%);stroke-opacity:1;stroke-miterlimit:10;" d="M 256.34375 12 L 228.628906 -36 L 235.558594 -48 L 277.128906 -48 L 310.4375 9.691406 " transform="matrix(1,0,0,1,160,190)"/>
<path style="fill:none;stroke-width:3;stroke-linecap:round;stroke-linejoin:bevel;stroke:rgb(56.078431%,30.588235%,54.509804%);stroke-opacity:1;stroke-miterlimit:10;" d="M 314.4375 12 C 314.4375 15.554688 309.101562 15.554688 309.101562 12 C 309.101562 8.445312 314.4375 8.445312 314.4375 12 " transform="matrix(1,0,0,1,160,190)"/>
<path style="fill:none;stroke-width:3;stroke-linecap:round;stroke-linejoin:bevel;stroke:rgb(56.078431%,30.588235%,54.509804%);stroke-opacity:1;stroke-miterlimit:10;" d="M 339.480469 12 L 306.175781 -45.691406 " transform="matrix(1,0,0,1,160,190)"/>
<path style="fill:none;stroke-width:3;stroke-linecap:round;stroke-linejoin:bevel;stroke:rgb(56.078431%,30.588235%,54.509804%);stroke-opacity:1;stroke-miterlimit:10;" d="M 307.507812 -48 C 307.507812 -44.445312 302.175781 -44.445312 302.175781 -48 C 302.175781 -51.554688 307.507812 -51.554688 307.507812 -48 " transform="matrix(1,0,0,1,160,190)"/>
<path style="fill:none;stroke-width:3;stroke-linecap:round;stroke-linejoin:bevel;stroke:rgb(36.862745%,31.372549%,52.54902%);stroke-opacity:1;stroke-miterlimit:10;" d="M 138.5625 96 L 105.257812 38.308594 " transform="matrix(1,0,0,1,160,190)"/>
<path style="fill:none;stroke-width:3;stroke-linecap:round;stroke-linejoin:bevel;stroke:rgb(36.862745%,31.372549%,52.54902%);stroke-opacity:1;stroke-miterlimit:10;" d="M 106.589844 36 C 106.589844 39.554688 101.257812 39.554688 101.257812 36 C 101.257812 32.445312 106.589844 32.445312 106.589844 36 " transform="matrix(1,0,0,1,160,190)"/>
<path style="fill:none;stroke-width:3;stroke-linecap:round;stroke-linejoin:bevel;stroke:rgb(36.862745%,31.372549%,52.54902%);stroke-opacity:1;stroke-miterlimit:10;" d="M 121.242188 66 L 167.074219 66 " transform="matrix(1,0,0,1,160,190)"/>
<path style="fill:none;stroke-width:3;stroke-linecap:round;stroke-linejoin:bevel;stroke:rgb(36.862745%,31.372549%,52.54902%);stroke-opacity:1;stroke-miterlimit:10;" d="M 172.40625 66 C 172.40625 69.554688 167.074219 69.554688 167.074219 66 C 167.074219 62.445312 172.40625 62.445312 172.40625 66 " transform="matrix(1,0,0,1,160,190)"/>
<path style="fill:none;stroke-width:3;stroke-linecap:round;stroke-linejoin:bevel;stroke:rgb(36.862745%,31.372549%,52.54902%);stroke-opacity:1;stroke-miterlimit:10;" d="M 193.988281 96 L 160.683594 38.308594 " transform="matrix(1,0,0,1,160,190)"/>
<path style="fill:none;stroke-width:3;stroke-linecap:round;stroke-linejoin:bevel;stroke:rgb(36.862745%,31.372549%,52.54902%);stroke-opacity:1;stroke-miterlimit:10;" d="M 162.015625 36 C 162.015625 39.554688 156.683594 39.554688 156.683594 36 C 156.683594 32.445312 162.015625 32.445312 162.015625 36 " transform="matrix(1,0,0,1,160,190)"/>
<path style="fill:none;stroke-width:3;stroke-linecap:round;stroke-linejoin:bevel;stroke:rgb(36.862745%,31.372549%,52.54902%);stroke-opacity:1;stroke-miterlimit:10;" d="M 221.703125 96 L 193.988281 48 L 200.917969 36 L 242.488281 36 L 275.792969 93.691406 " transform="matrix(1,0,0,1,160,190)"/>
<path style="fill:none;stroke-width:3;stroke-linecap:round;stroke-linejoin:bevel;stroke:rgb(36.862745%,31.372549%,52.54902%);stroke-opacity:1;stroke-miterlimit:10;" d="M 279.792969 96 C 279.792969 99.554688 274.460938 99.554688 274.460938 96 C 274.460938 92.445312 279.792969 92.445312 279.792969 96 " transform="matrix(1,0,0,1,160,190)"/>
<path style="fill:none;stroke-width:3;stroke-linecap:round;stroke-linejoin:bevel;stroke:rgb(36.862745%,31.372549%,52.54902%);stroke-opacity:1;stroke-miterlimit:10;" d="M 204.382812 66 L 250.210938 66 " transform="matrix(1,0,0,1,160,190)"/>
<path style="fill:none;stroke-width:3;stroke-linecap:round;stroke-linejoin:bevel;stroke:rgb(36.862745%,31.372549%,52.54902%);stroke-opacity:1;stroke-miterlimit:10;" d="M 255.546875 66 C 255.546875 69.554688 250.210938 69.554688 250.210938 66 C 250.210938 62.445312 255.546875 62.445312 255.546875 66 " transform="matrix(1,0,0,1,160,190)"/>
<path style="fill:none;stroke-width:3;stroke-linecap:round;stroke-linejoin:bevel;stroke:rgb(36.862745%,31.372549%,52.54902%);stroke-opacity:1;stroke-miterlimit:10;" d="M 360.265625 96 L 304.839844 96 L 277.128906 48 L 284.054688 36 L 322.957031 36 " transform="matrix(1,0,0,1,160,190)"/>
<path style="fill:none;stroke-width:3;stroke-linecap:round;stroke-linejoin:bevel;stroke:rgb(36.862745%,31.372549%,52.54902%);stroke-opacity:1;stroke-miterlimit:10;" d="M 328.292969 36 C 328.292969 39.554688 322.957031 39.554688 322.957031 36 C 322.957031 32.445312 328.292969 32.445312 328.292969 36 " transform="matrix(1,0,0,1,160,190)"/>
<path style="fill:none;stroke-width:3;stroke-linecap:round;stroke-linejoin:bevel;stroke:rgb(27.058824%,22.745098%,38.431373%);stroke-opacity:1;stroke-miterlimit:10;" d="M 242.488281 180 L 187.0625 180 L 176.667969 162 L 183.597656 150 L 211.308594 150 L 218.238281 138 L 207.847656 120 L 155.085938 120 " transform="matrix(1,0,0,1,160,190)"/>
<path style="fill:none;stroke-width:3;stroke-linecap:round;stroke-linejoin:bevel;stroke:rgb(27.058824%,22.745098%,38.431373%);stroke-opacity:1;stroke-miterlimit:10;" d="M 155.085938 120 C 155.085938 123.554688 149.753906 123.554688 149.753906 120 C 149.753906 116.445312 155.085938 116.445312 155.085938 120 " transform="matrix(1,0,0,1,160,190)"/>
<path style="fill:none;stroke-width:3;stroke-linecap:round;stroke-linejoin:bevel;stroke:rgb(27.058824%,22.745098%,38.431373%);stroke-opacity:1;stroke-miterlimit:10;" d="M 270.199219 180 L 311.769531 180 L 318.699219 168 L 290.984375 120 L 249.414062 120 L 242.488281 132 L 265.402344 171.691406 " transform="matrix(1,0,0,1,160,190)"/>
<path style="fill:none;stroke-width:3;stroke-linecap:round;stroke-linejoin:bevel;stroke:rgb(27.058824%,22.745098%,38.431373%);stroke-opacity:1;stroke-miterlimit:10;" d="M 269.402344 174 C 269.402344 177.554688 264.070312 177.554688 264.070312 174 C 264.070312 170.445312 269.402344 170.445312 269.402344 174 " transform="matrix(1,0,0,1,160,190)"/>
<path style="fill:none;stroke-width:3;stroke-linecap:round;stroke-linejoin:bevel;stroke:rgb(27.058824%,22.745098%,38.431373%);stroke-opacity:1;stroke-miterlimit:10;" d="M 408.765625 180 L 353.339844 180 L 342.945312 162 L 349.875 150 L 377.585938 150 L 384.515625 138 L 374.121094 120 L 321.363281 120 " transform="matrix(1,0,0,1,160,190)"/>
<path style="fill:none;stroke-width:3;stroke-linecap:round;stroke-linejoin:bevel;stroke:rgb(27.058824%,22.745098%,38.431373%);stroke-opacity:1;stroke-miterlimit:10;" d="M 321.363281 120 C 321.363281 123.554688 316.03125 123.554688 316.03125 120 C 316.03125 116.445312 321.363281 116.445312 321.363281 120 " transform="matrix(1,0,0,1,160,190)"/>
<path style="fill:none;stroke-width:3;stroke-linecap:round;stroke-linejoin:bevel;stroke:rgb(27.058824%,22.745098%,38.431373%);stroke-opacity:1;stroke-miterlimit:10;" d="M 491.902344 180 L 436.476562 180 L 426.085938 162 L 433.011719 150 L 460.726562 150 L 467.652344 138 L 457.261719 120 L 404.503906 120 " transform="matrix(1,0,0,1,160,190)"/>
<path style="fill:none;stroke-width:3;stroke-linecap:round;stroke-linejoin:bevel;stroke:rgb(27.058824%,22.745098%,38.431373%);stroke-opacity:1;stroke-miterlimit:10;" d="M 404.503906 120 C 404.503906 123.554688 399.167969 123.554688 399.167969 120 C 399.167969 116.445312 404.503906 116.445312 404.503906 120 " transform="matrix(1,0,0,1,160,190)"/>
</g>
</svg>
