<?xml version="1.0" encoding="UTF-8"?>
<svg xmlns="http://www.w3.org/2000/svg" xmlns:xlink="http://www.w3.org/1999/xlink" width="670pt" height="60pt" viewBox="0 0 670 60" version="1.1">
<g id="surface7">
<path style="fill:none;stroke-width:2;stroke-linecap:butt;stroke-linejoin:miter;stroke:rgb(56.078431%,30.588235%,54.509804%);stroke-opacity:1;stroke-miterlimit:10;" d="M 0 0 L -20.785156 -36 L -15.589844 -45 L 15.589844 -45 L 40.570312 -1.730469 " transform="matrix(1,0,0,1,30,50)"/>
<path style="fill:none;stroke-width:2;stroke-linecap:butt;stroke-linejoin:miter;stroke:rgb(56.078431%,30.588235%,54.509804%);stroke-opacity:1;stroke-miterlimit:10;" d="M 43.570312 0 C 43.570312 2.667969 39.570312 2.667969 39.570312 0 C 39.570312 -2.667969 43.570312 -2.667969 43.570312 0 " transform="matrix(1,0,0,1,30,50)"/>
<path style="fill:none;stroke-width:2;stroke-linecap:butt;stroke-linejoin:miter;stroke:rgb(56.078431%,30.588235%,54.509804%);stroke-opacity:1;stroke-miterlimit:10;" d="M -5.195312 -45 L 9.390625 -19.730469 " transform="matrix(1,0,0,1,30,50)"/>
<path style="fill:none;stroke-width:2;stroke-linecap:butt;stroke-linejoin:miter;stroke:rgb(56.078431%,30.588235%,54.509804%);stroke-opacity:1;stroke-miterlimit:10;" d="M 12.390625 -18 C 12.390625 -15.332031 8.390625 -15.332031 8.390625 -18 C 8.390625 -20.667969 12.390625 -20.667969 12.390625 -18 " transform="matrix(1,0,0,1,30,50)"/>
<path style="fill:none;stroke-width:2;stroke-linecap:butt;stroke-linejoin:miter;stroke:rgb(56.078431%,30.588235%,54.509804%);stroke-opacity:1;stroke-miterlimit:10;" d="M 36.375 -45 L 62.355469 0 L 93.53125 0 L 98.726562 -9 L 78.941406 -43.269531 " transform="matrix(1,0,0,1,30,50)"/>
<path style="fill:none;stroke-width:2;stroke-linecap:butt;stroke-linejoin:miter;stroke:rgb(56.078431%,30.588235%,54.509804%);stroke-opacity:1;stroke-miterlimit:10;" d="M 79.941406 -45 C 79.941406 -42.332031 75.941406 -42.332031 75.941406 -45 C 75.941406 -47.667969 79.941406 -47.667969 79.941406 -45 " transform="matrix(1,0,0,1,30,50)"/>
<path style="fill:none;stroke-width:2;stroke-linecap:butt;stroke-linejoin:miter;stroke:rgb(56.078431%,30.588235%,54.509804%);stroke-opacity:1;stroke-miterlimit:10;" d="M 124.707031 0 L 103.921875 -36 L 109.121094 -45 L 140.296875 -45 L 165.277344 -1.730469 " transform="matrix(1,0,0,1,30,50)"/>
<path style="fill:none;stroke-width:2;stroke-linecap:butt;stroke-linejoin:miter;stroke:rgb(56.078431%,30.588235%,54.509804%);stroke-opacity:1;stroke-miterlimit:10;" d="M 168.277344 0 C 168.277344 2.667969 164.277344 2.667969 164.277344 0 C 164.277344 -2.667969 168.277344 -2.667969 168.277344 0 " transform="matrix(1,0,0,1,30,50)"/>
<path style="fill:none;stroke-width:2;stroke-linecap:butt;stroke-linejoin:miter;stroke:rgb(56.078431%,30.588235%,54.509804%);stroke-opacity:1;stroke-miterlimit:10;" d="M 187.0625 0 L 162.082031 -43.269531 " transform="matrix(1,0,0,1,30,50)"/>
<path style="fill:none;stroke-width:2;stroke-linecap:butt;stroke-linejoin:miter;stroke:rgb(56.078431%,30.588235%,54.509804%);stroke-opacity:1;stroke-miterlimit:10;" d="M 163.082031 -45 C 163.082031 -42.332031 159.082031 -42.332031 159.082031 -45 C 159.082031 -47.667969 163.082031 -47.667969 163.082031 -45 " transform="matrix(1,0,0,1,30,50)"/>
<path style="fill:none;stroke-width:2;stroke-linecap:butt;stroke-linejoin:miter;stroke:rgb(36.862745%,31.372549%,52.54902%);stroke-opacity:1;stroke-miterlimit:10;" d="M 207.847656 0 L 182.867188 -43.269531 " transform="matrix(1,0,0,1,30,50)"/>
<path style="fill:none;stroke-width:2;stroke-linecap:butt;stroke-linejoin:miter;stroke:rgb(36.862745%,31.372549%,52.54902%);stroke-opacity:1;stroke-miterlimit:10;" d="M 183.867188 -45 C 183.867188 -42.332031 179.867188 -42.332031 179.867188 -45 C 179.867188 -47.667969 183.867188 -47.667969 183.867188 -45 " transform="matrix(1,0,0,1,30,50)"/>
<path style="fill:none;stroke-width:2;stroke-linecap:butt;stroke-linejoin:miter;stroke:rgb(36.862745%,31.372549%,52.54902%);stroke-opacity:1;stroke-miterlimit:10;" d="M 194.855469 -22.5 L 229.230469 -22.5 " transform="matrix(1,0,0,1,30,50)"/>
<path style="fill:none;stroke-width:2;stroke-linecap:butt;stroke-linejoin:miter;stroke:rgb(36.862745%,31.372549%,52.54902%);stroke-opacity:1;stroke-miterlimit:10;" d="M 233.230469 -22.5 C 233.230469 -19.832031 229.230469 -19.832031 229.230469 -22.5 C 229.230469 -25.167969 233.230469 -25.167969 233.230469 -22.5 " transform="matrix(1,0,0,1,30,50)"/>
<path style="fill:none;stroke-width:2;stroke-linecap:butt;stroke-linejoin:miter;stroke:rgb(36.862745%,31.372549%,52.54902%);stroke-opacity:1;stroke-miterlimit:10;" d="M 249.414062 0 L 224.433594 -43.269531 " transform="matrix(1,0,0,1,30,50)"/>
<path style="fill:none;stroke-width:2;stroke-linecap:butt;stroke-linejoin:miter;stroke:rgb(36.862745%,31.372549%,52.54902%);stroke-opacity:1;stroke-miterlimit:10;" d="M 225.433594 -45 C 225.433594 -42.332031 221.433594 -42.332031 221.433594 -45 C 221.433594 -47.667969 225.433594 -47.667969 225.433594 -45 " transform="matrix(1,0,0,1,30,50)"/>
<path style="fill:none;stroke-width:2;stroke-linecap:butt;stroke-linejoin:miter;stroke:rgb(36.862745%,31.372549%,52.54902%);stroke-opacity:1;stroke-miterlimit:10;" d="M 270.199219 0 L 249.414062 -36 L 254.613281 -45 L 285.789062 -45 L 310.769531 -1.730469 " transform="matrix(1,0,0,1,30,50)"/>
<path style="fill:none;stroke-width:2;stroke-linecap:butt;stroke-linejoin:miter;stroke:rgb(36.862745%,31.372549%,52.54902%);stroke-opacity:1;stroke-miterlimit:10;" d="M 313.769531 0 C 313.769531 2.667969 309.769531 2.667969 309.769531 0 C 309.769531 -2.667969 313.769531 -2.667969 313.769531 0 " transform="matrix(1,0,0,1,30,50)"/>
<path style="fill:none;stroke-width:2;stroke-linecap:butt;stroke-linejoin:miter;stroke:rgb(36.862745%,31.372549%,52.54902%);stroke-opacity:1;stroke-miterlimit:10;" d="M 257.210938 -22.5 L 291.582031 -22.5 " transform="matrix(1,0,0,1,30,50)"/>
<path style="fill:none;stroke-width:2;stroke-linecap:butt;stroke-linejoin:miter;stroke:rgb(36.862745%,31.372549%,52.54902%);stroke-opacity:1;stroke-miterlimit:10;" d="M 295.582031 -22.5 C 295.582031 -19.832031 291.582031 -19.832031 291.582031 -22.5 C 291.582031 -25.167969 295.582031 -25.167969 295.582031 -22.5 " transform="matrix(1,0,0,1,30,50)"/>
<path style="fill:none;stroke-width:2;stroke-linecap:butt;stroke-linejoin:miter;stroke:rgb(36.862745%,31.372549%,52.54902%);stroke-opacity:1;stroke-miterlimit:10;" d="M 374.121094 0 L 332.554688 0 L 311.769531 -36 L 316.964844 -45 L 346.140625 -45 " transform="matrix(1,0,0,1,30,50)"/>
<path style="fill:none;stroke-width:2;stroke-linecap:butt;stroke-linejoin:miter;stroke:rgb(36.862745%,31.372549%,52.54902%);stroke-opacity:1;stroke-miterlimit:10;" d="M 350.140625 -45 C 350.140625 -42.332031 346.140625 -42.332031 346.140625 -45 C 346.140625 -47.667969 350.140625 -47.667969 350.140625 -45 " transform="matrix(1,0,0,1,30,50)"/>
<path style="fill:none;stroke-width:2;stroke-linecap:butt;stroke-linejoin:miter;stroke:rgb(27.058824%,22.745098%,38.431373%);stroke-opacity:1;stroke-miterlimit:10;" d="M 446.867188 0 L 405.300781 0 L 397.503906 -13.5 L 402.703125 -22.5 L 423.488281 -22.5 L 428.683594 -31.5 L 420.886719 -45 L 381.320312 -45 " transform="matrix(1,0,0,1,30,50)"/>
<path style="fill:none;stroke-width:2;stroke-linecap:butt;stroke-linejoin:miter;stroke:rgb(27.058824%,22.745098%,38.431373%);stroke-opacity:1;stroke-miterlimit:10;" d="M 381.320312 -45 C 381.320312 -42.332031 377.320312 -42.332031 377.320312 -45 C 377.320312 -47.667969 381.320312 -47.667969 381.320312 -45 " transform="matrix(1,0,0,1,30,50)"/>
<path style="fill:none;stroke-width:2;stroke-linecap:butt;stroke-linejoin:miter;stroke:rgb(27.058824%,22.745098%,38.431373%);stroke-opacity:1;stroke-miterlimit:10;" d="M 467.652344 0 L 498.832031 0 L 504.027344 -9 L 483.242188 -45 L 452.066406 -45 L 446.867188 -36 L 464.054688 -6.230469 " transform="matrix(1,0,0,1,30,50)"/>
<path style="fill:none;stroke-width:2;stroke-linecap:butt;stroke-linejoin:miter;stroke:rgb(27.058824%,22.745098%,38.431373%);stroke-opacity:1;stroke-miterlimit:10;" d="M 467.054688 -4.5 C 467.054688 -1.832031 463.054688 -1.832031 463.054688 -4.5 C 463.054688 -7.167969 467.054688 -7.167969 467.054688 -4.5 " transform="matrix(1,0,0,1,30,50)"/>
<path style="fill:none;stroke-width:2;stroke-linecap:butt;stroke-linejoin:miter;stroke:rgb(27.058824%,22.745098%,38.431373%);stroke-opacity:1;stroke-miterlimit:10;" d="M 571.578125 0 L 530.007812 0 L 522.214844 -13.5 L 527.410156 -22.5 L 548.195312 -22.5 L 553.390625 -31.5 L 545.597656 -45 L 506.027344 -45 " transform="matrix(1,0,0,1,30,50)"/>
<path style="fill:none;stroke-width:2;stroke-linecap:butt;stroke-linejoin:miter;stroke:rgb(27.058824%,22.745098%,38.431373%);stroke-opacity:1;stroke-miterlimit:10;" d="M 506.027344 -45 C 506.027344 -42.332031 502.027344 -42.332031 502.027344 -45 C 502.027344 -47.667969 506.027344 -47.667969 506.027344 -45 " transform="matrix(1,0,0,1,30,50)"/>
<path style="fill:none;stroke-width:2;stroke-linecap:butt;stroke-linejoin:miter;stroke:rgb(27.058824%,22.745098%,38.431373%);stroke-opacity:1;stroke-miterlimit:10;" d="M 633.929688 0 L 592.363281 0 L 584.566406 -13.5 L 589.761719 -22.5 L 610.546875 -22.5 L 615.742188 -31.5 L 607.949219 -45 L 568.378906 -45 " transform="matrix(1,0,0,1,30,50)"/>
<path style="fill:none;stroke-width:2;stroke-linecap:butt;stroke-linejoin:miter;stroke:rgb(27.058824%,22.745098%,38.431373%);stroke-opacity:1;stroke-miterlimit:10;" d="M 568.378906 -45 C 568.378906 -42.332031 564.378906 -42.332031 564.378906 -45 C 564.378906 -47.667969 568.378906 -47.667969 568.378906 -45 " transform="matrix(1,0,0,1,30,50)"/>
</g>
</svg>
