<?xml version="1.0" encoding="UTF-8"?>
<svg xmlns="http://www.w3.org/2000/svg" xmlns:xlink="http://www.w3.org/1999/xlink" width="640pt" height="60pt" viewBox="0 0 640 60" version="1.1">
<g id="surface463">
<path style="fill:none;stroke-width:4;stroke-linecap:round;stroke-linejoin:bevel;stroke:rgb(56.078431%,30.588235%,54.509804%);stroke-opacity:1;stroke-miterlimit:10;" d="M 0 0 L -20.785156 -36 L -15.589844 -45 L 15.589844 -45 L 40.070312 -2.597656 " transform="matrix(1,0,0,1,30,54)"/>
<path style="fill:none;stroke-width:4;stroke-linecap:round;stroke-linejoin:bevel;stroke:rgb(56.078431%,30.588235%,54.509804%);stroke-opacity:1;stroke-miterlimit:10;" d="M 44.570312 0 C 44.570312 4 38.570312 4 38.570312 0 C 38.570312 -4 44.570312 -4 44.570312 0 " transform="matrix(1,0,0,1,30,54)"/>
<path style="fill:none;stroke-width:4;stroke-linecap:round;stroke-linejoin:bevel;stroke:rgb(56.078431%,30.588235%,54.509804%);stroke-opacity:1;stroke-miterlimit:10;" d="M -5.195312 -45 L 8.890625 -20.597656 " transform="matrix(1,0,0,1,30,54)"/>
<path style="fill:none;stroke-width:4;stroke-linecap:round;stroke-linejoin:bevel;stroke:rgb(56.078431%,30.588235%,54.509804%);stroke-opacity:1;stroke-miterlimit:10;" d="M 13.390625 -18 C 13.390625 -14 7.390625 -14 7.390625 -18 C 7.390625 -22 13.390625 -22 13.390625 -18 " transform="matrix(1,0,0,1,30,54)"/>
<path style="fill:none;stroke-width:4;stroke-linecap:round;stroke-linejoin:bevel;stroke:rgb(56.078431%,30.588235%,54.509804%);stroke-opacity:1;stroke-miterlimit:10;" d="M 36.375 -45 L 62.355469 0 L 93.53125 0 L 98.726562 -9 L 79.441406 -42.402344 " transform="matrix(1,0,0,1,30,54)"/>
<path style="fill:none;stroke-width:4;stroke-linecap:round;stroke-linejoin:bevel;stroke:rgb(56.078431%,30.588235%,54.509804%);stroke-opacity:1;stroke-miterlimit:10;" d="M 80.941406 -45 C 80.941406 -41 74.941406 -41 74.941406 -45 C 74.941406 -49 80.941406 -49 80.941406 -45 " transform="matrix(1,0,0,1,30,54)"/>
<path style="fill:none;stroke-width:4;stroke-linecap:round;stroke-linejoin:bevel;stroke:rgb(56.078431%,30.588235%,54.509804%);stroke-opacity:1;stroke-miterlimit:10;" d="M 124.707031 0 L 103.921875 -36 L 109.121094 -45 L 140.296875 -45 L 164.777344 -2.597656 " transform="matrix(1,0,0,1,30,54)"/>
<path style="fill:none;stroke-width:4;stroke-linecap:round;stroke-linejoin:bevel;stroke:rgb(56.078431%,30.588235%,54.509804%);stroke-opacity:1;stroke-miterlimit:10;" d="M 169.277344 0 C 169.277344 4 163.277344 4 163.277344 0 C 163.277344 -4 169.277344 -4 169.277344 0 " transform="matrix(1,0,0,1,30,54)"/>
<path style="fill:none;stroke-width:4;stroke-linecap:round;stroke-linejoin:bevel;stroke:rgb(56.078431%,30.588235%,54.509804%);stroke-opacity:1;stroke-miterlimit:10;" d="M 187.0625 0 L 162.582031 -42.402344 " transform="matrix(1,0,0,1,30,54)"/>
<path style="fill:none;stroke-width:4;stroke-linecap:round;stroke-linejoin:bevel;stroke:rgb(56.078431%,30.588235%,54.509804%);stroke-opacity:1;stroke-miterlimit:10;" d="M 164.082031 -45 C 164.082031 -41 158.082031 -41 158.082031 -45 C 158.082031 -49 164.082031 -49 164.082031 -45 " transform="matrix(1,0,0,1,30,54)"/>
<path style="fill:none;stroke-width:4;stroke-linecap:round;stroke-linejoin:bevel;stroke:rgb(36.862745%,31.372549%,52.54902%);stroke-opacity:1;stroke-miterlimit:10;" d="M 207.847656 0 L 183.367188 -42.402344 " transform="matrix(1,0,0,1,30,54)"/>
<path style="fill:none;stroke-width:4;stroke-linecap:round;stroke-linejoin:bevel;stroke:rgb(36.862745%,31.372549%,52.54902%);stroke-opacity:1;stroke-miterlimit:10;" d="M 184.867188 -45 C 184.867188 -41 178.867188 -41 178.867188 -45 C 178.867188 -49 184.867188 -49 184.867188 -45 " transform="matrix(1,0,0,1,30,54)"/>
<path style="fill:none;stroke-width:4;stroke-linecap:round;stroke-linejoin:bevel;stroke:rgb(36.862745%,31.372549%,52.54902%);stroke-opacity:1;stroke-miterlimit:10;" d="M 194.855469 -22.5 L 223.03125 -22.5 " transform="matrix(1,0,0,1,30,54)"/>
<path style="fill:none;stroke-width:4;stroke-linecap:round;stroke-linejoin:bevel;stroke:rgb(36.862745%,31.372549%,52.54902%);stroke-opacity:1;stroke-miterlimit:10;" d="M 229.03125 -22.5 C 229.03125 -18.5 223.03125 -18.5 223.03125 -22.5 C 223.03125 -26.5 229.03125 -26.5 229.03125 -22.5 " transform="matrix(1,0,0,1,30,54)"/>
<path style="fill:none;stroke-width:4;stroke-linecap:round;stroke-linejoin:bevel;stroke:rgb(36.862745%,31.372549%,52.54902%);stroke-opacity:1;stroke-miterlimit:10;" d="M 249.414062 0 L 224.933594 -42.402344 " transform="matrix(1,0,0,1,30,54)"/>
<path style="fill:none;stroke-width:4;stroke-linecap:round;stroke-linejoin:bevel;stroke:rgb(36.862745%,31.372549%,52.54902%);stroke-opacity:1;stroke-miterlimit:10;" d="M 226.433594 -45 C 226.433594 -41 220.433594 -41 220.433594 -45 C 220.433594 -49 226.433594 -49 226.433594 -45 " transform="matrix(1,0,0,1,30,54)"/>
<path style="fill:none;stroke-width:4;stroke-linecap:round;stroke-linejoin:bevel;stroke:rgb(36.862745%,31.372549%,52.54902%);stroke-opacity:1;stroke-miterlimit:10;" d="M 270.199219 0 L 249.414062 -36 L 254.613281 -45 L 285.789062 -45 L 310.269531 -2.597656 " transform="matrix(1,0,0,1,30,54)"/>
<path style="fill:none;stroke-width:4;stroke-linecap:round;stroke-linejoin:bevel;stroke:rgb(36.862745%,31.372549%,52.54902%);stroke-opacity:1;stroke-miterlimit:10;" d="M 314.769531 0 C 314.769531 4 308.769531 4 308.769531 0 C 308.769531 -4 314.769531 -4 314.769531 0 " transform="matrix(1,0,0,1,30,54)"/>
<path style="fill:none;stroke-width:4;stroke-linecap:round;stroke-linejoin:bevel;stroke:rgb(36.862745%,31.372549%,52.54902%);stroke-opacity:1;stroke-miterlimit:10;" d="M 257.210938 -22.5 L 285.386719 -22.5 " transform="matrix(1,0,0,1,30,54)"/>
<path style="fill:none;stroke-width:4;stroke-linecap:round;stroke-linejoin:bevel;stroke:rgb(36.862745%,31.372549%,52.54902%);stroke-opacity:1;stroke-miterlimit:10;" d="M 291.386719 -22.5 C 291.386719 -18.5 285.386719 -18.5 285.386719 -22.5 C 285.386719 -26.5 291.386719 -26.5 291.386719 -22.5 " transform="matrix(1,0,0,1,30,54)"/>
<path style="fill:none;stroke-width:4;stroke-linecap:round;stroke-linejoin:bevel;stroke:rgb(36.862745%,31.372549%,52.54902%);stroke-opacity:1;stroke-miterlimit:10;" d="M 374.121094 0 L 332.554688 0 L 311.769531 -36 L 316.964844 -45 L 345.140625 -45 " transform="matrix(1,0,0,1,30,54)"/>
<path style="fill:none;stroke-width:4;stroke-linecap:round;stroke-linejoin:bevel;stroke:rgb(36.862745%,31.372549%,52.54902%);stroke-opacity:1;stroke-miterlimit:10;" d="M 351.140625 -45 C 351.140625 -41 345.140625 -41 345.140625 -45 C 345.140625 -49 351.140625 -49 351.140625 -45 " transform="matrix(1,0,0,1,30,54)"/>
<path style="fill:none;stroke-width:4;stroke-linecap:round;stroke-linejoin:bevel;stroke:rgb(27.058824%,22.745098%,38.431373%);stroke-opacity:1;stroke-miterlimit:10;" d="M 441.671875 0 L 405.300781 0 L 397.503906 -13.5 L 402.703125 -22.5 L 418.289062 -22.5 L 423.488281 -31.5 L 415.691406 -45 L 389.710938 -45 L 388.613281 -43.097656 " transform="matrix(1,0,0,1,30,54)"/>
<path style="fill:none;stroke-width:4;stroke-linecap:round;stroke-linejoin:bevel;stroke:rgb(27.058824%,22.745098%,38.431373%);stroke-opacity:1;stroke-miterlimit:10;" d="M 390.113281 -40.5 C 390.113281 -36.5 384.113281 -36.5 384.113281 -40.5 C 384.113281 -44.5 390.113281 -44.5 390.113281 -40.5 " transform="matrix(1,0,0,1,30,54)"/>
<path style="fill:none;stroke-width:4;stroke-linecap:round;stroke-linejoin:bevel;stroke:rgb(27.058824%,22.745098%,38.431373%);stroke-opacity:1;stroke-miterlimit:10;" d="M 457.261719 0 L 483.242188 0 L 488.4375 -9 L 467.652344 -45 L 441.671875 -45 L 436.476562 -36 L 450.566406 -11.597656 " transform="matrix(1,0,0,1,30,54)"/>
<path style="fill:none;stroke-width:4;stroke-linecap:round;stroke-linejoin:bevel;stroke:rgb(27.058824%,22.745098%,38.431373%);stroke-opacity:1;stroke-miterlimit:10;" d="M 455.066406 -9 C 455.066406 -5 449.066406 -5 449.066406 -9 C 449.066406 -13 455.066406 -13 455.066406 -9 " transform="matrix(1,0,0,1,30,54)"/>
<path style="fill:none;stroke-width:4;stroke-linecap:round;stroke-linejoin:bevel;stroke:rgb(27.058824%,22.745098%,38.431373%);stroke-opacity:1;stroke-miterlimit:10;" d="M 545.597656 0 L 509.222656 0 L 501.429688 -13.5 L 506.625 -22.5 L 522.214844 -22.5 L 527.410156 -31.5 L 519.617188 -45 L 493.632812 -45 L 492.535156 -43.097656 " transform="matrix(1,0,0,1,30,54)"/>
<path style="fill:none;stroke-width:4;stroke-linecap:round;stroke-linejoin:bevel;stroke:rgb(27.058824%,22.745098%,38.431373%);stroke-opacity:1;stroke-miterlimit:10;" d="M 494.035156 -40.5 C 494.035156 -36.5 488.035156 -36.5 488.035156 -40.5 C 488.035156 -44.5 494.035156 -44.5 494.035156 -40.5 " transform="matrix(1,0,0,1,30,54)"/>
<path style="fill:none;stroke-width:4;stroke-linecap:round;stroke-linejoin:bevel;stroke:rgb(27.058824%,22.745098%,38.431373%);stroke-opacity:1;stroke-miterlimit:10;" d="M 597.558594 0 L 561.183594 0 L 553.390625 -13.5 L 558.585938 -22.5 L 574.175781 -22.5 L 579.371094 -31.5 L 571.578125 -45 L 545.597656 -45 L 544.496094 -43.097656 " transform="matrix(1,0,0,1,30,54)"/>
<path style="fill:none;stroke-width:4;stroke-linecap:round;stroke-linejoin:bevel;stroke:rgb(27.058824%,22.745098%,38.431373%);stroke-opacity:1;stroke-miterlimit:10;" d="M 545.996094 -40.5 C 545.996094 -36.5 539.996094 -36.5 539.996094 -40.5 C 539.996094 -44.5 545.996094 -44.5 545.996094 -40.5 " transform="matrix(1,0,0,1,30,54)"/>
</g>
</svg>
