<?xml version="1.0" encoding="UTF-8" standalone="no"?>
<!-- Created with Inkscape (http://www.inkscape.org/) -->

<svg
   xmlns:dc="http://purl.org/dc/elements/1.1/"
   xmlns:cc="http://creativecommons.org/ns#"
   xmlns:rdf="http://www.w3.org/1999/02/22-rdf-syntax-ns#"
   xmlns:svg="http://www.w3.org/2000/svg"
   xmlns="http://www.w3.org/2000/svg"
   xmlns:sodipodi="http://sodipodi.sourceforge.net/DTD/sodipodi-0.dtd"
   xmlns:inkscape="http://www.inkscape.org/namespaces/inkscape"
   width="81.238655mm"
   height="21.064884mm"
   viewBox="0 0 81.238655 21.064884"
   version="1.1"
   id="svg5276"
   inkscape:export-filename="/home/david/temp/logo-2019.png"
   inkscape:export-xdpi="960.04022"
   inkscape:export-ydpi="960.04022"
   inkscape:version="0.92.3 (2405546, 2018-03-11)"
   sodipodi:docname="logo-2019-path-text.svg">
  <defs
     id="defs5270" />
  <sodipodi:namedview
     id="base"
     pagecolor="#ffffff"
     bordercolor="#666666"
     borderopacity="1.0"
     inkscape:pageopacity="0.0"
     inkscape:pageshadow="2"
     inkscape:zoom="3.959798"
     inkscape:cx="86.090459"
     inkscape:cy="38.175837"
     inkscape:document-units="mm"
     inkscape:current-layer="layer1"
     showgrid="false"
     fit-margin-top="2"
     fit-margin-left="2"
     fit-margin-right="2"
     fit-margin-bottom="2"
     inkscape:window-width="1920"
     inkscape:window-height="1004"
     inkscape:window-x="0"
     inkscape:window-y="25"
     inkscape:window-maximized="1"
     showguides="true"
     inkscape:guide-bbox="true" />
  <metadata
     id="metadata5273">
    <rdf:RDF>
      <cc:Work
         rdf:about="">
        <dc:format>image/svg+xml</dc:format>
        <dc:type
           rdf:resource="http://purl.org/dc/dcmitype/StillImage" />
        <dc:title />
      </cc:Work>
    </rdf:RDF>
  </metadata>
  <g
     inkscape:label="Layer 1"
     inkscape:groupmode="layer"
     id="layer1"
     transform="translate(158.26131,-109.70291)">
    <g
       aria-label="[6..8] Sep 2019"
       transform="matrix(0.26458333,0,0,0.26458333,-172.34712,109.12696)"
       style="font-style:normal;font-weight:normal;font-size:18.66666603px;line-height:125%;font-family:Sans;letter-spacing:0px;word-spacing:0px;fill:#8f4e8b;fill-opacity:1;stroke:none;stroke-width:1px;stroke-linecap:butt;stroke-linejoin:miter;stroke-opacity:1"
       id="flowRoot826">
      <path
         d="m 238.06576,56.204427 h -1.91407 v 16.151041 h 1.91407 v 0.929688 h -3.00782 V 55.27474 h 3.00782 z"
         style="font-style:normal;font-variant:normal;font-weight:300;font-stretch:normal;font-size:18.66666603px;line-height:125%;font-family:Roboto;-inkscape-font-specification:'Roboto Light';letter-spacing:0px;word-spacing:0px;fill:#8f4e8b;fill-opacity:1"
         id="path846" />
      <path
         d="m 245.74023,57.070312 v 0.957032 h -0.1276 q -2.37891,0 -3.74609,1.403645 -1.36719,1.394532 -1.51302,3.882813 0.54687,-0.756511 1.39453,-1.166667 0.84765,-0.419271 1.89583,-0.419271 1.75,0 2.77995,1.21224 1.03906,1.203125 1.03906,3.153646 0,1.29427 -0.48307,2.333333 -0.48308,1.039062 -1.38542,1.622396 -0.90234,0.574218 -2.05989,0.574218 -1.90495,0 -3.09896,-1.376302 -1.19401,-1.385416 -1.19401,-3.572916 v -1.09375 q 0,-3.563802 1.62239,-5.514323 1.6224,-1.959635 4.60287,-1.996094 z m -2.26953,5.596354 q -1.03906,0 -1.9414,0.619792 -0.89323,0.610677 -1.19401,1.558594 v 0.929687 q 0,1.731771 0.88411,2.825521 0.89323,1.09375 2.31511,1.09375 1.27604,0 2.05989,-1.011719 0.79297,-1.011719 0.79297,-2.552083 0,-1.567708 -0.79297,-2.515625 -0.78385,-0.947917 -2.1237,-0.947917 z"
         style="font-style:normal;font-variant:normal;font-weight:300;font-stretch:normal;font-size:18.66666603px;line-height:125%;font-family:Roboto;-inkscape-font-specification:'Roboto Light';letter-spacing:0px;word-spacing:0px;fill:#8f4e8b;fill-opacity:1"
         id="path848" />
      <path
         d="m 249.73242,69.785156 q 0,-0.319011 0.20052,-0.537761 0.20964,-0.227864 0.57422,-0.227864 0.36458,0 0.57422,0.227864 0.20963,0.21875 0.20963,0.537761 0,0.31901 -0.20963,0.528646 -0.20964,0.20052 -0.57422,0.20052 -0.36458,0 -0.57422,-0.20052 -0.20052,-0.209636 -0.20052,-0.528646 z"
         style="font-style:normal;font-variant:normal;font-weight:300;font-stretch:normal;font-size:18.66666603px;line-height:125%;font-family:Roboto;-inkscape-font-specification:'Roboto Light';letter-spacing:0px;word-spacing:0px;fill:#8f4e8b;fill-opacity:1"
         id="path850" />
      <path
         d="m 254.18034,69.785156 q 0,-0.319011 0.20052,-0.537761 0.20963,-0.227864 0.57422,-0.227864 0.36458,0 0.57422,0.227864 0.20963,0.21875 0.20963,0.537761 0,0.31901 -0.20963,0.528646 -0.20964,0.20052 -0.57422,0.20052 -0.36459,0 -0.57422,-0.20052 -0.20052,-0.209636 -0.20052,-0.528646 z"
         style="font-style:normal;font-variant:normal;font-weight:300;font-stretch:normal;font-size:18.66666603px;line-height:125%;font-family:Roboto;-inkscape-font-specification:'Roboto Light';letter-spacing:0px;word-spacing:0px;fill:#8f4e8b;fill-opacity:1"
         id="path852" />
      <path
         d="m 266.37565,60.588541 q 0,1.029948 -0.60156,1.850261 -0.60156,0.811198 -1.58594,1.19401 1.14844,0.391927 1.84115,1.266927 0.6927,0.875 0.6927,2.023438 0,1.704427 -1.15755,2.707031 -1.15755,0.993489 -3.0625,0.993489 -1.92317,0 -3.08073,-0.993489 -1.14843,-0.99349 -1.14843,-2.707031 0,-1.130209 0.66536,-2.014323 0.66537,-0.884115 1.82292,-1.276042 -0.98438,-0.382812 -1.56771,-1.19401 -0.58333,-0.820313 -0.58333,-1.850261 0,-1.649739 1.05729,-2.624999 1.0664,-0.975261 2.8164,-0.975261 1.75,0 2.81641,0.984375 1.07552,0.984375 1.07552,2.615885 z m -0.7474,6.34375 q 0,-1.239583 -0.88411,-2.032552 -0.88411,-0.802083 -2.26042,-0.802083 -1.3763,0 -2.2513,0.783854 -0.875,0.783854 -0.875,2.050781 0,1.266927 0.84766,2.023438 0.84765,0.747395 2.29687,0.747395 1.41276,0 2.26953,-0.747395 0.85677,-0.747396 0.85677,-2.023438 z m -0.34635,-6.352864 q 0,-1.139323 -0.79297,-1.895833 -0.78385,-0.765625 -2.00521,-0.765625 -1.23958,0 -2.01432,0.738281 -0.76562,0.729166 -0.76562,1.923177 0,1.166666 0.76562,1.877604 0.77474,0.710937 2.02344,0.710937 1.23047,0 2.00521,-0.710937 0.78385,-0.720052 0.78385,-1.877604 z"
         style="font-style:normal;font-variant:normal;font-weight:300;font-stretch:normal;font-size:18.66666603px;line-height:125%;font-family:Roboto;-inkscape-font-specification:'Roboto Light';letter-spacing:0px;word-spacing:0px;fill:#8f4e8b;fill-opacity:1"
         id="path854" />
      <path
         d="m 267.6608,55.27474 h 3.01693 v 18.010416 h -3.01693 v -0.929688 h 1.92318 V 56.204427 h -1.92318 z"
         style="font-style:normal;font-variant:normal;font-weight:300;font-stretch:normal;font-size:18.66666603px;line-height:125%;font-family:Roboto;-inkscape-font-specification:'Roboto Light';letter-spacing:0px;word-spacing:0px;fill:#8f4e8b;fill-opacity:1"
         id="path856" />
      <path
         d="m 285.88997,67.178385 q 0,-1.102865 -0.77474,-1.740885 -0.77474,-0.647136 -2.83463,-1.221355 -2.0599,-0.583333 -3.00781,-1.266927 -1.34896,-0.966145 -1.34896,-2.533854 0,-1.522135 1.24869,-2.470052 1.25782,-0.957031 3.20834,-0.957031 1.32161,0 2.36067,0.510417 1.04818,0.510416 1.6224,1.421875 0.57422,0.911458 0.57422,2.032552 h -1.13021 q 0,-1.358073 -0.92969,-2.178386 -0.92968,-0.829427 -2.49739,-0.829427 -1.52214,0 -2.42448,0.683594 -0.90234,0.674479 -0.90234,1.768229 0,1.011719 0.81119,1.64974 0.8112,0.638021 2.59766,1.130208 1.78646,0.483073 2.70703,1.011719 0.92057,0.519531 1.38542,1.248698 0.46484,0.729166 0.46484,1.722656 0,1.567708 -1.25781,2.515625 -1.2487,0.947916 -3.29948,0.947916 -1.40365,0 -2.57943,-0.501302 -1.16666,-0.501302 -1.77734,-1.403646 -0.60156,-0.902343 -0.60156,-2.06901 h 1.12109 q 0,1.403646 1.04818,2.214844 1.04817,0.811198 2.78906,0.811198 1.54948,0 2.48828,-0.683594 0.9388,-0.683594 0.9388,-1.813802 z"
         style="font-style:normal;font-variant:normal;font-weight:300;font-stretch:normal;font-size:18.66666603px;line-height:125%;font-family:Roboto;-inkscape-font-specification:'Roboto Light';letter-spacing:0px;word-spacing:0px;fill:#8f4e8b;fill-opacity:1"
         id="path858" />
      <path
         d="m 292.99023,70.623697 q -1.25781,0 -2.27864,-0.619791 -1.01172,-0.619792 -1.57683,-1.722656 -0.5651,-1.11198 -0.5651,-2.488282 v -0.391927 q 0,-1.421875 0.54688,-2.561198 0.55598,-1.139322 1.54036,-1.786458 0.98437,-0.65625 2.13281,-0.65625 1.79557,0 2.84375,1.230469 1.05729,1.221354 1.05729,3.345052 v 0.610677 h -7.03645 v 0.209635 q 0,1.677084 0.95703,2.798177 0.96614,1.111979 2.42448,1.111979 0.875,0 1.54036,-0.31901 0.67448,-0.31901 1.22135,-1.020833 l 0.6836,0.519531 q -1.20313,1.740885 -3.49089,1.740885 z m -0.20052,-9.296874 q -1.23047,0 -2.07812,0.902343 -0.83854,0.902344 -1.02084,2.424479 h 5.91537 v -0.118489 q -0.0456,-1.421875 -0.8112,-2.315104 -0.76562,-0.893229 -2.00521,-0.893229 z"
         style="font-style:normal;font-variant:normal;font-weight:300;font-stretch:normal;font-size:18.66666603px;line-height:125%;font-family:Roboto;-inkscape-font-specification:'Roboto Light';letter-spacing:0px;word-spacing:0px;fill:#8f4e8b;fill-opacity:1"
         id="path860" />
      <path
         d="m 306.76237,65.610677 q 0,2.305989 -1.02084,3.664062 -1.02083,1.348958 -2.73437,1.348958 -2.02344,0 -3.09896,-1.421875 v 5.03125 h -1.08463 V 60.579427 h 1.01171 l 0.0547,1.394531 q 1.06641,-1.576823 3.08984,-1.576823 1.76823,0 2.77084,1.339844 1.01172,1.339844 1.01172,3.71875 z m -1.09375,-0.191407 q 0,-1.886718 -0.77474,-2.980468 -0.77474,-1.09375 -2.16016,-1.09375 -1.0026,0 -1.72265,0.483073 -0.72006,0.483073 -1.10287,1.403646 v 4.730468 q 0.39193,0.847656 1.12109,1.294271 0.72917,0.446614 1.72266,0.446614 1.3763,0 2.14193,-1.09375 0.77474,-1.102864 0.77474,-3.190104 z"
         style="font-style:normal;font-variant:normal;font-weight:300;font-stretch:normal;font-size:18.66666603px;line-height:125%;font-family:Roboto;-inkscape-font-specification:'Roboto Light';letter-spacing:0px;word-spacing:0px;fill:#8f4e8b;fill-opacity:1"
         id="path862" />
      <path
         d="m 321.88346,70.441406 h -8.3125 v -0.838542 l 4.54818,-5.158854 q 1.13021,-1.303385 1.56771,-2.151042 0.4375,-0.847656 0.4375,-1.649739 0,-1.257813 -0.73828,-1.986979 -0.73828,-0.738281 -2.03255,-0.738281 -1.33985,0 -2.16928,0.85677 -0.82031,0.856771 -0.82031,2.223959 h -1.08463 q 0,-1.121094 0.5013,-2.041667 0.51042,-0.920573 1.4401,-1.440104 0.93881,-0.528646 2.13282,-0.528646 1.82291,0 2.84375,0.957031 1.02994,0.957032 1.02994,2.606771 0,0.929688 -0.58333,2.032552 -0.57422,1.102865 -2.03255,2.752604 l -3.70052,4.183594 h 6.97265 z"
         style="font-style:normal;font-variant:normal;font-weight:300;font-stretch:normal;font-size:18.66666603px;line-height:125%;font-family:Roboto;-inkscape-font-specification:'Roboto Light';letter-spacing:0px;word-spacing:0px;fill:#8f4e8b;fill-opacity:1"
         id="path864" />
      <path
         d="m 331.92773,64.908854 q 0,2.807291 -1.02995,4.265625 -1.02994,1.449218 -3.03515,1.449218 -1.96875,0 -3.01693,-1.421875 -1.04818,-1.430989 -1.07552,-4.156249 v -2.378907 q 0,-2.798177 1.03906,-4.238281 1.03906,-1.440104 3.03516,-1.440104 1.96875,0 3.00781,1.394531 1.03906,1.385417 1.07552,4.092448 z m -1.09375,-2.378906 q 0,-2.278646 -0.74739,-3.445313 -0.73829,-1.166666 -2.24219,-1.166666 -1.47656,0 -2.22396,1.139322 -0.7474,1.139323 -0.76562,3.363282 v 2.60677 q 0,2.269532 0.76562,3.472657 0.77474,1.203124 2.24219,1.203124 1.45833,0 2.20573,-1.175781 0.75651,-1.175781 0.76562,-3.445312 z"
         style="font-style:normal;font-variant:normal;font-weight:300;font-stretch:normal;font-size:18.66666603px;line-height:125%;font-family:Roboto;-inkscape-font-specification:'Roboto Light';letter-spacing:0px;word-spacing:0px;fill:#8f4e8b;fill-opacity:1"
         id="path866" />
      <path
         d="m 339.35611,70.441406 h -1.09375 V 58.483073 l -3.60937,1.339843 V 58.802083 L 339.17382,57.125 h 0.18229 z"
         style="font-style:normal;font-variant:normal;font-weight:300;font-stretch:normal;font-size:18.66666603px;line-height:125%;font-family:Roboto;-inkscape-font-specification:'Roboto Light';letter-spacing:0px;word-spacing:0px;fill:#8f4e8b;fill-opacity:1"
         id="path868" />
      <path
         d="m 351.44205,64.298177 q -0.58333,0.856771 -1.44922,1.330729 -0.86588,0.464844 -1.8776,0.464844 -1.13021,0 -1.9961,-0.583334 -0.86588,-0.583333 -1.33984,-1.613281 -0.47396,-1.029948 -0.47396,-2.251302 0,-1.3125 0.5013,-2.388021 0.51042,-1.07552 1.41276,-1.667968 0.91146,-0.601563 2.09636,-0.601563 1.99609,0 3.10807,1.403646 1.11198,1.394531 1.11198,3.964844 v 0.984375 q 0,3.591145 -1.53125,5.395833 -1.53125,1.804687 -4.67578,1.804687 h -0.20052 l 0.009,-0.947917 h 0.38281 q 2.37891,-0.03646 3.61849,-1.348958 1.23959,-1.3125 1.30339,-3.946614 z m -3.1901,0.856771 q 1.09375,0 1.95963,-0.647136 0.875,-0.65625 1.23958,-1.695312 v -0.628907 q 0,-2.023437 -0.84765,-3.135416 -0.83854,-1.121094 -2.26953,-1.121094 -1.29427,0 -2.1237,1.048177 -0.82943,1.039063 -0.82943,2.625 0,1.522136 0.79297,2.542969 0.80208,1.011719 2.07813,1.011719 z"
         style="font-style:normal;font-variant:normal;font-weight:300;font-stretch:normal;font-size:18.66666603px;line-height:125%;font-family:Roboto;-inkscape-font-specification:'Roboto Light';letter-spacing:0px;word-spacing:0px;fill:#8f4e8b;fill-opacity:1"
         id="path870" />
    </g>
    <g
       aria-label="MuniHac.de"
       style="font-style:normal;font-weight:normal;font-size:10.58333302px;line-height:125%;font-family:Sans;letter-spacing:0px;word-spacing:0px;fill:#5e5086;fill-opacity:1;stroke:none;stroke-width:0.26458332px;stroke-linecap:butt;stroke-linejoin:miter;stroke-opacity:1"
       id="text836">
      <path
         d="m -138.59629,111.99385 3.70004,8.8539 3.71381,-8.8539 h 1.12999 v 10.03212 h -0.84749 v -4.36838 l 0.0689,-4.47863 -3.73448,8.84701 h -0.65457 l -3.72071,-8.81255 0.0689,4.41661 v 4.39594 h -0.8475 v -10.03212 z"
         style="font-style:normal;font-variant:normal;font-weight:300;font-stretch:normal;font-size:14.11111164px;font-family:Roboto;-inkscape-font-specification:'Roboto Light';fill:#5e5086;fill-opacity:1;stroke-width:0.26458332px"
         id="path825" />
      <path
         d="m -122.90732,121.08201 q -0.74414,1.08176 -2.37712,1.08176 -1.192,0 -1.81212,-0.68901 -0.62011,-0.69591 -0.63389,-2.05328 v -4.8507 h 0.81993 v 4.74735 q 0,2.12906 1.72255,2.12906 1.79145,0 2.26687,-1.48139 v -5.39502 h 0.82682 v 7.45519 h -0.79926 z"
         style="font-style:normal;font-variant:normal;font-weight:300;font-stretch:normal;font-size:14.11111164px;font-family:Roboto;-inkscape-font-specification:'Roboto Light';fill:#5e5086;fill-opacity:1;stroke-width:0.26458332px"
         id="path827" />
      <path
         d="m -119.17284,114.57078 0.0276,1.27469 q 0.42031,-0.68902 1.04731,-1.04731 0.62701,-0.36518 1.38493,-0.36518 1.1989,0 1.78456,0.67524 0.58567,0.67524 0.59256,2.02571 v 4.89204 h -0.81993 v -4.89893 q -0.007,-0.99907 -0.4272,-1.48828 -0.41341,-0.4892 -1.3298,-0.4892 -0.76481,0 -1.35737,0.48231 -0.58567,0.47543 -0.86817,1.28847 v 5.10563 h -0.81993 v -7.45519 z"
         style="font-style:normal;font-variant:normal;font-weight:300;font-stretch:normal;font-size:14.11111164px;font-family:Roboto;-inkscape-font-specification:'Roboto Light';fill:#5e5086;fill-opacity:1;stroke-width:0.26458332px"
         id="path829" />
      <path
         d="m -111.29046,122.02597 h -0.82682 v -7.45519 h 0.82682 z m -0.97151,-9.61182 q 0,-0.23426 0.15158,-0.39274 0.15158,-0.16536 0.41341,-0.16536 0.26183,0 0.41341,0.16536 0.15848,0.15848 0.15848,0.39274 0,0.23427 -0.15848,0.39274 -0.15158,0.15848 -0.41341,0.15848 -0.26183,0 -0.41341,-0.15848 -0.15158,-0.15847 -0.15158,-0.39274 z"
         style="font-style:normal;font-variant:normal;font-weight:300;font-stretch:normal;font-size:14.11111164px;font-family:Roboto;-inkscape-font-specification:'Roboto Light';fill:#5e5086;fill-opacity:1;stroke-width:0.26458332px"
         id="path831" />
      <path
         d="m -101.41681,122.02597 h -0.85439 v -4.80935 h -5.73264 v 4.80935 h -0.84749 v -10.03212 h 0.84749 v 4.50619 h 5.73264 v -4.50619 h 0.85439 z"
         style="font-style:normal;font-variant:normal;font-weight:300;font-stretch:normal;font-size:14.11111164px;font-family:Roboto;-inkscape-font-specification:'Roboto Light';fill:#5e5086;fill-opacity:1;stroke-width:0.26458332px"
         id="path833" />
      <path
         d="m -94.361258,122.02597 q -0.124023,-0.3514 -0.158474,-1.04042 -0.434082,0.565 -1.109321,0.87506 -0.668348,0.30316 -1.419379,0.30316 -1.07487,0 -1.743219,-0.59944 -0.661458,-0.59945 -0.661458,-1.51584 0,-1.08865 0.902615,-1.72255 0.909505,-0.6339 2.5287,-0.6339 h 1.495172 v -0.84749 q 0,-0.79927 -0.496094,-1.25402 -0.489203,-0.46164 -1.43316,-0.46164 -0.861274,0 -1.426269,0.44097 -0.564996,0.44097 -0.564996,1.06109 l -0.826823,-0.007 q 0,-0.88883 0.826823,-1.53651 0.826823,-0.65457 2.032606,-0.65457 1.247125,0 1.963705,0.62701 0.72347,0.62011 0.744141,1.73633 v 3.52777 q 0,1.08176 0.227376,1.6192 v 0.0827 z m -2.590711,-0.59256 q 0.826822,0 1.4745,-0.39963 0.654569,-0.39963 0.950847,-1.06798 v -1.63986 h -1.474501 q -1.233344,0.0138 -1.929254,0.45475 -0.695909,0.43408 -0.695909,1.19889 0,0.62701 0.461643,1.04042 0.468533,0.41341 1.212674,0.41341 z"
         style="font-style:normal;font-variant:normal;font-weight:300;font-stretch:normal;font-size:14.11111164px;font-family:Roboto;-inkscape-font-specification:'Roboto Light';fill:#5e5086;fill-opacity:1;stroke-width:0.26458332px"
         id="path835" />
      <path
         d="m -88.759531,121.46786 q 0.861274,0 1.44005,-0.48231 0.585667,-0.4892 0.633898,-1.2609 h 0.792372 q -0.03445,0.68213 -0.427192,1.24712 -0.392741,0.55811 -1.047309,0.87506 -0.647678,0.31694 -1.391819,0.31694 -1.46761,0 -2.328884,-1.01974 -0.854384,-1.01975 -0.854384,-2.7423 v -0.24805 q 0,-1.10243 0.385851,-1.94992 0.38585,-0.84749 1.10243,-1.30914 0.72347,-0.46164 1.688097,-0.46164 1.226454,0 2.018826,0.73036 0.799262,0.73036 0.854384,1.92236 h -0.792372 q -0.05512,-0.87505 -0.633898,-1.41249 -0.571886,-0.53743 -1.44694,-0.53743 -1.116211,0 -1.736328,0.80615 -0.613227,0.80615 -0.613227,2.25998 v 0.24116 q 0,1.42627 0.613227,2.22553 0.620117,0.79926 1.743218,0.79926 z"
         style="font-style:normal;font-variant:normal;font-weight:300;font-stretch:normal;font-size:14.11111164px;font-family:Roboto;-inkscape-font-specification:'Roboto Light';fill:#5e5086;fill-opacity:1;stroke-width:0.26458332px"
         id="path837" />
      <path
         d="m -84.964761,121.85234 q 0,-0.0844 0.05306,-0.14228 0.05547,-0.0603 0.151929,-0.0603 0.09646,0 0.151928,0.0603 0.05547,0.0579 0.05547,0.14228 0,0.0844 -0.05547,0.13987 -0.05547,0.053 -0.151928,0.053 -0.09646,0 -0.151929,-0.053 -0.05306,-0.0555 -0.05306,-0.13987 z"
         style="font-style:normal;font-variant:normal;font-weight:300;font-stretch:normal;font-size:4.93888903px;font-family:Roboto;-inkscape-font-specification:'Roboto Light';fill:#453a62;fill-opacity:1;stroke-width:0.26458332px"
         id="path839" />
      <path
         d="m -83.877143,120.6972 q 0,-0.60772 0.270095,-0.96704 0.272507,-0.36174 0.73794,-0.36174 0.528133,0 0.805463,0.4172 v -1.46382 h 0.286977 v 3.70417 h -0.270096 l -0.01206,-0.34727 q -0.27733,0.3955 -0.815109,0.3955 -0.450963,0 -0.728293,-0.36173 -0.274919,-0.36415 -0.274919,-0.98151 z m 0.2918,0.0506 q 0,0.49919 0.20016,0.78858 0.20016,0.28698 0.564306,0.28698 0.532957,0 0.757232,-0.47026 v -1.22507 q -0.224275,-0.50884 -0.752409,-0.50884 -0.364146,0 -0.566718,0.28697 -0.202571,0.28457 -0.202571,0.84164 z"
         style="font-style:normal;font-variant:normal;font-weight:300;font-stretch:normal;font-size:4.93888903px;font-family:Roboto;-inkscape-font-specification:'Roboto Light';fill:#453a62;fill-opacity:1;stroke-width:0.26458332px"
         id="path841" />
      <path
         d="m -80.001754,122.0742 q -0.332796,0 -0.602892,-0.16398 -0.267684,-0.16399 -0.417201,-0.45579 -0.149517,-0.29421 -0.149517,-0.65836 v -0.1037 q 0,-0.3762 0.144694,-0.67765 0.147106,-0.30144 0.407555,-0.47266 0.260449,-0.17364 0.564307,-0.17364 0.475078,0 0.752409,0.32557 0.279741,0.32315 0.279741,0.88504 v 0.16158 h -1.861729 v 0.0555 q 0,0.44373 0.253214,0.74035 0.255626,0.29421 0.641477,0.29421 0.23151,0 0.407555,-0.0844 0.178456,-0.0844 0.32315,-0.2701 l 0.180867,0.13746 q -0.318327,0.46061 -0.92363,0.46061 z m -0.05305,-2.4598 q -0.325562,0 -0.549838,0.23875 -0.221864,0.23874 -0.270095,0.64148 h 1.565107 v -0.0314 q -0.01206,-0.37621 -0.21463,-0.61254 -0.202571,-0.23634 -0.530544,-0.23634 z"
         style="font-style:normal;font-variant:normal;font-weight:300;font-stretch:normal;font-size:4.93888903px;font-family:Roboto;-inkscape-font-specification:'Roboto Light';fill:#453a62;fill-opacity:1;stroke-width:0.26458332px"
         id="path843" />
    </g>
    <path
       style="fill:#453a62;fill-opacity:0.39215686;fill-rule:evenodd;stroke:#453a62;stroke-width:0.26458332px;stroke-linecap:butt;stroke-linejoin:miter;stroke-opacity:1"
       d="m -156.07245,111.8352 5.82264,16.01472 h 3.1773 l -5.82264,-16.01472 z"
       id="path884"
       inkscape:connector-curvature="0"
       sodipodi:nodetypes="ccccc" />
    <path
       style="fill:#5e5086;fill-opacity:0.39215686;fill-rule:evenodd;stroke:#5e5086;stroke-width:0.26458332;stroke-linecap:butt;stroke-linejoin:miter;stroke-miterlimit:5.30000019;stroke-dasharray:none;stroke-opacity:1"
       d="m -150.25161,111.8352 5.82264,16.01472 h 3.17729 l -5.82264,-16.01472 z"
       id="path884-3"
       inkscape:connector-curvature="0"
       sodipodi:nodetypes="ccccc" />
    <path
       style="fill:#8f4e8b;fill-opacity:0.39215686;stroke:#8f4e8b;stroke-width:0.26458332;stroke-linecap:round;stroke-miterlimit:5.30000019;stroke-dasharray:none;stroke-opacity:1"
       d="m -139.58758,124.76688 h 26.65429 v 3.01556 h -25.59595 z"
       id="rect4626"
       inkscape:connector-curvature="0"
       sodipodi:nodetypes="ccccc" />
  </g>
</svg>
