<?xml version="1.0" encoding="UTF-8" standalone="no"?>
<!-- Created with Inkscape (http://www.inkscape.org/) -->

<svg
   width="1500"
   height="500"
   viewBox="0 0 396.87499 132.29167"
   version="1.1"
   id="svg22705"
   inkscape:version="1.1.2 (0a00cf5339, 2022-02-04)"
   sodipodi:docname="munihac-2024-twitter-banner.svg"
   inkscape:export-filename="/home/thomaf/projects/munihac.github.io/img/2024/munihac-2024-twitter-banner.png"
   inkscape:export-xdpi="96"
   inkscape:export-ydpi="96"
   xmlns:inkscape="http://www.inkscape.org/namespaces/inkscape"
   xmlns:sodipodi="http://sodipodi.sourceforge.net/DTD/sodipodi-0.dtd"
   xmlns="http://www.w3.org/2000/svg"
   xmlns:svg="http://www.w3.org/2000/svg">
  <sodipodi:namedview
     id="namedview22707"
     pagecolor="#ffffff"
     bordercolor="#666666"
     borderopacity="1.0"
     inkscape:pageshadow="2"
     inkscape:pageopacity="0.0"
     inkscape:pagecheckerboard="0"
     inkscape:document-units="px"
     showgrid="false"
     units="px"
     inkscape:zoom="0.61728329"
     inkscape:cx="657.72071"
     inkscape:cy="368.5504"
     inkscape:window-width="1914"
     inkscape:window-height="1138"
     inkscape:window-x="0"
     inkscape:window-y="26"
     inkscape:window-maximized="1"
     inkscape:current-layer="layer1" />
  <defs
     id="defs22702" />
  <g
     inkscape:label="Layer 1"
     inkscape:groupmode="layer"
     id="layer1">
    <g
       id="surface401"
       transform="matrix(1.8714141,0,0,1.8714141,13.229167,39.6875)">
      <rect
         x="0"
         y="0"
         width="30"
         height="21"
         style="fill:#ffffff;fill-opacity:1;stroke:none"
         id="rect1190" />
      <path
         style="fill:none;stroke:#453861;stroke-width:1;stroke-linecap:butt;stroke-linejoin:miter;stroke-miterlimit:10;stroke-opacity:1"
         d="M 7.078125,2.003906 7.964844,3.332031 8.503906,4.15625 8.691406,4.472656 8.785156,4.714844 8.78125,4.871094 8.636719,5.027344 8.351562,5.179688 7.550781,5.535156 6.226562,6.09375 5.273438,6.210938 4.699219,5.890625 3.730469,4.710938 2.367188,2.667969 1.734375,1.425781 l 0.09375,-0.4375 0.949219,-0.21875 h 1.804687 l 1.191407,0.140625 0.574218,0.285156 z m 0,0"
         id="path1192" />
      <path
         style="fill:none;stroke:#5c4f85;stroke-width:1;stroke-linecap:butt;stroke-linejoin:miter;stroke-miterlimit:10;stroke-opacity:1"
         d="M 8.851562,1.285156 8.839844,1.84375 8.792969,2.121094 H 8.710938 L 8.484375,1.84375 8.113281,1.285156 7.929688,0.949219 7.933594,0.828125 8.125,0.769531 h 0.378906 l 0.234375,0.058594 0.078125,0.121094 z m 0,0"
         id="path1194" />
      <path
         style="fill:none;stroke:#453861;stroke-width:1;stroke-linecap:butt;stroke-linejoin:miter;stroke-miterlimit:10;stroke-opacity:1"
         d="m 6.371094,14.84375 1.707031,0.144531 0.90625,0.277344 0.113281,0.417969 L 8.554688,16.78125 7.363281,18.570312 6.445312,19.65625 5.804688,20.039062 4.582031,20.230469 H 2.777344 L 1.820312,20.023438 1.710938,19.609375 2.300781,18.4375 3.585938,16.503906 4.550781,15.34375 5.195312,14.960938 Z m 0,0"
         id="path1196" />
      <path
         style="fill:none;stroke:#5c4f85;stroke-width:1;stroke-linecap:butt;stroke-linejoin:miter;stroke-miterlimit:10;stroke-opacity:1"
         d="m 11.308594,17.09375 0.476562,1.628906 0.121094,0.984375 -0.234375,0.347657 -0.894531,0.175781 H 9.21875 L 8.386719,20.054688 8.285156,19.707031 8.777344,18.722656 9.859375,17.09375 l 0.707031,-0.8125 h 0.335938 z m 0,0"
         id="path1198" />
      <path
         style="fill:none;stroke:#453861;stroke-width:1;stroke-linecap:butt;stroke-linejoin:miter;stroke-miterlimit:10;stroke-opacity:1"
         d="M 7.027344,9.660156 6.425781,8.753906 6.1875,8.148438 6.316406,7.847656 6.980469,7.445312 8.183594,6.9375 9.023438,6.765625 l 0.472656,0.164063 0.746094,0.714843 1.015624,1.265625 0.574219,0.875 0.136719,0.488282 -0.125,0.742187 -0.378906,1.003906 -0.25,0.632813 -0.117188,0.269531 -0.140625,0.257813 -0.167969,0.25 -0.28125,0.136718 -0.402343,0.02344 -1.054688,-0.0625 L 7.34375,13.382812 6.375,13.191406 6.148438,12.953125 6.351562,12.355469 6.996094,11.394531 7.320312,10.710938 7.328125,10.3125 Z m 0,0"
         id="path1200" />
      <path
         style="fill:none;stroke:#5c4f85;stroke-width:1;stroke-linecap:butt;stroke-linejoin:miter;stroke-miterlimit:10;stroke-opacity:1"
         d="m 11.21875,0.769531 h 0.882812 l 0.722657,0.273438 0.554687,0.550781 1.136719,1.5625 1.710937,2.570312 0.875,1.597657 0.03516,0.625 L 16.375,8.433594 14.820312,8.773438 13.863281,8.96875 13.503906,9.011719 13.265625,8.960938 13.152344,8.8125 12.976562,8.574219 12.75,8.238281 12.160156,7.355469 11.207031,5.929688 10.632812,4.917969 10.433594,4.324219 10.347656,3.355469 10.375,2.015625 10.484375,1.199219 10.679688,0.914062 Z m 0,0"
         id="path1202" />
      <path
         style="fill:none;stroke:#8f4c8a;stroke-width:1;stroke-linecap:butt;stroke-linejoin:miter;stroke-miterlimit:10;stroke-opacity:1"
         d="m 19.089844,6.699219 -0.05469,0.460937 -0.06641,0.230469 h -0.07813 L 18.695312,7.160156 18.390625,6.699219 18.242188,6.417969 18.253906,6.320312 18.4375,6.269531 h 0.363281 l 0.214844,0.050781 0.06641,0.097657 z m 0,0"
         id="path1204" />
      <path
         style="fill:none;stroke:#5c4f85;stroke-width:1;stroke-linecap:butt;stroke-linejoin:miter;stroke-miterlimit:10;stroke-opacity:1"
         d="m 13.363281,11.839844 0.460938,-0.695313 0.382812,-0.574219 0.04297,-0.07812 -0.0039,-0.0078 0.164062,-0.03906 0.335938,-0.07812 0.957031,-0.210938 1.570313,-0.347656 1.046874,-0.074219 0.519532,0.199219 0.683594,0.738281 0.851562,1.277344 0.472656,0.992187 0.08594,0.714844 -0.171875,1.382812 -0.433594,2.054688 -0.378906,1.074219 -0.324219,0.09375 -0.707031,-0.765625 -1.078125,-1.625 -0.78125,-0.800782 -0.476563,0.02344 -0.816406,0.871094 -1.148437,1.722656 -0.746094,0.867188 -0.351563,0.01172 -0.421875,-0.828125 -0.488281,-1.664062 -0.265625,-1.089844 -0.04687,-0.511719 0.113281,-0.609375 0.269532,-0.714843 0.214843,-0.507813 0.15625,-0.300781 z m 0,0"
         id="path1206" />
      <path
         style="fill:none;stroke:#8f4c8a;stroke-width:1;stroke-linecap:butt;stroke-linejoin:miter;stroke-miterlimit:10;stroke-opacity:1"
         d="m 21.113281,10.785156 z m 0,0"
         id="path1208" />
      <path
         style="fill:none;stroke:#8f4c8a;stroke-width:1;stroke-linecap:butt;stroke-linejoin:miter;stroke-miterlimit:10;stroke-opacity:1"
         d="m 21.550781,11.316406 -0.01172,0.04687 -0.0078,0.02734 h -0.01172 L 21.5,11.363281 l -0.03516,-0.04687 -0.01172,-0.03125 v -0.01172 l 0.02344,-0.0039 h 0.04297 l 0.02734,0.0039 0.0039,0.01172 z m 0,0"
         id="path1210" />
      <path
         style="fill:none;stroke:#8f4c8a;stroke-width:1;stroke-linecap:butt;stroke-linejoin:miter;stroke-miterlimit:10;stroke-opacity:1"
         d="m 23.464844,6.269531 h 2.988281 l 1.816406,0.128907 0.640625,0.261718 0.320313,0.734375 V 8.605469 L 28.96875,9.339844 28.445312,9.601562 26.960938,9.730469 H 24.515625 L 22.964844,9.671875 22.308594,9.558594 21.667969,9.226562 21.042969,8.6875 20.671875,8.285156 20.554688,8.027344 20.535156,7.5625 20.613286,6.890625 20.98438,6.484375 21.64063,6.339844 Z m 0,0"
         id="path1212" />
      <path
         style="fill:none;stroke:#5c4f85;stroke-width:1;stroke-linecap:butt;stroke-linejoin:miter;stroke-miterlimit:10;stroke-opacity:1"
         d="m 23.507812,16.648438 1.238282,1.859374 0.578125,1.125 -0.08203,0.398438 -0.859376,0.199219 H 22.75 l -0.945312,-0.199219 -0.265626,-0.398438 0.0625,-1.125 0.394532,-1.859374 0.371094,-0.929688 h 0.347656 z m 0,0"
         id="path1214" />
      <path
         style="fill:none;stroke:#8f4c8a;stroke-width:1;stroke-linecap:butt;stroke-linejoin:miter;stroke-miterlimit:10;stroke-opacity:1"
         d="m 25.0625,11.558594 2.160156,-0.09766 1.3125,0.06641 L 29,11.757812 l 0.230469,0.707032 v 1.175781 l -0.207031,0.710937 -0.410157,0.253907 -1.164062,0.125 h -1.921875 l -1.203125,-0.05859 -0.488281,-0.113281 -0.421876,-0.324219 -0.359374,-0.535156 -0.203126,-0.382813 -0.05078,-0.234375 0.03125,-0.386719 0.113281,-0.542968 0.300782,-0.339844 0.488281,-0.140625 z m 0,0"
         id="path1216" />
    </g>
    <g
       aria-label="'24"
       transform="matrix(0.27923014,0,0,0.27817073,319.31974,39.83439)"
       id="text68440-6"
       style="font-size:185.041px;line-height:1.25;font-family:DINComp-Medium;-inkscape-font-specification:DINComp-Medium;text-align:end;text-anchor:end;display:inline;fill:none;stroke:#8f4c8a;stroke-width:6.71479;stroke-linejoin:round;stroke-miterlimit:10;stroke-dasharray:none;stop-color:#000000">
      <path
         d="M 3.112643,39.529582 V 4.1867513 H 21.801784 V 39.529582 Z"
         style="stroke-width:6.71479;stroke-miterlimit:10;stroke-dasharray:none;stop-color:#000000;stop-opacity:1"
         id="path18893" />
      <path
         d="M 47.892559,135.93594 V 119.09721 L 98.593793,57.478559 q 3.700817,-4.626025 5.366187,-8.511886 1.66537,-4.070902 1.66537,-9.067009 0,-8.881968 -4.99611,-14.433198 -4.996103,-5.55123 -14.248153,-5.55123 -3.70082,0 -7.216599,1.110246 -3.515779,1.110246 -6.291394,3.515779 -2.590574,2.405533 -4.255943,6.291394 -1.665369,3.885861 -1.665369,9.437091 H 48.0776 q 0,-8.326845 2.775615,-15.173362 2.960656,-7.031558 7.956763,-11.842624 5.181148,-4.8110656 12.212706,-7.4016397 7.031558,-2.775615 15.358403,-2.775615 8.511886,0 15.543443,2.590574 7.03156,2.5905741 12.02767,7.4016397 4.9961,4.811066 7.77172,11.657583 2.77561,6.846517 2.77561,15.358403 0,8.696927 -3.14569,14.988321 -3.1457,6.106353 -9.25205,13.507993 L 70.837643,119.09721 h 53.661887 v 16.83873 z"
         style="stroke-width:6.71479;stroke-miterlimit:10;stroke-dasharray:none;stop-color:#000000;stop-opacity:1"
         id="path18895" />
      <path
         d="m 212.94895,116.13656 v 19.79938 h -18.31906 v -19.79938 h -53.2918 V 98.557662 L 187.78338,4.1867513 h 20.35451 L 161.87764,98.557662 h 32.75225 V 67.840855 h 18.31906 v 30.716807 h 14.06312 v 17.578898 z"
         style="stroke-width:6.71479;stroke-miterlimit:10;stroke-dasharray:none;stop-color:#000000;stop-opacity:1"
         id="path18897" />
    </g>
    <path
       d="M 105.38074,77.690581 V 53.150844 L 96.896942,71.040107 H 92.758508 L 84.067765,53.150844 V 77.690581 H 78.48086 V 40.984082 h 5.586905 L 94.827696,63.82254 105.38074,40.984082 h 5.58691 v 36.706499 z"
       style="font-size:27.5953px;line-height:1.25;font-family:DINComp-Medium;-inkscape-font-specification:DINComp-Medium;vector-effect:none;fill:#8f4c8a;fill-opacity:1;stroke:#8f4c8a;stroke-width:1.87142;stroke-linejoin:round;stroke-miterlimit:10;stroke-dasharray:none;stroke-opacity:1;stop-color:#000000"
       id="path12202" />
    <path
       d="m 146.40306,65.317607 q 0,2.835471 -1.0346,5.206959 -0.98288,2.319936 -2.79345,3.969664 -1.75886,1.649733 -4.19015,2.57771 -2.43136,0.927967 -5.2248,0.927967 -2.79346,0 -5.2248,-0.927967 -2.43136,-0.927977 -4.19016,-2.57771 -1.75885,-1.649728 -2.79345,-3.969664 -0.98287,-2.371488 -0.98287,-5.206959 V 40.984082 h 5.58685 v 24.075754 q 0,3.711892 2.06924,5.82561 2.06924,2.113718 5.53519,2.113718 3.46594,0 5.53512,-2.113718 2.12097,-2.113718 2.12097,-5.82561 V 40.984082 h 5.58691 z"
       style="font-size:27.5953px;line-height:1.25;font-family:DINComp-Medium;-inkscape-font-specification:DINComp-Medium;vector-effect:none;fill:#8f4c8a;fill-opacity:1;stroke:#8f4c8a;stroke-width:1.87142;stroke-linejoin:round;stroke-miterlimit:10;stroke-dasharray:none;stroke-opacity:1;stop-color:#000000"
       id="path12204" />
    <path
       d="m 178.06212,77.690581 -17.01937,-25.82859 v 25.82859 h -5.5869 V 40.984082 h 5.12135 l 17.01933,25.777039 V 40.984082 h 5.58691 v 36.706499 z"
       style="font-size:27.5953px;line-height:1.25;font-family:DINComp-Medium;-inkscape-font-specification:DINComp-Medium;vector-effect:none;fill:#8f4c8a;fill-opacity:1;stroke:#8f4c8a;stroke-width:1.87142;stroke-linejoin:round;stroke-miterlimit:10;stroke-dasharray:none;stroke-opacity:1;stop-color:#000000"
       id="path12206" />
    <path
       d="M 192.80522,77.690581 V 40.984082 h 5.5869 v 36.706499 z"
       style="font-size:27.5953px;line-height:1.25;font-family:DINComp-Medium;-inkscape-font-specification:DINComp-Medium;vector-effect:none;fill:#8f4c8a;fill-opacity:1;stroke:#8f4c8a;stroke-width:1.87142;stroke-linejoin:round;stroke-miterlimit:10;stroke-dasharray:none;stroke-opacity:1;stop-color:#000000"
       id="path12208" />
    <path
       d="M 228.55095,77.690581 V 61.657266 h -14.95008 v 16.033315 h -5.5869 V 40.984082 h 5.5869 v 15.672442 h 14.95008 V 40.984082 h 5.5869 v 36.706499 z"
       style="font-size:27.5953px;line-height:1.25;font-family:DINComp-Medium;-inkscape-font-specification:DINComp-Medium;vector-effect:none;fill:#8f4c8a;fill-opacity:1;stroke:#8f4c8a;stroke-width:1.87142;stroke-linejoin:round;stroke-miterlimit:10;stroke-dasharray:none;stroke-opacity:1;stop-color:#000000"
       id="path12210" />
    <path
       d="m 264.91755,77.690581 -2.53479,-7.372229 h -14.5363 l -2.5348,7.372229 h -5.94901 l 13.50167,-36.706499 h 4.50059 l 13.50165,36.706499 z m -9.67361,-28.406291 -5.74207,16.291087 h 11.32898 z"
       style="font-size:27.5953px;line-height:1.25;font-family:DINComp-Medium;-inkscape-font-specification:DINComp-Medium;vector-effect:none;fill:#8f4c8a;fill-opacity:1;stroke:#8f4c8a;stroke-width:1.87142;stroke-linejoin:round;stroke-miterlimit:10;stroke-dasharray:none;stroke-opacity:1;stop-color:#000000"
       id="path12212" />
    <path
       d="m 301.12883,66.709564 q -0.98286,5.464736 -4.55226,8.403317 -3.51771,2.887026 -8.58729,2.887026 -3.05211,0 -5.37996,-0.927967 -2.32791,-0.979534 -4.13849,-2.783923 -1.34498,-1.340411 -2.12091,-2.783921 -0.72426,-1.443514 -1.08637,-3.144799 -0.36232,-1.752837 -0.46576,-3.918112 -0.053,-2.216821 -0.053,-5.10385 0,-2.88703 0.053,-5.052299 0.10344,-2.216827 0.46576,-3.918111 0.36232,-1.752838 1.08637,-3.196352 0.77593,-1.443515 2.12091,-2.78392 1.81058,-1.804395 4.13849,-2.732368 2.32785,-0.979526 5.37996,-0.979526 5.1213,0 8.63902,2.938582 3.51767,2.887029 4.50053,8.351759 h -5.69034 q -0.62077,-2.835471 -2.48307,-4.588314 -1.8623,-1.752837 -4.96614,-1.752837 -3.31077,0 -5.43169,2.268379 -0.72426,0.721759 -1.13809,1.598175 -0.41377,0.876422 -0.67248,2.165275 -0.25888,1.237295 -0.36232,3.093242 -0.053,1.855947 -0.053,4.588315 0,2.732362 0.053,4.588314 0.10344,1.855946 0.36232,3.144795 0.25833,1.237296 0.67248,2.113717 0.41378,0.876421 1.13809,1.598176 2.12092,2.268378 5.43169,2.268378 3.10384,0 4.96614,-1.752837 1.91402,-1.752837 2.58651,-4.588314 z"
       style="font-size:27.5953px;line-height:1.25;font-family:DINComp-Medium;-inkscape-font-specification:DINComp-Medium;vector-effect:none;fill:#8f4c8a;fill-opacity:1;stroke:#8f4c8a;stroke-width:1.87142;stroke-linejoin:round;stroke-miterlimit:10;stroke-dasharray:none;stroke-opacity:1;stop-color:#000000"
       id="path12214" />
  </g>
</svg>
