<?xml version="1.0" encoding="UTF-8" standalone="no"?>
<svg
   width="200pt"
   height="21pt"
   viewBox="0 0 200 21"
   version="1.1"
   id="svg1219"
   sodipodi:docname="munihac-2024-logo-oneline.svg"
   inkscape:version="1.1.2 (0a00cf5339, 2022-02-04)"
   inkscape:export-filename="/home/thomaf/projects/generative-art/munihac-2023-logo-oneline-idea6.png"
   inkscape:export-xdpi="96"
   inkscape:export-ydpi="96"
   xmlns:inkscape="http://www.inkscape.org/namespaces/inkscape"
   xmlns:sodipodi="http://sodipodi.sourceforge.net/DTD/sodipodi-0.dtd"
   xmlns="http://www.w3.org/2000/svg"
   xmlns:svg="http://www.w3.org/2000/svg">
  <defs
     id="defs1223" />
  <sodipodi:namedview
     id="namedview1221"
     pagecolor="#ffffff"
     bordercolor="#666666"
     borderopacity="1.0"
     inkscape:pageshadow="2"
     inkscape:pageopacity="0.0"
     inkscape:pagecheckerboard="0"
     inkscape:document-units="pt"
     showgrid="false"
     inkscape:zoom="4.7356108"
     inkscape:cx="186.67075"
     inkscape:cy="49.729593"
     inkscape:window-width="1850"
     inkscape:window-height="1016"
     inkscape:window-x="1990"
     inkscape:window-y="147"
     inkscape:window-maximized="1"
     inkscape:current-layer="svg1219"
     inkscape:snap-text-baseline="false" />
  <g
     id="surface401"
     transform="translate(1.5)">
    <rect
       x="0"
       y="0"
       width="30"
       height="21"
       style="fill:#ffffff;fill-opacity:1;stroke:none"
       id="rect1190" />
    <path
       style="fill:none;stroke:#453861;stroke-width:1;stroke-linecap:butt;stroke-linejoin:miter;stroke-miterlimit:10;stroke-opacity:1"
       d="M 7.078125,2.003906 7.964844,3.332031 8.503906,4.15625 8.691406,4.472656 8.785156,4.714844 8.78125,4.871094 8.636719,5.027344 8.351562,5.179688 7.550781,5.535156 6.226562,6.09375 5.273438,6.210938 4.699219,5.890625 3.730469,4.710938 2.367188,2.667969 1.734375,1.425781 l 0.09375,-0.4375 0.949219,-0.21875 h 1.804687 l 1.191407,0.140625 0.574218,0.285156 z m 0,0"
       id="path1192" />
    <path
       style="fill:none;stroke:#5c4f85;stroke-width:1;stroke-linecap:butt;stroke-linejoin:miter;stroke-miterlimit:10;stroke-opacity:1"
       d="M 8.851562,1.285156 8.839844,1.84375 8.792969,2.121094 H 8.710938 L 8.484375,1.84375 8.113281,1.285156 7.929688,0.949219 7.933594,0.828125 8.125,0.769531 h 0.378906 l 0.234375,0.058594 0.078125,0.121094 z m 0,0"
       id="path1194" />
    <path
       style="fill:none;stroke:#453861;stroke-width:1;stroke-linecap:butt;stroke-linejoin:miter;stroke-miterlimit:10;stroke-opacity:1"
       d="m 6.371094,14.84375 1.707031,0.144531 0.90625,0.277344 0.113281,0.417969 L 8.554688,16.78125 7.363281,18.570312 6.445312,19.65625 5.804688,20.039062 4.582031,20.230469 H 2.777344 L 1.820312,20.023438 1.710938,19.609375 2.300781,18.4375 3.585938,16.503906 4.550781,15.34375 5.195312,14.960938 Z m 0,0"
       id="path1196" />
    <path
       style="fill:none;stroke:#5c4f85;stroke-width:1;stroke-linecap:butt;stroke-linejoin:miter;stroke-miterlimit:10;stroke-opacity:1"
       d="m 11.308594,17.09375 0.476562,1.628906 0.121094,0.984375 -0.234375,0.347657 -0.894531,0.175781 H 9.21875 L 8.386719,20.054688 8.285156,19.707031 8.777344,18.722656 9.859375,17.09375 l 0.707031,-0.8125 h 0.335938 z m 0,0"
       id="path1198" />
    <path
       style="fill:none;stroke:#453861;stroke-width:1;stroke-linecap:butt;stroke-linejoin:miter;stroke-miterlimit:10;stroke-opacity:1"
       d="M 7.027344,9.660156 6.425781,8.753906 6.1875,8.148438 6.316406,7.847656 6.980469,7.445312 8.183594,6.9375 9.023438,6.765625 l 0.472656,0.164063 0.746094,0.714843 1.015624,1.265625 0.574219,0.875 0.136719,0.488282 -0.125,0.742187 -0.378906,1.003906 -0.25,0.632813 -0.117188,0.269531 -0.140625,0.257813 -0.167969,0.25 -0.28125,0.136718 -0.402343,0.02344 -1.054688,-0.0625 L 7.34375,13.382812 6.375,13.191406 6.148438,12.953125 6.351562,12.355469 6.996094,11.394531 7.320312,10.710938 7.328125,10.3125 Z m 0,0"
       id="path1200" />
    <path
       style="fill:none;stroke:#5c4f85;stroke-width:1;stroke-linecap:butt;stroke-linejoin:miter;stroke-miterlimit:10;stroke-opacity:1"
       d="m 11.21875,0.769531 h 0.882812 l 0.722657,0.273438 0.554687,0.550781 1.136719,1.5625 1.710937,2.570312 0.875,1.597657 0.03516,0.625 L 16.375,8.433594 14.820312,8.773438 13.863281,8.96875 13.503906,9.011719 13.265625,8.960938 13.152344,8.8125 12.976562,8.574219 12.75,8.238281 12.160156,7.355469 11.207031,5.929688 10.632812,4.917969 10.433594,4.324219 10.347656,3.355469 10.375,2.015625 10.484375,1.199219 10.679688,0.914062 Z m 0,0"
       id="path1202" />
    <path
       style="fill:none;stroke:#8f4c8a;stroke-width:1;stroke-linecap:butt;stroke-linejoin:miter;stroke-miterlimit:10;stroke-opacity:1"
       d="m 19.089844,6.699219 -0.05469,0.460937 -0.06641,0.230469 h -0.07813 L 18.695312,7.160156 18.390625,6.699219 18.242188,6.417969 18.253906,6.320312 18.4375,6.269531 h 0.363281 l 0.214844,0.050781 0.06641,0.097657 z m 0,0"
       id="path1204" />
    <path
       style="fill:none;stroke:#5c4f85;stroke-width:1;stroke-linecap:butt;stroke-linejoin:miter;stroke-miterlimit:10;stroke-opacity:1"
       d="m 13.363281,11.839844 0.460938,-0.695313 0.382812,-0.574219 0.04297,-0.07812 -0.0039,-0.0078 0.164062,-0.03906 0.335938,-0.07812 0.957031,-0.210938 1.570313,-0.347656 1.046874,-0.074219 0.519532,0.199219 0.683594,0.738281 0.851562,1.277344 0.472656,0.992187 0.08594,0.714844 -0.171875,1.382812 -0.433594,2.054688 -0.378906,1.074219 -0.324219,0.09375 -0.707031,-0.765625 -1.078125,-1.625 -0.78125,-0.800782 -0.476563,0.02344 -0.816406,0.871094 -1.148437,1.722656 -0.746094,0.867188 -0.351563,0.01172 -0.421875,-0.828125 -0.488281,-1.664062 -0.265625,-1.089844 -0.04687,-0.511719 0.113281,-0.609375 0.269532,-0.714843 0.214843,-0.507813 0.15625,-0.300781 z m 0,0"
       id="path1206" />
    <path
       style="fill:none;stroke:#8f4c8a;stroke-width:1;stroke-linecap:butt;stroke-linejoin:miter;stroke-miterlimit:10;stroke-opacity:1"
       d="m 21.113281,10.785156 z m 0,0"
       id="path1208" />
    <path
       style="fill:none;stroke:#8f4c8a;stroke-width:1;stroke-linecap:butt;stroke-linejoin:miter;stroke-miterlimit:10;stroke-opacity:1"
       d="m 21.550781,11.316406 -0.01172,0.04687 -0.0078,0.02734 h -0.01172 L 21.5,11.363281 l -0.03516,-0.04687 -0.01172,-0.03125 v -0.01172 l 0.02344,-0.0039 h 0.04297 l 0.02734,0.0039 0.0039,0.01172 z m 0,0"
       id="path1210" />
    <path
       style="fill:none;stroke:#8f4c8a;stroke-width:1;stroke-linecap:butt;stroke-linejoin:miter;stroke-miterlimit:10;stroke-opacity:1"
       d="m 23.464844,6.269531 h 2.988281 l 1.816406,0.128907 0.640625,0.261718 0.320313,0.734375 V 8.605469 L 28.96875,9.339844 28.445312,9.601562 26.960938,9.730469 H 24.515625 L 22.964844,9.671875 22.308594,9.558594 21.667969,9.226562 21.042969,8.6875 20.671875,8.285156 20.554688,8.027344 20.535156,7.5625 20.613286,6.890625 20.98438,6.484375 21.64063,6.339844 Z m 0,0"
       id="path1212" />
    <path
       style="fill:none;stroke:#5c4f85;stroke-width:1;stroke-linecap:butt;stroke-linejoin:miter;stroke-miterlimit:10;stroke-opacity:1"
       d="m 23.507812,16.648438 1.238282,1.859374 0.578125,1.125 -0.08203,0.398438 -0.859376,0.199219 H 22.75 l -0.945312,-0.199219 -0.265626,-0.398438 0.0625,-1.125 0.394532,-1.859374 0.371094,-0.929688 h 0.347656 z m 0,0"
       id="path1214" />
    <path
       style="fill:none;stroke:#8f4c8a;stroke-width:1;stroke-linecap:butt;stroke-linejoin:miter;stroke-miterlimit:10;stroke-opacity:1"
       d="m 25.0625,11.558594 2.160156,-0.09766 1.3125,0.06641 L 29,11.757812 l 0.230469,0.707032 v 1.175781 l -0.207031,0.710937 -0.410157,0.253907 -1.164062,0.125 h -1.921875 l -1.203125,-0.05859 -0.488281,-0.113281 -0.421876,-0.324219 -0.359374,-0.535156 -0.203126,-0.382813 -0.05078,-0.234375 0.03125,-0.386719 0.113281,-0.542968 0.300782,-0.339844 0.488281,-0.140625 z m 0,0"
       id="path1216" />
  </g>
  <g
     aria-label="MUNIHAC '23"
     transform="matrix(1.0017101,0,0,0.99829281,4.5,0)"
     id="text2494"
     style="font-size:27.5953px;line-height:1.25;font-family:DINComp-Medium;-inkscape-font-specification:DINComp-Medium;opacity:1;vector-effect:none;fill:none;stroke:#8f4c8a;stroke-width:0.999999;stroke-miterlimit:10;stop-color:#000000;stop-opacity:1">
    <path
       d="M 46.162745,20.341875 V 7.206512 l -4.525629,9.575569 H 39.429492 L 34.793482,7.206512 V 20.341875 H 31.813189 V 0.694021 h 2.980293 l 5.739822,12.224718 5.629441,-12.224718 h 2.980293 v 19.647854 z"
       style="fill:#8f4c8a;fill-opacity:1;stroke:#8f4c8a;stroke-width:1;stroke-miterlimit:10;stroke-dasharray:none;stroke-opacity:1;stop-color:#000000;stop-opacity:1"
       id="path12202" />
    <path
       d="m 68.045812,13.719003 q 0,1.517741 -0.551906,2.787125 -0.52431,1.241789 -1.490146,2.124838 -0.93824,0.88305 -2.235219,1.379765 -1.29698,0.496716 -2.787126,0.496716 -1.490146,0 -2.787125,-0.496716 -1.296979,-0.496715 -2.235219,-1.379765 -0.938241,-0.883049 -1.490147,-2.124838 -0.52431,-1.269384 -0.52431,-2.787125 V 0.694021 h 2.980292 v 12.887005 q 0,1.986862 1.103812,3.118269 1.103812,1.131408 2.952697,1.131408 1.848885,0 2.952697,-1.131408 1.131408,-1.131407 1.131408,-3.118269 V 0.694021 h 2.980292 z"
       style="fill:#8f4c8a;fill-opacity:1;stroke:#8f4c8a;stroke-width:1;stroke-miterlimit:10;stroke-dasharray:none;stroke-opacity:1;stop-color:#000000;stop-opacity:1"
       id="path12204" />
    <path
       d="M 84.934115,20.341875 75.855261,6.5166294 V 20.341875 H 72.874968 V 0.694021 h 2.731935 l 9.078854,13.79765 V 0.694021 h 2.980292 v 19.647854 z"
       style="fill:#8f4c8a;fill-opacity:1;stroke:#8f4c8a;stroke-width:1;stroke-miterlimit:10;stroke-dasharray:none;stroke-opacity:1;stop-color:#000000;stop-opacity:1"
       id="path12206" />
    <path
       d="M 92.798724,20.341875 V 0.694021 h 2.980292 v 19.647854 z"
       style="fill:#8f4c8a;fill-opacity:1;stroke:#8f4c8a;stroke-width:1;stroke-miterlimit:10;stroke-dasharray:none;stroke-opacity:1;stop-color:#000000;stop-opacity:1"
       id="path12208" />
    <path
       d="M 111.86704,20.341875 V 11.759737 H 103.892 v 8.582138 h -2.98029 V 0.694021 h 2.98029 v 8.3889714 h 7.97504 V 0.694021 h 2.98029 v 19.647854 z"
       style="fill:#8f4c8a;fill-opacity:1;stroke:#8f4c8a;stroke-width:1;stroke-miterlimit:10;stroke-dasharray:none;stroke-opacity:1;stop-color:#000000;stop-opacity:1"
       id="path12210" />
    <path
       d="m 131.26654,20.341875 -1.35217,-3.946128 h -7.75428 l -1.35217,3.946128 h -3.17346 l 7.20237,-19.647854 h 2.40079 L 134.44,20.341875 Z m -5.16032,-15.2050106 -3.06308,8.7201146 h 6.04337 z"
       style="fill:#8f4c8a;fill-opacity:1;stroke:#8f4c8a;stroke-width:1;stroke-miterlimit:10;stroke-dasharray:none;stroke-opacity:1;stop-color:#000000;stop-opacity:1"
       id="path12212" />
    <path
       d="m 150.58319,14.464076 q -0.52431,2.925102 -2.42838,4.498034 -1.87648,1.545337 -4.58082,1.545337 -1.62813,0 -2.86991,-0.496716 -1.24179,-0.52431 -2.20763,-1.490146 -0.71748,-0.717478 -1.1314,-1.490146 -0.38634,-0.772668 -0.57951,-1.683313 -0.19316,-0.938241 -0.24835,-2.097243 -0.0276,-1.186598 -0.0276,-2.731935 0,-1.5453368 0.0276,-2.7043394 0.0552,-1.186598 0.24835,-2.0972429 0.19317,-0.9382402 0.57951,-1.7109086 0.41392,-0.7726684 1.1314,-1.4901463 0.96584,-0.9658355 2.20763,-1.4625509 1.24178,-0.52431071 2.86991,-0.52431071 2.73193,0 4.60841,1.57293211 1.87648,1.5453369 2.40079,4.4704387 h -3.03548 q -0.33114,-1.5177415 -1.32457,-2.4559817 -0.99343,-0.9382402 -2.64915,-0.9382402 -1.7661,0 -2.89751,1.2141932 -0.38633,0.3863342 -0.6071,0.8554543 -0.22076,0.4691201 -0.35873,1.1590026 -0.13798,0.6622873 -0.19317,1.6557181 -0.0276,0.9934308 -0.0276,2.4559817 0,1.462551 0.0276,2.455982 0.0552,0.993431 0.19317,1.683313 0.13797,0.662287 0.35873,1.131407 0.22077,0.469121 0.6071,0.855455 1.13141,1.214193 2.89751,1.214193 1.65572,0 2.64915,-0.93824 1.02102,-0.93824 1.37976,-2.455982 z"
       style="fill:#8f4c8a;fill-opacity:1;stroke:#8f4c8a;stroke-width:1;stroke-miterlimit:10;stroke-dasharray:none;stroke-opacity:1;stop-color:#000000;stop-opacity:1"
       id="path12214" />
  </g>
  <g
     aria-label="'24"
     transform="matrix(1.0175477,0,0,0.98275491,4.2448697,0)"
     id="text2468"
     style="font-weight:600;font-size:26px;line-height:1.25;font-family:Normatica;-inkscape-font-specification:'Normatica, Semi-Bold';fill:#8f4c8a;stroke-width:0.67617">
    <path
       d="m 153.95946,0.93119621 0.39,7.40999999 h 2.21 l 0.65,-7.40999999 z"
       id="path934" />
    <path
       d="m 159.15946,20.431196 h 12.22 v -2.99 h -7.54 c 5.07,-5.59 7.02,-8.1899998 7.02,-11.4399998 0,-3.25 -2.6,-5.51199999 -5.98,-5.51199999 -3.77,0 -5.98,2.78199999 -5.98,6.94199999 h 3.38 c 0,-2.6 0.91,-4.03 2.6,-4.03 1.56,0 2.6,1.04 2.6,2.99 0,2.574 -2.34,5.1999998 -8.32,11.6999998 z"
       id="path936" />
    <path
       d="m 183.46943,7.5611962 h -3.354 v 5.3299998 h -4.186 l 5.46,-11.95999979 h -3.38 l -5.59,12.34999979 v 2.34 h 7.696 v 4.81 h 3.354 v -4.81 h 2.73 v -2.73 h -2.73 z"
       id="path938" />
  </g>
</svg>
