<?xml version="1.0" encoding="UTF-8" standalone="no"?>
<!-- Created with Inkscape (http://www.inkscape.org/) -->

<svg
   xmlns:dc="http://purl.org/dc/elements/1.1/"
   xmlns:cc="http://creativecommons.org/ns#"
   xmlns:rdf="http://www.w3.org/1999/02/22-rdf-syntax-ns#"
   xmlns:svg="http://www.w3.org/2000/svg"
   xmlns="http://www.w3.org/2000/svg"
   xmlns:sodipodi="http://sodipodi.sourceforge.net/DTD/sodipodi-0.dtd"
   xmlns:inkscape="http://www.inkscape.org/namespaces/inkscape"
   width="76.484741mm"
   height="21.169775mm"
   viewBox="0 0 76.484741 21.169775"
   version="1.1"
   id="svg5276"
   inkscape:export-filename="/home/david/temp/logo-2019.png"
   inkscape:export-xdpi="960.04022"
   inkscape:export-ydpi="960.04022"
   inkscape:version="0.92.3 (2405546, 2018-03-11)"
   sodipodi:docname="logo-2020-inkscape-modifiable.svg">
  <defs
     id="defs5270" />
  <sodipodi:namedview
     id="base"
     pagecolor="#ffffff"
     bordercolor="#666666"
     borderopacity="1.0"
     inkscape:pageopacity="0.0"
     inkscape:pageshadow="2"
     inkscape:zoom="3.959798"
     inkscape:cx="106.92487"
     inkscape:cy="19.126825"
     inkscape:document-units="mm"
     inkscape:current-layer="layer1"
     showgrid="false"
     fit-margin-top="2"
     fit-margin-left="2"
     fit-margin-right="2"
     fit-margin-bottom="2"
     inkscape:window-width="2560"
     inkscape:window-height="1364"
     inkscape:window-x="0"
     inkscape:window-y="25"
     inkscape:window-maximized="1"
     showguides="true"
     inkscape:guide-bbox="true" />
  <metadata
     id="metadata5273">
    <rdf:RDF>
      <cc:Work
         rdf:about="">
        <dc:format>image/svg+xml</dc:format>
        <dc:type
           rdf:resource="http://purl.org/dc/dcmitype/StillImage" />
        <dc:title></dc:title>
      </cc:Work>
    </rdf:RDF>
  </metadata>
  <g
     inkscape:label="Layer 1"
     inkscape:groupmode="layer"
     id="layer1"
     transform="translate(158.26131,-109.70291)">
    <g
       aria-label="~12th Sept 2020 "
       transform="matrix(0.26458333,0,0,0.26458333,-177.57201,109.52787)"
       style="font-style:normal;font-weight:normal;font-size:18.66666603px;line-height:125%;font-family:Sans;text-align:end;letter-spacing:0px;word-spacing:0px;text-anchor:end;fill:#8f4e8b;fill-opacity:1;stroke:none;stroke-width:1px;stroke-linecap:butt;stroke-linejoin:miter;stroke-opacity:1"
       id="flowRoot826">
      <path
         d="m 227.54688,62.359045 q 0,0.628906 -0.18229,1.19401 -0.18229,0.565104 -0.53776,0.99349 -0.34636,0.41927 -0.84766,0.674479 -0.5013,0.246093 -1.13021,0.246093 -0.41015,0 -0.74739,-0.08203 -0.33724,-0.09115 -0.65625,-0.255208 -0.31901,-0.164063 -0.63802,-0.410156 -0.31901,-0.246094 -0.67448,-0.565104 -0.29167,-0.255209 -0.53776,-0.446615 -0.23698,-0.200521 -0.47396,-0.328125 -0.22787,-0.127604 -0.47396,-0.191406 -0.23698,-0.0638 -0.51042,-0.0638 -0.81119,0 -1.26692,0.53776 -0.44662,0.53776 -0.44662,1.558594 l -0.98437,0.0091 q 0,-0.63802 0.18229,-1.203125 0.18229,-0.565104 0.51953,-0.97526 0.34635,-0.419271 0.84766,-0.65625 0.5013,-0.246094 1.14843,-0.246094 0.40104,0 0.7474,0.09115 0.34635,0.09115 0.66536,0.264323 0.32813,0.164062 0.64714,0.410156 0.31901,0.236979 0.66536,0.546875 0.29167,0.273438 0.53776,0.473959 0.25521,0.191406 0.48308,0.31901 0.23698,0.127604 0.46484,0.191406 0.23698,0.05469 0.5013,0.05469 0.41016,0 0.73828,-0.154948 0.32813,-0.154948 0.54688,-0.428386 0.22786,-0.282552 0.34635,-0.674479 0.11849,-0.401041 0.11849,-0.884114 z"
         style="font-style:normal;font-variant:normal;font-weight:300;font-stretch:normal;font-size:18.66666603px;line-height:125%;font-family:Roboto;-inkscape-font-specification:'Roboto Light';text-align:end;letter-spacing:0px;word-spacing:0px;text-anchor:end;fill:#8f4e8b;fill-opacity:1"
         id="path844" />
      <path
         d="m 235.23959,69.322586 h -1.09375 V 57.364253 l -3.60938,1.339844 v -1.020833 l 4.52084,-1.677084 h 0.18229 z"
         style="font-style:normal;font-variant:normal;font-weight:300;font-stretch:normal;font-size:18.66666603px;line-height:125%;font-family:Roboto;-inkscape-font-specification:'Roboto Light';text-align:end;letter-spacing:0px;word-spacing:0px;text-anchor:end;fill:#8f4e8b;fill-opacity:1"
         id="path846" />
      <path
         d="m 248.82943,69.322586 h -8.3125 v -0.838542 l 4.34766,-4.930989 q 0.61067,-0.692708 1.02995,-1.248698 0.42838,-0.555989 0.68359,-1.029948 0.26432,-0.483073 0.3737,-0.902343 0.11849,-0.428386 0.11849,-0.847657 0,-0.601562 -0.1823,-1.09375 -0.17317,-0.501302 -0.52864,-0.865885 -0.34636,-0.364583 -0.86589,-0.565104 -0.51953,-0.200521 -1.19401,-0.200521 -0.69271,0 -1.24869,0.236979 -0.54688,0.227865 -0.93881,0.638021 -0.38281,0.410156 -0.59244,0.97526 -0.20964,0.565105 -0.20964,1.230469 h -1.08464 q 0,-0.820312 0.27344,-1.549479 0.28255,-0.729167 0.8112,-1.276042 0.52865,-0.546875 1.27604,-0.865885 0.75651,-0.31901 1.71354,-0.31901 0.89323,0 1.61328,0.246093 0.72006,0.236979 1.22136,0.701823 0.5013,0.455729 0.76562,1.121094 0.27344,0.65625 0.27344,1.494792 0,0.601562 -0.21875,1.212239 -0.21875,0.610677 -0.58333,1.21224 -0.36459,0.601562 -0.83854,1.19401 -0.47396,0.592448 -0.97526,1.166667 l -3.70053,4.183593 h 6.97266 z"
         style="font-style:normal;font-variant:normal;font-weight:300;font-stretch:normal;font-size:18.66666603px;line-height:125%;font-family:Roboto;-inkscape-font-specification:'Roboto Light';text-align:end;letter-spacing:0px;word-spacing:0px;text-anchor:end;fill:#8f4e8b;fill-opacity:1"
         id="path848" />
      <path
         d="m 252.73959,56.935868 v 2.524739 h 2.04166 v 0.893229 h -2.04166 v 6.571615 q 0,0.519531 0.10026,0.838541 0.10937,0.309896 0.28255,0.492188 0.18229,0.173177 0.41016,0.236979 0.23697,0.05469 0.49218,0.05469 0.2461,0 0.47396,-0.02734 0.22787,-0.03646 0.41016,-0.0638 l 0.0456,0.893229 q -0.20052,0.07292 -0.52865,0.109375 -0.31901,0.04557 -0.63802,0.04557 -0.46484,0 -0.86588,-0.127604 -0.39193,-0.11849 -0.67448,-0.419271 -0.28255,-0.300781 -0.44662,-0.792969 -0.15494,-0.501302 -0.15494,-1.239583 v -6.571615 h -1.81381 v -0.893229 h 1.81381 v -2.524739 z"
         style="font-style:normal;font-variant:normal;font-weight:300;font-stretch:normal;font-size:18.66666603px;line-height:125%;font-family:Roboto;-inkscape-font-specification:'Roboto Light';text-align:end;letter-spacing:0px;word-spacing:0px;text-anchor:end;fill:#8f4e8b;fill-opacity:1"
         id="path850" />
      <path
         d="m 258.14453,61.128576 q 0.25521,-0.419271 0.59245,-0.75651 0.33724,-0.346355 0.73828,-0.583334 0.41016,-0.246093 0.875,-0.373698 0.47396,-0.136718 1.00261,-0.136718 0.73828,0 1.32161,0.20052 0.58334,0.200521 0.98438,0.638021 0.41015,0.4375 0.61979,1.130209 0.21875,0.683593 0.21875,1.658854 v 6.416666 h -1.08464 v -6.425781 q 0,-0.765625 -0.16406,-1.276042 -0.16406,-0.510416 -0.46484,-0.820312 -0.30078,-0.309896 -0.73828,-0.4375 -0.42839,-0.136719 -0.95704,-0.136719 -0.58333,0 -1.05729,0.200521 -0.47396,0.191406 -0.83854,0.519531 -0.36458,0.328125 -0.6289,0.756511 -0.26433,0.419271 -0.41928,0.865885 v 6.753906 H 257.0599 V 55.322587 h 1.08463 z"
         style="font-style:normal;font-variant:normal;font-weight:300;font-stretch:normal;font-size:18.66666603px;line-height:125%;font-family:Roboto;-inkscape-font-specification:'Roboto Light';text-align:end;letter-spacing:0px;word-spacing:0px;text-anchor:end;fill:#8f4e8b;fill-opacity:1"
         id="path852" />
      <path
         d="m 279.62761,66.059565 q 0,-0.546875 -0.1823,-0.966145 -0.17317,-0.428386 -0.60156,-0.77474 -0.41927,-0.355469 -1.11198,-0.647135 -0.69271,-0.291667 -1.73177,-0.583334 -1.0026,-0.282552 -1.80469,-0.610677 -0.80208,-0.337239 -1.36718,-0.783854 -0.55599,-0.446614 -0.86589,-1.029948 -0.30078,-0.583333 -0.30078,-1.367187 0,-0.765625 0.32813,-1.394531 0.32812,-0.628907 0.92057,-1.075521 0.59245,-0.455729 1.41276,-0.701823 0.82031,-0.255208 1.79557,-0.255208 1.04818,0 1.88672,0.309895 0.84766,0.309896 1.4401,0.847657 0.59245,0.53776 0.91146,1.257812 0.31901,0.720052 0.31901,1.549479 h -1.13021 q 0,-0.647135 -0.22786,-1.19401 -0.22786,-0.55599 -0.66536,-0.957031 -0.4375,-0.401042 -1.07553,-0.628907 -0.63802,-0.227864 -1.45833,-0.227864 -0.82031,0 -1.44922,0.200521 -0.61979,0.191406 -1.03906,0.528645 -0.41016,0.328125 -0.62891,0.77474 -0.20963,0.446615 -0.20963,0.947917 0,0.473958 0.17318,0.875 0.18229,0.401041 0.60156,0.747395 0.41927,0.33724 1.10286,0.638021 0.6836,0.291667 1.6862,0.55599 1.04818,0.291666 1.86849,0.638021 0.82031,0.346354 1.38542,0.820312 0.5651,0.464844 0.85677,1.075521 0.29166,0.610677 0.29166,1.41276 0,0.811198 -0.34635,1.458333 -0.33724,0.638021 -0.94792,1.084636 -0.60156,0.446614 -1.4401,0.683594 -0.83854,0.236979 -1.82292,0.236979 -0.59245,0 -1.19401,-0.100261 -0.59245,-0.10026 -1.14844,-0.300781 -0.54687,-0.209635 -1.02994,-0.528646 -0.47396,-0.31901 -0.82943,-0.75651 -0.34635,-0.446615 -0.55599,-1.011719 -0.20052,-0.574219 -0.20052,-1.276041 h 1.12109 q 0,0.838541 0.34636,1.421875 0.34635,0.574218 0.89323,0.929687 0.54687,0.355469 1.23047,0.519531 0.68359,0.154948 1.36718,0.154948 0.77474,0 1.40365,-0.173177 0.63802,-0.182292 1.08463,-0.510417 0.45573,-0.328125 0.69271,-0.783854 0.2461,-0.464843 0.2461,-1.029948 z"
         style="font-style:normal;font-variant:normal;font-weight:300;font-stretch:normal;font-size:18.66666603px;line-height:125%;font-family:Roboto;-inkscape-font-specification:'Roboto Light';text-align:end;letter-spacing:0px;word-spacing:0px;text-anchor:end;fill:#8f4e8b;fill-opacity:1"
         id="path854" />
      <path
         d="m 286.72787,69.504878 q -0.96615,0 -1.77735,-0.355469 -0.8112,-0.364583 -1.40364,-1.002604 -0.58334,-0.647136 -0.91146,-1.53125 -0.32813,-0.884115 -0.32813,-1.941406 v -0.391927 q 0,-1.139323 0.33724,-2.059896 0.34636,-0.929688 0.92969,-1.576823 0.58333,-0.65625 1.33984,-1.011719 0.76563,-0.355468 1.61329,-0.355468 0.9388,0 1.66796,0.337239 0.72917,0.33724 1.22136,0.938802 0.5013,0.601563 0.75651,1.43099 0.25521,0.829427 0.25521,1.813802 v 0.665364 h -7.03646 v 0.209636 q 0,0.811198 0.24609,1.53125 0.2461,0.710937 0.69271,1.239583 0.44662,0.528646 1.06641,0.838542 0.61979,0.300781 1.3763,0.300781 0.875,0 1.54036,-0.319011 0.67448,-0.31901 1.22136,-1.020833 l 0.68359,0.519531 q -0.24609,0.355469 -0.57422,0.67448 -0.31901,0.31901 -0.74739,0.555989 -0.42839,0.236979 -0.96615,0.373698 -0.53776,0.136719 -1.20312,0.136719 z m -0.20052,-9.296875 q -0.6198,0 -1.14844,0.236979 -0.52865,0.236979 -0.9388,0.674479 -0.40105,0.4375 -0.66537,1.057292 -0.25521,0.610677 -0.34635,1.358073 h 5.91536 v -0.11849 q -0.0182,-0.619791 -0.20052,-1.19401 -0.18229,-0.583333 -0.53776,-1.029948 -0.34635,-0.446615 -0.86588,-0.710937 -0.51954,-0.273438 -1.21224,-0.273438 z"
         style="font-style:normal;font-variant:normal;font-weight:300;font-stretch:normal;font-size:18.66666603px;line-height:125%;font-family:Roboto;-inkscape-font-specification:'Roboto Light';text-align:end;letter-spacing:0px;word-spacing:0px;text-anchor:end;fill:#8f4e8b;fill-opacity:1"
         id="path856" />
      <path
         d="m 300.5,64.491857 q 0,1.111979 -0.2552,2.032552 -0.2461,0.920573 -0.72917,1.585938 -0.48307,0.65625 -1.1849,1.029947 -0.6927,0.364584 -1.58593,0.364584 -1.0573,0 -1.83204,-0.373698 -0.76562,-0.382813 -1.26692,-1.048177 v 5.03125 H 292.5612 V 59.460607 h 1.01172 l 0.0547,1.394531 q 0.5013,-0.738281 1.26693,-1.157552 0.76562,-0.41927 1.82291,-0.41927 0.90235,0 1.60417,0.355468 0.71094,0.355469 1.19401,1.011719 0.48307,0.65625 0.72917,1.585938 0.2552,0.920572 0.2552,2.06901 z m -1.09375,-0.191406 q 0,-0.856771 -0.18229,-1.604167 -0.17317,-0.747396 -0.53776,-1.294271 -0.35547,-0.546875 -0.91146,-0.85677 -0.55599,-0.319011 -1.30338,-0.319011 -0.59245,0 -1.04818,0.154948 -0.45573,0.154948 -0.80208,0.419271 -0.33724,0.255208 -0.58334,0.601562 -0.23697,0.33724 -0.39192,0.710938 v 4.730469 q 0.17318,0.373697 0.42838,0.692708 0.26433,0.31901 0.61068,0.555989 0.35547,0.227865 0.80208,0.364584 0.44662,0.127604 1.00261,0.127604 0.74739,0 1.29427,-0.309896 0.54687,-0.31901 0.90234,-0.865885 0.36459,-0.55599 0.53776,-1.303386 0.18229,-0.747396 0.18229,-1.613281 z"
         style="font-style:normal;font-variant:normal;font-weight:300;font-stretch:normal;font-size:18.66666603px;line-height:125%;font-family:Roboto;-inkscape-font-specification:'Roboto Light';text-align:end;letter-spacing:0px;word-spacing:0px;text-anchor:end;fill:#8f4e8b;fill-opacity:1"
         id="path858" />
      <path
         d="m 304.61979,56.935868 v 2.524739 h 2.04167 v 0.893229 h -2.04167 v 6.571615 q 0,0.519531 0.10026,0.838541 0.10938,0.309896 0.28256,0.492188 0.18229,0.173177 0.41015,0.236979 0.23698,0.05469 0.49219,0.05469 0.24609,0 0.47396,-0.02734 0.22786,-0.03646 0.41015,-0.0638 l 0.0456,0.893229 q -0.20052,0.07292 -0.52865,0.109375 -0.31901,0.04557 -0.63802,0.04557 -0.46484,0 -0.86588,-0.127604 -0.39193,-0.11849 -0.67448,-0.419271 -0.28256,-0.300781 -0.44662,-0.792969 -0.15495,-0.501302 -0.15495,-1.239583 v -6.571615 h -1.8138 v -0.893229 h 1.8138 v -2.524739 z"
         style="font-style:normal;font-variant:normal;font-weight:300;font-stretch:normal;font-size:18.66666603px;line-height:125%;font-family:Roboto;-inkscape-font-specification:'Roboto Light';text-align:end;letter-spacing:0px;word-spacing:0px;text-anchor:end;fill:#8f4e8b;fill-opacity:1"
         id="path860" />
      <path
         d="m 321.63672,69.322586 h -8.3125 v -0.838542 l 4.34765,-4.930989 q 0.61068,-0.692708 1.02995,-1.248698 0.42839,-0.555989 0.6836,-1.029948 0.26432,-0.483073 0.37369,-0.902343 0.11849,-0.428386 0.11849,-0.847657 0,-0.601562 -0.18229,-1.09375 -0.17318,-0.501302 -0.52864,-0.865885 -0.34636,-0.364583 -0.86589,-0.565104 -0.51953,-0.200521 -1.19401,-0.200521 -0.69271,0 -1.2487,0.236979 -0.54687,0.227865 -0.9388,0.638021 -0.38281,0.410156 -0.59245,0.97526 -0.20963,0.565105 -0.20963,1.230469 h -1.08464 q 0,-0.820312 0.27344,-1.549479 0.28255,-0.729167 0.8112,-1.276042 0.52864,-0.546875 1.27604,-0.865885 0.75651,-0.31901 1.71354,-0.31901 0.89323,0 1.61328,0.246093 0.72005,0.236979 1.22136,0.701823 0.5013,0.455729 0.76562,1.121094 0.27344,0.65625 0.27344,1.494792 0,0.601562 -0.21875,1.212239 -0.21875,0.610677 -0.58334,1.21224 -0.36458,0.601562 -0.83854,1.19401 -0.47396,0.592448 -0.97526,1.166667 l -3.70052,4.183593 h 6.97266 z"
         style="font-style:normal;font-variant:normal;font-weight:300;font-stretch:normal;font-size:18.66666603px;line-height:125%;font-family:Roboto;-inkscape-font-specification:'Roboto Light';text-align:end;letter-spacing:0px;word-spacing:0px;text-anchor:end;fill:#8f4e8b;fill-opacity:1"
         id="path862" />
      <path
         d="m 331.68099,63.790034 q 0,1.458333 -0.27343,2.533854 -0.27344,1.075521 -0.79297,1.786459 -0.51953,0.701822 -1.27604,1.048177 -0.75651,0.346354 -1.72266,0.346354 -0.95703,0 -1.71354,-0.346354 -0.75651,-0.346355 -1.28516,-1.048177 -0.52864,-0.710938 -0.8112,-1.786459 -0.28255,-1.075521 -0.28255,-2.533854 v -2.242187 q 0,-1.458334 0.27344,-2.52474 0.28255,-1.075521 0.80208,-1.768229 0.52865,-0.701823 1.28516,-1.039062 0.75651,-0.346354 1.71354,-0.346354 0.95703,0 1.71354,0.346354 0.76563,0.337239 1.28516,1.039062 0.52864,0.692708 0.80208,1.768229 0.28255,1.066406 0.28255,2.52474 z m -1.09375,-2.378906 q 0,-2.278646 -0.74739,-3.445312 -0.73828,-1.166667 -2.24219,-1.166667 -1.49479,0 -2.24219,1.166667 -0.74739,1.166666 -0.74739,3.445312 v 2.497396 q 0,1.121093 0.1914,1.996093 0.19141,0.865886 0.56511,1.467448 0.38281,0.592448 0.94791,0.902344 0.56511,0.309896 1.30339,0.309896 0.7474,0 1.30339,-0.309896 0.5651,-0.309896 0.92968,-0.902344 0.3737,-0.601562 0.55599,-1.467448 0.18229,-0.875 0.18229,-1.996093 z"
         style="font-style:normal;font-variant:normal;font-weight:300;font-stretch:normal;font-size:18.66666603px;line-height:125%;font-family:Roboto;-inkscape-font-specification:'Roboto Light';text-align:end;letter-spacing:0px;word-spacing:0px;text-anchor:end;fill:#8f4e8b;fill-opacity:1"
         id="path864" />
      <path
         d="m 342.34505,69.322586 h -8.3125 v -0.838542 l 4.34766,-4.930989 q 0.61068,-0.692708 1.02995,-1.248698 0.42838,-0.555989 0.68359,-1.029948 0.26432,-0.483073 0.3737,-0.902343 0.11849,-0.428386 0.11849,-0.847657 0,-0.601562 -0.18229,-1.09375 -0.17318,-0.501302 -0.52865,-0.865885 -0.34635,-0.364583 -0.86588,-0.565104 -0.51953,-0.200521 -1.19401,-0.200521 -0.69271,0 -1.2487,0.236979 -0.54688,0.227865 -0.9388,0.638021 -0.38282,0.410156 -0.59245,0.97526 -0.20964,0.565105 -0.20964,1.230469 h -1.08463 q 0,-0.820312 0.27344,-1.549479 0.28255,-0.729167 0.81119,-1.276042 0.52865,-0.546875 1.27604,-0.865885 0.75651,-0.31901 1.71355,-0.31901 0.89323,0 1.61328,0.246093 0.72005,0.236979 1.22135,0.701823 0.5013,0.455729 0.76563,1.121094 0.27343,0.65625 0.27343,1.494792 0,0.601562 -0.21875,1.212239 -0.21875,0.610677 -0.58333,1.21224 -0.36458,0.601562 -0.83854,1.19401 -0.47396,0.592448 -0.97526,1.166667 l -3.70052,4.183593 h 6.97265 z"
         style="font-style:normal;font-variant:normal;font-weight:300;font-stretch:normal;font-size:18.66666603px;line-height:125%;font-family:Roboto;-inkscape-font-specification:'Roboto Light';text-align:end;letter-spacing:0px;word-spacing:0px;text-anchor:end;fill:#8f4e8b;fill-opacity:1"
         id="path866" />
      <path
         d="m 352.38932,63.790034 q 0,1.458333 -0.27344,2.533854 -0.27343,1.075521 -0.79296,1.786459 -0.51954,0.701822 -1.27605,1.048177 -0.75651,0.346354 -1.72265,0.346354 -0.95703,0 -1.71354,-0.346354 -0.75651,-0.346355 -1.28516,-1.048177 -0.52865,-0.710938 -0.8112,-1.786459 -0.28255,-1.075521 -0.28255,-2.533854 v -2.242187 q 0,-1.458334 0.27344,-2.52474 0.28255,-1.075521 0.80208,-1.768229 0.52865,-0.701823 1.28516,-1.039062 0.75651,-0.346354 1.71354,-0.346354 0.95703,0 1.71354,0.346354 0.76563,0.337239 1.28516,1.039062 0.52864,0.692708 0.80208,1.768229 0.28255,1.066406 0.28255,2.52474 z m -1.09375,-2.378906 q 0,-2.278646 -0.74739,-3.445312 -0.73828,-1.166667 -2.24219,-1.166667 -1.49479,0 -2.24219,1.166667 -0.74739,1.166666 -0.74739,3.445312 v 2.497396 q 0,1.121093 0.1914,1.996093 0.19141,0.865886 0.56511,1.467448 0.38281,0.592448 0.94791,0.902344 0.56511,0.309896 1.30339,0.309896 0.74739,0 1.30338,-0.309896 0.56511,-0.309896 0.92969,-0.902344 0.3737,-0.601562 0.55599,-1.467448 0.18229,-0.875 0.18229,-1.996093 z"
         style="font-style:normal;font-variant:normal;font-weight:300;font-stretch:normal;font-size:18.66666603px;line-height:125%;font-family:Roboto;-inkscape-font-specification:'Roboto Light';text-align:end;letter-spacing:0px;word-spacing:0px;text-anchor:end;fill:#8f4e8b;fill-opacity:1"
         id="path868" />
    </g>
    <g
       aria-label="MuniHac"
       style="font-style:normal;font-weight:normal;font-size:10.58333302px;line-height:125%;font-family:Sans;letter-spacing:0px;word-spacing:0px;fill:#5e5086;fill-opacity:1;stroke:none;stroke-width:0.26458332px;stroke-linecap:butt;stroke-linejoin:miter;stroke-opacity:1"
       id="text836">
      <path
         d="m -136.47965,111.99385 3.70003,8.8539 3.71382,-8.8539 h 1.12999 v 10.03212 h -0.84749 v -4.38216 l 0.0689,-4.46485 -3.73449,8.84701 h -0.65456 l -3.72071,-8.81255 0.0689,4.43039 v 4.38216 h -0.84749 v -10.03212 z"
         style="font-style:normal;font-variant:normal;font-weight:300;font-stretch:normal;font-size:14.11111164px;font-family:Roboto;-inkscape-font-specification:'Roboto Light';fill:#5e5086;fill-opacity:1;stroke-width:0.26458332px"
         id="path871" />
      <path
         d="m -120.79068,121.08201 q -0.3514,0.50988 -0.93707,0.79927 -0.57877,0.28249 -1.44005,0.28249 -0.55121,0 -0.99908,-0.15158 -0.44786,-0.15847 -0.7717,-0.49609 -0.32384,-0.33762 -0.50298,-0.86817 -0.17226,-0.53743 -0.17226,-1.30224 v -4.77491 h 0.81994 v 4.78869 q 0,0.59944 0.1378,0.99907 0.1378,0.39964 0.37207,0.64079 0.23427,0.24116 0.54433,0.34451 0.31694,0.10335 0.66834,0.10335 0.4961,0 0.87506,-0.11024 0.37896,-0.11024 0.65457,-0.31006 0.2756,-0.19981 0.45475,-0.46853 0.17914,-0.26872 0.2825,-0.59256 v -5.39502 h 0.82682 v 7.45519 h -0.79926 z"
         style="font-style:normal;font-variant:normal;font-weight:300;font-stretch:normal;font-size:14.11111164px;font-family:Roboto;-inkscape-font-specification:'Roboto Light';fill:#5e5086;fill-opacity:1;stroke-width:0.26458332px"
         id="path873" />
      <path
         d="m -117.0562,114.57078 0.0276,1.27469 q 0.19293,-0.31695 0.44097,-0.57878 0.25494,-0.26182 0.565,-0.44786 0.31006,-0.18603 0.66835,-0.2825 0.35829,-0.10335 0.75792,-0.10335 0.55811,0 0.99908,0.15158 0.44097,0.15159 0.74414,0.48232 0.31006,0.33073 0.46853,0.85438 0.16537,0.51677 0.16537,1.25402 v 4.85069 h -0.81994 v -4.85758 q 0,-0.57878 -0.12402,-0.96463 -0.12402,-0.38585 -0.3514,-0.62012 -0.22738,-0.23426 -0.55811,-0.33073 -0.32383,-0.10335 -0.72347,-0.10335 -0.44097,0 -0.79926,0.15158 -0.35829,0.1447 -0.6339,0.39274 -0.2756,0.24805 -0.47542,0.57189 -0.19981,0.31695 -0.31695,0.65457 v 5.10563 h -0.81993 v -7.45519 z"
         style="font-style:normal;font-variant:normal;font-weight:300;font-stretch:normal;font-size:14.11111164px;font-family:Roboto;-inkscape-font-specification:'Roboto Light';fill:#5e5086;fill-opacity:1;stroke-width:0.26458332px"
         id="path875" />
      <path
         d="m -109.17382,122.02597 h -0.82682 v -7.45519 h 0.82682 z m -0.97152,-9.61182 q 0,-0.23426 0.15159,-0.39274 0.15158,-0.16536 0.41341,-0.16536 0.26183,0 0.41341,0.16536 0.15848,0.15848 0.15848,0.39274 0,0.23427 -0.15848,0.39274 -0.15158,0.15848 -0.41341,0.15848 -0.26183,0 -0.41341,-0.15848 -0.15159,-0.15847 -0.15159,-0.39274 z"
         style="font-style:normal;font-variant:normal;font-weight:300;font-stretch:normal;font-size:14.11111164px;font-family:Roboto;-inkscape-font-specification:'Roboto Light';fill:#5e5086;fill-opacity:1;stroke-width:0.26458332px"
         id="path877" />
      <path
         d="m -99.300176,122.02597 h -0.854384 v -4.80935 h -5.73264 v 4.80935 h -0.84749 v -10.03212 h 0.84749 v 4.50619 h 5.73264 v -4.50619 h 0.854384 z"
         style="font-style:normal;font-variant:normal;font-weight:300;font-stretch:normal;font-size:14.11111164px;font-family:Roboto;-inkscape-font-specification:'Roboto Light';fill:#5e5086;fill-opacity:1;stroke-width:0.26458332px"
         id="path879" />
      <path
         d="m -92.244619,122.02597 q -0.0689,-0.19292 -0.110243,-0.46853 -0.03445,-0.2825 -0.04823,-0.57189 -0.186035,0.24116 -0.440972,0.45475 -0.254937,0.2136 -0.571886,0.37207 -0.316949,0.15848 -0.695909,0.25494 -0.378961,0.0965 -0.819933,0.0965 -0.544325,0 -0.992187,-0.15847 -0.440973,-0.15847 -0.757922,-0.44097 -0.310058,-0.28939 -0.482313,-0.67524 -0.172255,-0.38585 -0.172255,-0.8406 0,-0.54433 0.234267,-0.97841 0.234266,-0.44097 0.675239,-0.74414 0.440972,-0.31006 1.067979,-0.46854 0.633898,-0.16536 1.41938,-0.16536 h 1.529622 v -0.84749 q 0,-0.79927 -0.496094,-1.25402 -0.489203,-0.46164 -1.433159,-0.46164 -0.434083,0 -0.799263,0.11713 -0.36518,0.11714 -0.633897,0.32384 -0.261828,0.20671 -0.413412,0.48231 -0.144694,0.26872 -0.144694,0.57878 l -0.826823,-0.007 q 0,-0.4203 0.206706,-0.81304 0.206706,-0.39274 0.578776,-0.69591 0.378961,-0.31006 0.902615,-0.4961 0.530545,-0.18603 1.171333,-0.18603 0.592556,0 1.08865,0.15158 0.502984,0.15159 0.861274,0.45476 0.35829,0.30316 0.558105,0.75792 0.199816,0.45475 0.199816,1.06109 v 3.61046 q 0,0.19292 0.01378,0.39963 0.01378,0.2067 0.04134,0.39963 0.03445,0.19292 0.07579,0.37207 0.04134,0.17225 0.09646,0.30317 v 0.0827 z m -2.590712,-0.59256 q 0.447862,0 0.826823,-0.11024 0.38585,-0.11713 0.695909,-0.31695 0.310059,-0.19981 0.537435,-0.46164 0.227376,-0.26872 0.36518,-0.57878 v -1.63986 h -1.412489 q -0.633898,0 -1.136882,0.11713 -0.496093,0.11024 -0.840603,0.32384 -0.34451,0.2136 -0.530545,0.52365 -0.179145,0.30317 -0.179145,0.68902 0,0.30317 0.117134,0.57189 0.117133,0.26183 0.330729,0.46164 0.220486,0.19293 0.530544,0.31006 0.310059,0.11024 0.69591,0.11024 z"
         style="font-style:normal;font-variant:normal;font-weight:300;font-stretch:normal;font-size:14.11111164px;font-family:Roboto;-inkscape-font-specification:'Roboto Light';fill:#5e5086;fill-opacity:1;stroke-width:0.26458332px"
         id="path881" />
      <path
         d="m -86.642892,121.46786 q 0.39274,0 0.75103,-0.11024 0.36518,-0.11713 0.647678,-0.33762 0.282498,-0.22048 0.461643,-0.54432 0.186035,-0.32384 0.213596,-0.75103 h 0.792372 q -0.02756,0.53054 -0.268717,0.9784 -0.234267,0.44787 -0.627008,0.77171 -0.38585,0.32383 -0.895725,0.50987 -0.509874,0.17914 -1.074869,0.17914 -0.785482,0 -1.378039,-0.28249 -0.592556,-0.28939 -0.999077,-0.79238 -0.399632,-0.50298 -0.606337,-1.17822 -0.199816,-0.68213 -0.199816,-1.46761 v -0.28939 q 0,-0.78548 0.199816,-1.46072 0.206705,-0.68213 0.606337,-1.17822 0.399631,-0.50298 0.992187,-0.79237 0.599447,-0.28939 1.378038,-0.28939 0.599447,0 1.109321,0.18603 0.516764,0.18604 0.895725,0.53055 0.385851,0.34451 0.613227,0.8406 0.227376,0.48921 0.254937,1.09554 h -0.792372 q -0.02756,-0.45475 -0.199815,-0.81304 -0.165365,-0.35829 -0.447863,-0.61323 -0.275608,-0.25493 -0.647678,-0.38585 -0.36518,-0.1378 -0.785482,-0.1378 -0.640787,0 -1.08865,0.24805 -0.440972,0.24804 -0.72347,0.66834 -0.282498,0.42031 -0.413411,0.96463 -0.124024,0.54433 -0.124024,1.13688 v 0.28939 q 0,0.59945 0.124024,1.15066 0.130913,0.54433 0.406521,0.96463 0.282498,0.41341 0.73036,0.66146 0.454753,0.24804 1.095541,0.24804 z"
         style="font-style:normal;font-variant:normal;font-weight:300;font-stretch:normal;font-size:14.11111164px;font-family:Roboto;-inkscape-font-specification:'Roboto Light';fill:#5e5086;fill-opacity:1;stroke-width:0.26458332px"
         id="path883" />
    </g>
    <path
       style="fill:#453a62;fill-opacity:0.39215686;fill-rule:evenodd;stroke:#453a62;stroke-width:0.26458332px;stroke-linecap:butt;stroke-linejoin:miter;stroke-opacity:1"
       d="m -156.07245,111.8352 5.82264,16.01472 h 3.1773 l -5.82264,-16.01472 z"
       id="path884"
       inkscape:connector-curvature="0"
       sodipodi:nodetypes="ccccc" />
    <path
       style="fill:#5e5086;fill-opacity:0.39215686;fill-rule:evenodd;stroke:#5e5086;stroke-width:0.26458332;stroke-linecap:butt;stroke-linejoin:miter;stroke-miterlimit:5.30000019;stroke-dasharray:none;stroke-opacity:1"
       d="m -150.25161,111.8352 5.82264,16.01472 h 3.17729 l -5.82264,-16.01472 z"
       id="path884-3"
       inkscape:connector-curvature="0"
       sodipodi:nodetypes="ccccc" />
    <path
       style="fill:#8f4e8b;fill-opacity:0.39215686;stroke:#8f4e8b;stroke-width:0.26458332;stroke-linecap:round;stroke-miterlimit:5.30000019;stroke-dasharray:none;stroke-opacity:1"
       d="m -139.58758,124.76688 h 18.71679 v 3.01556 h -17.65845 z"
       id="rect4626"
       inkscape:connector-curvature="0"
       sodipodi:nodetypes="ccccc" />
    <g
       aria-label="virtual"
       transform="rotate(-90)"
       style="font-style:normal;font-weight:normal;font-size:3.27234864px;line-height:125%;font-family:Sans;letter-spacing:0px;word-spacing:0px;fill:#5e5086;fill-opacity:1;stroke:none;stroke-width:0.08180871px;stroke-linecap:butt;stroke-linejoin:miter;stroke-opacity:1"
       id="text827">
      <path
         d="m -121.94688,-140.36237 h 0.31157 l 0.55924,1.50196 0.55924,-1.50196 h 0.31158 l -0.67109,1.78957 h -0.39946 z"
         style="fill:#5e5086;fill-opacity:1;stroke-width:0.08180871px"
         id="path829" />
      <path
         d="m -119.7994,-140.36237 h 0.294 v 1.78957 h -0.294 z m 0,-0.69665 h 0.294 v 0.3723 h -0.294 z"
         style="fill:#5e5086;fill-opacity:1;stroke-width:0.08180871px"
         id="path831" />
      <path
         d="m -117.85485,-140.08754 q -0.0495,-0.0288 -0.10865,-0.0415 -0.0575,-0.0144 -0.12783,-0.0144 -0.24926,0 -0.38348,0.16298 -0.13261,0.16138 -0.13261,0.46496 v 0.94272 h -0.2956 v -1.78957 h 0.2956 v 0.27803 q 0.0927,-0.16298 0.24127,-0.24128 0.14859,-0.0799 0.36111,-0.0799 0.0303,0 0.0671,0.005 0.0367,0.003 0.0815,0.0112 z"
         style="fill:#5e5086;fill-opacity:1;stroke-width:0.08180871px"
         id="path833" />
      <path
         d="m -117.25247,-140.87047 v 0.5081 h 0.60558 v 0.22849 h -0.60558 v 0.97148 q 0,0.2189 0.0591,0.28122 0.0607,0.0623 0.24447,0.0623 h 0.30199 v 0.24606 h -0.30199 q -0.34034,0 -0.46976,-0.12623 -0.12943,-0.12782 -0.12943,-0.46337 v -0.97148 h -0.2157 v -0.22849 h 0.2157 v -0.5081 z"
         style="fill:#5e5086;fill-opacity:1;stroke-width:0.08180871px"
         id="path835" />
      <path
         d="m -116.28898,-139.27904 v -1.08333 h 0.294 v 1.07215 q 0,0.25405 0.0991,0.38188 0.0991,0.12623 0.29719,0.12623 0.23808,0 0.37549,-0.1518 0.13901,-0.15179 0.13901,-0.41384 v -1.01462 h 0.294 v 1.78957 h -0.294 v -0.27483 q -0.10705,0.16298 -0.24926,0.24287 -0.14061,0.0783 -0.32755,0.0783 -0.30838,0 -0.46817,-0.19174 -0.15978,-0.19174 -0.15978,-0.56084 z m 0.7398,-1.12647 z"
         style="fill:#5e5086;fill-opacity:1;stroke-width:0.08180871px"
         id="path837" />
      <path
         d="m -113.36815,-139.47238 q -0.35632,0 -0.49373,0.0815 -0.13741,0.0815 -0.13741,0.27802 0,0.15659 0.10226,0.24927 0.10386,0.0911 0.28121,0.0911 0.24447,0 0.39147,-0.17256 0.1486,-0.17417 0.1486,-0.46178 v -0.0655 z m 0.5864,-0.12143 v 1.02101 h -0.294 v -0.27163 q -0.10066,0.16298 -0.25086,0.24127 -0.15019,0.0767 -0.3675,0.0767 -0.27482,0 -0.4378,-0.15339 -0.16138,-0.15499 -0.16138,-0.41384 0,-0.30199 0.20132,-0.45538 0.20293,-0.15339 0.60398,-0.15339 h 0.41224 v -0.0288 q 0,-0.20293 -0.13422,-0.31318 -0.13262,-0.11185 -0.37389,-0.11185 -0.15339,0 -0.29879,0.0368 -0.1454,0.0367 -0.27962,0.11025 v -0.27163 q 0.16138,-0.0623 0.31317,-0.0927 0.1518,-0.032 0.2956,-0.032 0.38827,0 0.58001,0.20133 0.19174,0.20133 0.19174,0.61037 z"
         style="fill:#5e5086;fill-opacity:1;stroke-width:0.08180871px"
         id="path839" />
      <path
         d="m -112.17458,-141.05902 h 0.294 v 2.48622 h -0.294 z"
         style="fill:#5e5086;fill-opacity:1;stroke-width:0.08180871px"
         id="path841" />
    </g>
  </g>
</svg>
