<?xml version="1.0" encoding="UTF-8" standalone="no"?>
<svg
   xmlns:dc="http://purl.org/dc/elements/1.1/"
   xmlns:cc="http://creativecommons.org/ns#"
   xmlns:rdf="http://www.w3.org/1999/02/22-rdf-syntax-ns#"
   xmlns:svg="http://www.w3.org/2000/svg"
   xmlns="http://www.w3.org/2000/svg"
   xmlns:sodipodi="http://sodipodi.sourceforge.net/DTD/sodipodi-0.dtd"
   xmlns:inkscape="http://www.inkscape.org/namespaces/inkscape"
   id="svg5276"
   version="1.1"
   viewBox="0 0 76.484741 21.169775"
   height="21.169775mm"
   width="76.484741mm"
   sodipodi:docname="logo-2020-plain.svg"
   inkscape:version="0.92.4 (5da689c313, 2019-01-14)">
  <sodipodi:namedview
     pagecolor="#ffffff"
     bordercolor="#666666"
     borderopacity="1"
     objecttolerance="10"
     gridtolerance="10"
     guidetolerance="10"
     inkscape:pageopacity="0"
     inkscape:pageshadow="2"
     inkscape:window-width="2520"
     inkscape:window-height="1341"
     id="namedview39"
     showgrid="false"
     inkscape:zoom="3.3462531"
     inkscape:cx="276.79065"
     inkscape:cy="56.302163"
     inkscape:window-x="20"
     inkscape:window-y="46"
     inkscape:window-maximized="0"
     inkscape:current-layer="layer1" />
  <defs
     id="defs5270" />
  <metadata
     id="metadata5273">
    <rdf:RDF>
      <cc:Work
         rdf:about="">
        <dc:format>image/svg+xml</dc:format>
        <dc:type
           rdf:resource="http://purl.org/dc/dcmitype/StillImage" />
        <dc:title />
      </cc:Work>
    </rdf:RDF>
  </metadata>
  <g
     transform="translate(158.26131,-109.70291)"
     id="layer1">
    <g
       id="g868">
      <path
         id="path862"
         style="font-style:normal;font-variant:normal;font-weight:300;font-stretch:normal;font-size:18.66666603px;line-height:125%;font-family:Roboto;-inkscape-font-specification:'Roboto Light';text-align:end;letter-spacing:0px;word-spacing:0px;text-anchor:end;fill:#8f4e8b;fill-opacity:1;stroke:none;stroke-width:0.26458332px;stroke-linecap:butt;stroke-linejoin:miter;stroke-opacity:1"
         d="m -92.472296,127.86947 h -2.199349 v -0.22186 l 1.150316,-1.30466 q 0.161576,-0.18328 0.272508,-0.33039 0.113345,-0.1471 0.180869,-0.2725 0.06994,-0.12782 0.09887,-0.23875 0.03135,-0.11334 0.03135,-0.22427 0,-0.15917 -0.04823,-0.28939 -0.04582,-0.13264 -0.13987,-0.2291 -0.09164,-0.0965 -0.2291,-0.14952 -0.137459,-0.053 -0.315915,-0.053 -0.183279,0 -0.330385,0.0627 -0.144693,0.0603 -0.248391,0.16881 -0.101285,0.10852 -0.156752,0.25804 -0.05546,0.14951 -0.05546,0.32556 h -0.286978 q 0,-0.21704 0.07235,-0.40997 0.07476,-0.19292 0.21463,-0.33762 0.139869,-0.14469 0.337619,-0.2291 0.20016,-0.0844 0.453374,-0.0844 0.236334,0 0.426847,0.0651 0.190513,0.0627 0.323152,0.18569 0.132635,0.12058 0.20257,0.29662 0.07235,0.17364 0.07235,0.3955 0,0.15916 -0.05788,0.32074 -0.05788,0.16157 -0.154342,0.32074 -0.09646,0.15916 -0.221864,0.31591 -0.125402,0.15675 -0.258037,0.30868 l -0.979096,1.10691 h 1.844849 z"
         inkscape:connector-curvature="0" />
      <path
         id="path864"
         style="font-style:normal;font-variant:normal;font-weight:300;font-stretch:normal;font-size:18.66666603px;line-height:125%;font-family:Roboto;-inkscape-font-specification:'Roboto Light';text-align:end;letter-spacing:0px;word-spacing:0px;text-anchor:end;fill:#8f4e8b;fill-opacity:1;stroke:none;stroke-width:0.26458332px;stroke-linecap:butt;stroke-linejoin:miter;stroke-opacity:1"
         d="m -89.814749,126.40565 q 0,0.38585 -0.07234,0.67042 -0.07235,0.28456 -0.209807,0.47266 -0.137459,0.18569 -0.337619,0.27733 -0.20016,0.0916 -0.455787,0.0916 -0.253214,0 -0.453374,-0.0916 -0.20016,-0.0916 -0.340032,-0.27733 -0.139869,-0.1881 -0.21463,-0.47266 -0.07476,-0.28457 -0.07476,-0.67042 v -0.59325 q 0,-0.38585 0.07235,-0.668 0.07476,-0.28456 0.212217,-0.46784 0.139872,-0.18569 0.340032,-0.27492 0.20016,-0.0916 0.453374,-0.0916 0.253214,0 0.453374,0.0916 0.202573,0.0892 0.340032,0.27492 0.139869,0.18328 0.212217,0.46784 0.07476,0.28215 0.07476,0.668 z m -0.289388,-0.62942 q 0,-0.60289 -0.197747,-0.91157 -0.195337,-0.30868 -0.593246,-0.30868 -0.395497,0 -0.593246,0.30868 -0.197747,0.30868 -0.197747,0.91157 v 0.66077 q 0,0.29662 0.05064,0.52813 0.05064,0.2291 0.149519,0.38827 0.101285,0.15675 0.250801,0.23874 0.149519,0.082 0.344855,0.082 0.19775,0 0.344855,-0.082 0.149516,-0.082 0.245978,-0.23874 0.09888,-0.15917 0.147106,-0.38827 0.04823,-0.23151 0.04823,-0.52813 z"
         inkscape:connector-curvature="0" />
      <path
         id="path866"
         style="font-style:normal;font-variant:normal;font-weight:300;font-stretch:normal;font-size:18.66666603px;line-height:125%;font-family:Roboto;-inkscape-font-specification:'Roboto Light';text-align:end;letter-spacing:0px;word-spacing:0px;text-anchor:end;fill:#8f4e8b;fill-opacity:1;stroke:none;stroke-width:0.26458332px;stroke-linecap:butt;stroke-linejoin:miter;stroke-opacity:1"
         d="m -86.993217,127.86947 h -2.199349 v -0.22186 l 1.150319,-1.30466 q 0.161576,-0.18328 0.272507,-0.33039 0.113343,-0.1471 0.180867,-0.2725 0.06994,-0.12782 0.09888,-0.23875 0.03135,-0.11334 0.03135,-0.22427 0,-0.15917 -0.04823,-0.28939 -0.04582,-0.13264 -0.139872,-0.2291 -0.09164,-0.0965 -0.229097,-0.14952 -0.137459,-0.053 -0.315915,-0.053 -0.18328,0 -0.330385,0.0627 -0.144696,0.0603 -0.248391,0.16881 -0.101288,0.10852 -0.156753,0.25804 -0.05547,0.14951 -0.05547,0.32556 h -0.286975 q 0,-0.21704 0.07235,-0.40997 0.07476,-0.19292 0.214627,-0.33762 0.139872,-0.14469 0.337619,-0.2291 0.20016,-0.0844 0.453377,-0.0844 0.236333,0 0.426847,0.0651 0.190513,0.0627 0.323149,0.18569 0.132635,0.12058 0.202573,0.29662 0.07234,0.17364 0.07234,0.3955 0,0.15916 -0.05788,0.32074 -0.05788,0.16157 -0.154339,0.32074 -0.09646,0.15916 -0.221864,0.31591 -0.125402,0.15675 -0.258038,0.30868 l -0.979096,1.10691 h 1.844847 z"
         inkscape:connector-curvature="0" />
      <path
         id="path868"
         style="font-style:normal;font-variant:normal;font-weight:300;font-stretch:normal;font-size:18.66666603px;line-height:125%;font-family:Roboto;-inkscape-font-specification:'Roboto Light';text-align:end;letter-spacing:0px;word-spacing:0px;text-anchor:end;fill:#8f4e8b;fill-opacity:1;stroke:none;stroke-width:0.26458332px;stroke-linecap:butt;stroke-linejoin:miter;stroke-opacity:1"
         d="m -84.33567,126.40565 q 0,0.38585 -0.07235,0.67042 -0.07234,0.28456 -0.209804,0.47266 -0.137462,0.18569 -0.337621,0.27733 -0.20016,0.0916 -0.455785,0.0916 -0.253214,0 -0.453374,-0.0916 -0.20016,-0.0916 -0.340032,-0.27733 -0.139872,-0.1881 -0.21463,-0.47266 -0.07476,-0.28457 -0.07476,-0.67042 v -0.59325 q 0,-0.38585 0.07235,-0.668 0.07476,-0.28456 0.212217,-0.46784 0.139872,-0.18569 0.340032,-0.27492 0.20016,-0.0916 0.453374,-0.0916 0.253214,0 0.453374,0.0916 0.202573,0.0892 0.340032,0.27492 0.139869,0.18328 0.212217,0.46784 0.07476,0.28215 0.07476,0.668 z m -0.289388,-0.62942 q 0,-0.60289 -0.197747,-0.91157 -0.195337,-0.30868 -0.593246,-0.30868 -0.395497,0 -0.593246,0.30868 -0.197747,0.30868 -0.197747,0.91157 v 0.66077 q 0,0.29662 0.05064,0.52813 0.05064,0.2291 0.149519,0.38827 0.101285,0.15675 0.250801,0.23874 0.149518,0.082 0.344855,0.082 0.197747,0 0.344853,-0.082 0.149518,-0.082 0.24598,-0.23874 0.09888,-0.15917 0.147106,-0.38827 0.04823,-0.23151 0.04823,-0.52813 z"
         inkscape:connector-curvature="0" />
    </g>
    <g
       id="text836"
       style="font-style:normal;font-weight:normal;font-size:10.58333302px;line-height:125%;font-family:Sans;letter-spacing:0px;word-spacing:0px;fill:#5e5086;fill-opacity:1;stroke:none;stroke-width:0.26458332px;stroke-linecap:butt;stroke-linejoin:miter;stroke-opacity:1"
       aria-label="MuniHac">
      <path
         id="path871"
         style="font-style:normal;font-variant:normal;font-weight:300;font-stretch:normal;font-size:14.11111164px;font-family:Roboto;-inkscape-font-specification:'Roboto Light';fill:#5e5086;fill-opacity:1;stroke-width:0.26458332px"
         d="m -136.47965,111.99385 3.70003,8.8539 3.71382,-8.8539 h 1.12999 v 10.03212 h -0.84749 v -4.38216 l 0.0689,-4.46485 -3.73449,8.84701 h -0.65456 l -3.72071,-8.81255 0.0689,4.43039 v 4.38216 h -0.84749 v -10.03212 z" />
      <path
         id="path873"
         style="font-style:normal;font-variant:normal;font-weight:300;font-stretch:normal;font-size:14.11111164px;font-family:Roboto;-inkscape-font-specification:'Roboto Light';fill:#5e5086;fill-opacity:1;stroke-width:0.26458332px"
         d="m -120.79068,121.08201 q -0.3514,0.50988 -0.93707,0.79927 -0.57877,0.28249 -1.44005,0.28249 -0.55121,0 -0.99908,-0.15158 -0.44786,-0.15847 -0.7717,-0.49609 -0.32384,-0.33762 -0.50298,-0.86817 -0.17226,-0.53743 -0.17226,-1.30224 v -4.77491 h 0.81994 v 4.78869 q 0,0.59944 0.1378,0.99907 0.1378,0.39964 0.37207,0.64079 0.23427,0.24116 0.54433,0.34451 0.31694,0.10335 0.66834,0.10335 0.4961,0 0.87506,-0.11024 0.37896,-0.11024 0.65457,-0.31006 0.2756,-0.19981 0.45475,-0.46853 0.17914,-0.26872 0.2825,-0.59256 v -5.39502 h 0.82682 v 7.45519 h -0.79926 z" />
      <path
         id="path875"
         style="font-style:normal;font-variant:normal;font-weight:300;font-stretch:normal;font-size:14.11111164px;font-family:Roboto;-inkscape-font-specification:'Roboto Light';fill:#5e5086;fill-opacity:1;stroke-width:0.26458332px"
         d="m -117.0562,114.57078 0.0276,1.27469 q 0.19293,-0.31695 0.44097,-0.57878 0.25494,-0.26182 0.565,-0.44786 0.31006,-0.18603 0.66835,-0.2825 0.35829,-0.10335 0.75792,-0.10335 0.55811,0 0.99908,0.15158 0.44097,0.15159 0.74414,0.48232 0.31006,0.33073 0.46853,0.85438 0.16537,0.51677 0.16537,1.25402 v 4.85069 h -0.81994 v -4.85758 q 0,-0.57878 -0.12402,-0.96463 -0.12402,-0.38585 -0.3514,-0.62012 -0.22738,-0.23426 -0.55811,-0.33073 -0.32383,-0.10335 -0.72347,-0.10335 -0.44097,0 -0.79926,0.15158 -0.35829,0.1447 -0.6339,0.39274 -0.2756,0.24805 -0.47542,0.57189 -0.19981,0.31695 -0.31695,0.65457 v 5.10563 h -0.81993 v -7.45519 z" />
      <path
         id="path877"
         style="font-style:normal;font-variant:normal;font-weight:300;font-stretch:normal;font-size:14.11111164px;font-family:Roboto;-inkscape-font-specification:'Roboto Light';fill:#5e5086;fill-opacity:1;stroke-width:0.26458332px"
         d="m -109.17382,122.02597 h -0.82682 v -7.45519 h 0.82682 z m -0.97152,-9.61182 q 0,-0.23426 0.15159,-0.39274 0.15158,-0.16536 0.41341,-0.16536 0.26183,0 0.41341,0.16536 0.15848,0.15848 0.15848,0.39274 0,0.23427 -0.15848,0.39274 -0.15158,0.15848 -0.41341,0.15848 -0.26183,0 -0.41341,-0.15848 -0.15159,-0.15847 -0.15159,-0.39274 z" />
      <path
         id="path879"
         style="font-style:normal;font-variant:normal;font-weight:300;font-stretch:normal;font-size:14.11111164px;font-family:Roboto;-inkscape-font-specification:'Roboto Light';fill:#5e5086;fill-opacity:1;stroke-width:0.26458332px"
         d="m -99.300176,122.02597 h -0.854384 v -4.80935 h -5.73264 v 4.80935 h -0.84749 v -10.03212 h 0.84749 v 4.50619 h 5.73264 v -4.50619 h 0.854384 z" />
      <path
         id="path881"
         style="font-style:normal;font-variant:normal;font-weight:300;font-stretch:normal;font-size:14.11111164px;font-family:Roboto;-inkscape-font-specification:'Roboto Light';fill:#5e5086;fill-opacity:1;stroke-width:0.26458332px"
         d="m -92.244619,122.02597 q -0.0689,-0.19292 -0.110243,-0.46853 -0.03445,-0.2825 -0.04823,-0.57189 -0.186035,0.24116 -0.440972,0.45475 -0.254937,0.2136 -0.571886,0.37207 -0.316949,0.15848 -0.695909,0.25494 -0.378961,0.0965 -0.819933,0.0965 -0.544325,0 -0.992187,-0.15847 -0.440973,-0.15847 -0.757922,-0.44097 -0.310058,-0.28939 -0.482313,-0.67524 -0.172255,-0.38585 -0.172255,-0.8406 0,-0.54433 0.234267,-0.97841 0.234266,-0.44097 0.675239,-0.74414 0.440972,-0.31006 1.067979,-0.46854 0.633898,-0.16536 1.41938,-0.16536 h 1.529622 v -0.84749 q 0,-0.79927 -0.496094,-1.25402 -0.489203,-0.46164 -1.433159,-0.46164 -0.434083,0 -0.799263,0.11713 -0.36518,0.11714 -0.633897,0.32384 -0.261828,0.20671 -0.413412,0.48231 -0.144694,0.26872 -0.144694,0.57878 l -0.826823,-0.007 q 0,-0.4203 0.206706,-0.81304 0.206706,-0.39274 0.578776,-0.69591 0.378961,-0.31006 0.902615,-0.4961 0.530545,-0.18603 1.171333,-0.18603 0.592556,0 1.08865,0.15158 0.502984,0.15159 0.861274,0.45476 0.35829,0.30316 0.558105,0.75792 0.199816,0.45475 0.199816,1.06109 v 3.61046 q 0,0.19292 0.01378,0.39963 0.01378,0.2067 0.04134,0.39963 0.03445,0.19292 0.07579,0.37207 0.04134,0.17225 0.09646,0.30317 v 0.0827 z m -2.590712,-0.59256 q 0.447862,0 0.826823,-0.11024 0.38585,-0.11713 0.695909,-0.31695 0.310059,-0.19981 0.537435,-0.46164 0.227376,-0.26872 0.36518,-0.57878 v -1.63986 h -1.412489 q -0.633898,0 -1.136882,0.11713 -0.496093,0.11024 -0.840603,0.32384 -0.34451,0.2136 -0.530545,0.52365 -0.179145,0.30317 -0.179145,0.68902 0,0.30317 0.117134,0.57189 0.117133,0.26183 0.330729,0.46164 0.220486,0.19293 0.530544,0.31006 0.310059,0.11024 0.69591,0.11024 z" />
      <path
         id="path883"
         style="font-style:normal;font-variant:normal;font-weight:300;font-stretch:normal;font-size:14.11111164px;font-family:Roboto;-inkscape-font-specification:'Roboto Light';fill:#5e5086;fill-opacity:1;stroke-width:0.26458332px"
         d="m -86.642892,121.46786 q 0.39274,0 0.75103,-0.11024 0.36518,-0.11713 0.647678,-0.33762 0.282498,-0.22048 0.461643,-0.54432 0.186035,-0.32384 0.213596,-0.75103 h 0.792372 q -0.02756,0.53054 -0.268717,0.9784 -0.234267,0.44787 -0.627008,0.77171 -0.38585,0.32383 -0.895725,0.50987 -0.509874,0.17914 -1.074869,0.17914 -0.785482,0 -1.378039,-0.28249 -0.592556,-0.28939 -0.999077,-0.79238 -0.399632,-0.50298 -0.606337,-1.17822 -0.199816,-0.68213 -0.199816,-1.46761 v -0.28939 q 0,-0.78548 0.199816,-1.46072 0.206705,-0.68213 0.606337,-1.17822 0.399631,-0.50298 0.992187,-0.79237 0.599447,-0.28939 1.378038,-0.28939 0.599447,0 1.109321,0.18603 0.516764,0.18604 0.895725,0.53055 0.385851,0.34451 0.613227,0.8406 0.227376,0.48921 0.254937,1.09554 h -0.792372 q -0.02756,-0.45475 -0.199815,-0.81304 -0.165365,-0.35829 -0.447863,-0.61323 -0.275608,-0.25493 -0.647678,-0.38585 -0.36518,-0.1378 -0.785482,-0.1378 -0.640787,0 -1.08865,0.24805 -0.440972,0.24804 -0.72347,0.66834 -0.282498,0.42031 -0.413411,0.96463 -0.124024,0.54433 -0.124024,1.13688 v 0.28939 q 0,0.59945 0.124024,1.15066 0.130913,0.54433 0.406521,0.96463 0.282498,0.41341 0.73036,0.66146 0.454753,0.24804 1.095541,0.24804 z" />
    </g>
    <path
       id="path884"
       d="m -156.07245,111.8352 5.82264,16.01472 h 3.1773 l -5.82264,-16.01472 z"
       style="fill:#453a62;fill-opacity:0.39215686;fill-rule:evenodd;stroke:#453a62;stroke-width:0.26458332px;stroke-linecap:butt;stroke-linejoin:miter;stroke-opacity:1" />
    <path
       id="path884-3"
       d="m -150.25161,111.8352 5.82264,16.01472 h 3.17729 l -5.82264,-16.01472 z"
       style="fill:#5e5086;fill-opacity:0.39215686;fill-rule:evenodd;stroke:#5e5086;stroke-width:0.26458332;stroke-linecap:butt;stroke-linejoin:miter;stroke-miterlimit:5.30000019;stroke-dasharray:none;stroke-opacity:1" />
    <path
       id="rect4626"
       d="m -139.58758,124.76688 h 43.00567 v 3.01556 h -41.94733 z"
       style="fill:#8f4e8b;fill-opacity:0.39215686;stroke:#8f4e8b;stroke-width:0.26458332;stroke-linecap:round;stroke-miterlimit:5.30000019;stroke-dasharray:none;stroke-opacity:1"
       inkscape:connector-curvature="0"
       sodipodi:nodetypes="ccccc" />
    <g
       id="text827"
       style="font-style:normal;font-weight:normal;font-size:3.27234864px;line-height:125%;font-family:Sans;letter-spacing:0px;word-spacing:0px;fill:#5e5086;fill-opacity:1;stroke:none;stroke-width:0.08180871px;stroke-linecap:butt;stroke-linejoin:miter;stroke-opacity:1"
       transform="rotate(-90)"
       aria-label="virtual">
      <path
         id="path829"
         style="fill:#5e5086;fill-opacity:1;stroke-width:0.08180871px"
         d="m -121.94688,-140.36237 h 0.31157 l 0.55924,1.50196 0.55924,-1.50196 h 0.31158 l -0.67109,1.78957 h -0.39946 z" />
      <path
         id="path831"
         style="fill:#5e5086;fill-opacity:1;stroke-width:0.08180871px"
         d="m -119.7994,-140.36237 h 0.294 v 1.78957 h -0.294 z m 0,-0.69665 h 0.294 v 0.3723 h -0.294 z" />
      <path
         id="path833"
         style="fill:#5e5086;fill-opacity:1;stroke-width:0.08180871px"
         d="m -117.85485,-140.08754 q -0.0495,-0.0288 -0.10865,-0.0415 -0.0575,-0.0144 -0.12783,-0.0144 -0.24926,0 -0.38348,0.16298 -0.13261,0.16138 -0.13261,0.46496 v 0.94272 h -0.2956 v -1.78957 h 0.2956 v 0.27803 q 0.0927,-0.16298 0.24127,-0.24128 0.14859,-0.0799 0.36111,-0.0799 0.0303,0 0.0671,0.005 0.0367,0.003 0.0815,0.0112 z" />
      <path
         id="path835"
         style="fill:#5e5086;fill-opacity:1;stroke-width:0.08180871px"
         d="m -117.25247,-140.87047 v 0.5081 h 0.60558 v 0.22849 h -0.60558 v 0.97148 q 0,0.2189 0.0591,0.28122 0.0607,0.0623 0.24447,0.0623 h 0.30199 v 0.24606 h -0.30199 q -0.34034,0 -0.46976,-0.12623 -0.12943,-0.12782 -0.12943,-0.46337 v -0.97148 h -0.2157 v -0.22849 h 0.2157 v -0.5081 z" />
      <path
         id="path837"
         style="fill:#5e5086;fill-opacity:1;stroke-width:0.08180871px"
         d="m -116.28898,-139.27904 v -1.08333 h 0.294 v 1.07215 q 0,0.25405 0.0991,0.38188 0.0991,0.12623 0.29719,0.12623 0.23808,0 0.37549,-0.1518 0.13901,-0.15179 0.13901,-0.41384 v -1.01462 h 0.294 v 1.78957 h -0.294 v -0.27483 q -0.10705,0.16298 -0.24926,0.24287 -0.14061,0.0783 -0.32755,0.0783 -0.30838,0 -0.46817,-0.19174 -0.15978,-0.19174 -0.15978,-0.56084 z m 0.7398,-1.12647 z" />
      <path
         id="path839"
         style="fill:#5e5086;fill-opacity:1;stroke-width:0.08180871px"
         d="m -113.36815,-139.47238 q -0.35632,0 -0.49373,0.0815 -0.13741,0.0815 -0.13741,0.27802 0,0.15659 0.10226,0.24927 0.10386,0.0911 0.28121,0.0911 0.24447,0 0.39147,-0.17256 0.1486,-0.17417 0.1486,-0.46178 v -0.0655 z m 0.5864,-0.12143 v 1.02101 h -0.294 v -0.27163 q -0.10066,0.16298 -0.25086,0.24127 -0.15019,0.0767 -0.3675,0.0767 -0.27482,0 -0.4378,-0.15339 -0.16138,-0.15499 -0.16138,-0.41384 0,-0.30199 0.20132,-0.45538 0.20293,-0.15339 0.60398,-0.15339 h 0.41224 v -0.0288 q 0,-0.20293 -0.13422,-0.31318 -0.13262,-0.11185 -0.37389,-0.11185 -0.15339,0 -0.29879,0.0368 -0.1454,0.0367 -0.27962,0.11025 v -0.27163 q 0.16138,-0.0623 0.31317,-0.0927 0.1518,-0.032 0.2956,-0.032 0.38827,0 0.58001,0.20133 0.19174,0.20133 0.19174,0.61037 z" />
      <path
         id="path841"
         style="fill:#5e5086;fill-opacity:1;stroke-width:0.08180871px"
         d="m -112.17458,-141.05902 h 0.294 v 2.48622 h -0.294 z" />
    </g>
  </g>
</svg>
