<?xml version="1.0" encoding="UTF-8" standalone="no"?>
<svg
   xmlns:dc="http://purl.org/dc/elements/1.1/"
   xmlns:cc="http://creativecommons.org/ns#"
   xmlns:rdf="http://www.w3.org/1999/02/22-rdf-syntax-ns#"
   xmlns:svg="http://www.w3.org/2000/svg"
   xmlns="http://www.w3.org/2000/svg"
   version="1.1"
   id="svg6047"
   viewBox="0 0 381.95616 74.000333"
   height="20.884539mm"
   width="107.79652mm">
  <defs
     id="defs6049" />
  <metadata
     id="metadata6052">
    <rdf:RDF>
      <cc:Work
         rdf:about="">
        <dc:format>image/svg+xml</dc:format>
        <dc:type
           rdf:resource="http://purl.org/dc/dcmitype/StillImage" />
        <dc:title></dc:title>
      </cc:Work>
    </rdf:RDF>
  </metadata>
  <g
     transform="translate(-17.999445,-25.092764)"
     id="layer1">
    <path
       id="path4324-5-3"
       d="m 17.999445,25.64584 48.79882,73.19531 -0.0723,0.10742 36.599605,0 0.0723,-0.10742 -48.798815,-73.19531 -36.59961,0 z"
       style="font-style:normal;font-weight:normal;font-size:45px;line-height:125%;font-family:Sans;letter-spacing:0px;word-spacing:0px;fill:#453a62;fill-opacity:1;fill-rule:nonzero;stroke:none;stroke-width:1px;stroke-linecap:butt;stroke-linejoin:miter;stroke-opacity:1" />
    <path
       id="path4330-4-7"
       d="m 162.854,98.80324 -16.26665,-24.39831 81.32993,-0.002 0,24.39999 -65.06327,0 z m 0,0"
       style="font-style:normal;font-weight:normal;font-size:45px;line-height:125%;font-family:Sans;letter-spacing:0px;word-spacing:0px;fill:#8f4e8b;fill-opacity:1;fill-rule:nonzero;stroke:none;stroke-width:1px;stroke-linecap:butt;stroke-linejoin:miter;stroke-opacity:1" />
    <g
       id="text4426-7-1"
       style="font-style:normal;font-weight:normal;font-size:44.18637085px;line-height:125%;font-family:Sans;letter-spacing:0px;word-spacing:0px;fill:#8f4e8b;fill-opacity:1;stroke:none;stroke-width:1px;stroke-linecap:butt;stroke-linejoin:miter;stroke-opacity:1"
       transform="matrix(1.3934999,0,0,0.7243159,-387.87389,-546.4781)">
      <g
         style="fill:#8f4e8b;fill-opacity:1"
         transform="matrix(1.2647699,0,0,1.2647699,-118.5587,-235.40842)"
         id="g4804">
        <g
           id="g5473">
          <path
             id="path4790"
             style="font-style:normal;font-variant:normal;font-weight:bold;font-stretch:normal;font-family:Raleway;-inkscape-font-specification:'Raleway Bold';fill:#8f4e8b;fill-opacity:1"
             d="m 447.78013,890.5116 q 0,-1.98839 0.3093,-3.5791 0.3093,-1.63489 1.06047,-3.00467 0.79536,-1.36978 2.12095,-2.56281 1.36978,-1.19303 3.44654,-2.34188 1.81164,-0.9721 3.18141,-1.67908 1.41397,-0.75117 2.34188,-1.36978 0.92792,-0.61861 1.41397,-1.23722 0.48605,-0.66279 0.48605,-1.50233 0,-1.32559 -1.06048,-2.25351 -1.06047,-0.9721 -3.04886,-0.9721 -1.06047,0 -1.9442,0.30931 -0.88372,0.26511 -1.67908,0.75116 -0.75117,0.48606 -1.41396,1.10466 -0.61861,0.57443 -1.14885,1.23722 l -3.80003,-4.37445 q 0.57443,-0.61861 1.6349,-1.32559 1.06047,-0.75117 2.47444,-1.36978 1.45815,-0.66279 3.18142,-1.06047 1.76745,-0.44186 3.75584,-0.44186 2.2535,0 4.02096,0.57442 1.76745,0.53024 2.96048,1.54652 1.23722,0.9721 1.85583,2.38607 0.6628,1.36977 0.6628,3.00467 0,1.54652 -0.57443,2.73955 -0.57442,1.19304 -1.45815,2.12095 -0.88372,0.92791 -1.9442,1.6349 -1.01628,0.66279 -1.98838,1.19303 -0.79536,0.44186 -1.81164,1.01628 -1.01629,0.57443 -2.03258,1.28141 -0.9721,0.6628 -1.81164,1.41396 -0.83954,0.70699 -1.2814,1.41397 l 13.38847,0 0,5.34655 -21.29783,0 z" />
          <path
             id="path4792"
             style="font-style:normal;font-variant:normal;font-weight:bold;font-stretch:normal;font-family:Raleway;-inkscape-font-specification:'Raleway Bold';fill:#8f4e8b;fill-opacity:1"
             d="m 496.00748,877.12313 q 0,2.9163 -0.88373,5.39074 -0.83954,2.43025 -2.38606,4.24189 -1.50234,1.76746 -3.62329,2.78374 -2.07675,0.9721 -4.50701,0.9721 -2.47443,0 -4.55119,-0.9721 -2.07676,-1.01628 -3.62328,-2.78374 -1.50234,-1.81164 -2.38607,-4.24189 -0.83954,-2.47444 -0.83954,-5.39074 0,-2.9163 0.83954,-5.34655 0.88373,-2.47444 2.38607,-4.24189 1.54652,-1.81164 3.62328,-2.82793 2.07676,-1.01629 4.55119,-1.01629 2.43026,0 4.50701,1.01629 2.12095,1.01629 3.62329,2.82793 1.54652,1.76745 2.38606,4.24189 0.88373,2.43025 0.88373,5.34655 z m -5.96516,0 q 0,-1.76745 -0.39768,-3.2256 -0.39768,-1.50234 -1.14884,-2.56281 -0.70699,-1.06048 -1.72327,-1.6349 -0.9721,-0.57442 -2.16514,-0.57442 -1.23721,0 -2.2535,0.57442 -0.9721,0.57442 -1.72327,1.6349 -0.70698,1.06047 -1.10466,2.56281 -0.39768,1.45815 -0.39768,3.2256 0,1.76746 0.39768,3.22561 0.39768,1.45815 1.10466,2.51862 0.75117,1.06047 1.72327,1.6349 1.01629,0.57442 2.2535,0.57442 1.19304,0 2.16514,-0.57442 1.01628,-0.57443 1.72327,-1.6349 0.75116,-1.06047 1.14884,-2.51862 0.39768,-1.45815 0.39768,-3.22561 z" />
          <path
             id="path4794"
             style="font-style:normal;font-variant:normal;font-weight:bold;font-stretch:normal;font-family:Raleway;-inkscape-font-specification:'Raleway Bold';fill:#8f4e8b;fill-opacity:1"
             d="m 518.90845,885.16505 0,5.34655 -17.93967,0 0,-5.34655 6.27447,0 0,-13.38847 q -0.39768,0.53023 -1.28141,1.10466 -0.83954,0.53023 -1.85583,1.01628 -1.01628,0.48605 -2.12094,0.79536 -1.06047,0.3093 -1.90002,0.3093 l 0,-5.52329 q 0.79536,0 1.9442,-0.48605 1.14885,-0.53024 2.25351,-1.23722 1.10466,-0.70698 1.90001,-1.36978 0.83954,-0.70698 1.06048,-1.10466 l 6.05353,0 0,19.88387 5.61167,0 z" />
          <path
             id="path4796"
             style="font-style:normal;font-variant:normal;font-weight:bold;font-stretch:normal;font-family:Raleway;-inkscape-font-specification:'Raleway Bold';fill:#8f4e8b;fill-opacity:1"
             d="m 540.74578,881.6281 q 0,1.87021 -0.71931,3.48866 -0.71931,1.61845 -1.97811,2.84128 -1.2588,1.18686 -2.98515,1.87021 -1.69038,0.68335 -3.66849,0.68335 -2.15793,0 -3.92025,-0.79124 -1.72635,-0.79125 -2.94917,-2.30181 -1.22284,-1.51054 -1.87021,-3.66849 -0.64739,-2.19389 -0.64739,-4.96325 0,-3.48866 0.68335,-6.15011 0.68335,-2.69742 1.9781,-4.49571 1.29476,-1.83425 3.12901,-2.76935 1.83424,-0.93511 4.10008,-0.93511 2.4097,0 4.42378,1.04301 2.05003,1.043 3.4527,2.98514 l -2.76936,3.02112 q -0.86318,-1.3667 -2.22987,-2.12198 -1.36669,-0.75527 -2.94918,-0.75527 -2.4097,0 -3.84831,1.90618 -1.43864,1.90617 -1.51056,5.39484 0.75528,-1.29477 2.12197,-2.05005 1.40266,-0.75527 3.2369,-0.75527 1.87021,0 3.48867,0.64737 1.65442,0.64739 2.84128,1.79828 1.22283,1.15091 1.90618,2.7334 0.68334,1.54652 0.68334,3.3448 z m -9.31509,4.81938 q 0.9351,0 1.79828,-0.35965 0.86317,-0.39562 1.51056,-1.043 0.64738,-0.68335 1.00703,-1.54652 0.39562,-0.89914 0.39562,-1.87021 0,-0.97107 -0.39562,-1.79828 -0.35965,-0.86318 -1.00703,-1.51057 -0.64739,-0.64737 -1.51056,-1.00703 -0.82721,-0.35965 -1.79828,-0.35965 -0.97107,0 -1.83425,0.35965 -0.86318,0.35966 -1.51055,1.00703 -0.64739,0.64739 -1.00703,1.51057 -0.35966,0.82721 -0.35966,1.79828 0,0.97107 0.35966,1.87021 0.39561,0.86317 1.04299,1.51056 0.64738,0.64737 1.47459,1.04299 0.86318,0.39562 1.83425,0.39562 z" />
        </g>
      </g>
    </g>
    <path
       id="path4326-6-3"
       d="m 66.798265,25.64584 48.798825,73.19531 -0.16797,0.25195 36.9336,0 -48.96485,-73.44726 -36.599605,0 z"
       style="font-style:normal;font-weight:normal;font-size:45px;line-height:125%;font-family:Sans;letter-spacing:0px;word-spacing:0px;fill:#5e5086;fill-opacity:1;fill-rule:nonzero;stroke:none;stroke-width:1px;stroke-linecap:butt;stroke-linejoin:miter;stroke-opacity:1" />
    <g
       id="text4785"
       style="font-style:normal;font-weight:normal;font-size:60.59328079px;line-height:125%;font-family:Sans;letter-spacing:0px;word-spacing:0px;fill:#5e5086;fill-opacity:1;stroke:none;stroke-width:1px;stroke-linecap:butt;stroke-linejoin:miter;stroke-opacity:1"
       transform="scale(1.0019969,0.99800707)">
      <path
         id="path6643"
         style="font-style:normal;font-variant:normal;font-weight:800;font-stretch:normal;font-family:Raleway;-inkscape-font-specification:'Raleway Ultra-Bold';fill:#5e5086;fill-opacity:1"
         d="m 179.91023,68.302399 0,-25.752145 -9.33136,18.723324 -5.33221,0 -9.33137,-18.723324 0,25.752145 -9.9373,0 0,-43.02123 10.78561,0 11.14916,22.480107 11.20976,-22.480107 10.72501,0 0,43.02123 -9.9373,0 z" />
      <path
         id="path6645"
         style="font-style:normal;font-variant:normal;font-weight:800;font-stretch:normal;font-family:Raleway;-inkscape-font-specification:'Raleway Ultra-Bold';fill:#5e5086;fill-opacity:1"
         d="m 206.89696,68.908331 q -4.90805,0 -7.45297,-3.029664 -2.48433,-3.090257 -2.48433,-9.028398 l 0,-20.359343 9.69493,0 0,18.238578 q 0,2.908477 1.15127,4.483903 1.15127,1.514832 3.27204,1.514832 1.93898,0 3.75678,-1.030086 1.8178,-1.030086 3.21145,-3.575004 l 0,-19.632223 9.69492,0 0,20.904682 q 0,1.454239 0.42415,2.060172 0.48475,0.545339 1.63602,0.666526 l 0,8.180093 q -1.39364,0.302966 -2.36314,0.363559 -0.96949,0.121187 -1.7572,0.121187 -5.21102,0 -5.93814,-4.05975 l -0.18178,-1.938985 q -2.18136,3.150851 -5.4534,4.665683 -3.21144,1.454238 -7.2106,1.454238 z" />
      <path
         id="path6647"
         style="font-style:normal;font-variant:normal;font-weight:800;font-stretch:normal;font-family:Raleway;-inkscape-font-specification:'Raleway Ultra-Bold';fill:#5e5086;fill-opacity:1"
         d="m 265.91197,68.302399 -9.69492,0 0,-17.875018 q 0,-3.150851 -1.21187,-4.544496 -1.15127,-1.454239 -3.09025,-1.454239 -1.03009,0 -2.06018,0.424153 -1.03008,0.424153 -1.99957,1.211866 -0.9695,0.727119 -1.75721,1.757205 -0.72712,1.030086 -1.15127,2.241951 l 0,18.238578 -9.69493,0 0,-31.811473 8.72544,0 0,5.332209 q 1.7572,-2.847884 4.96865,-4.362716 3.21144,-1.575426 7.39238,-1.575426 3.09025,0 4.96864,1.151273 1.8784,1.090679 2.90848,2.908477 1.03009,1.757205 1.33305,3.87797 0.36356,2.120765 0.36356,4.120343 l 0,20.359343 z" />
      <path
         id="path6649"
         style="font-style:normal;font-variant:normal;font-weight:800;font-stretch:normal;font-family:Raleway;-inkscape-font-specification:'Raleway Ultra-Bold';fill:#5e5086;fill-opacity:1"
         d="m 272.29416,68.302399 0,-31.811473 9.69492,0 0,31.811473 z m 0,-35.44707 0,-7.712457 9.69492,0 0,7.712457 z" />
      <path
         id="path6651"
         style="font-style:normal;font-variant:normal;font-weight:800;font-stretch:normal;font-family:Raleway;-inkscape-font-specification:'Raleway Ultra-Bold';fill:#5e5086;fill-opacity:1"
         d="m 326.43614,25.281169 0,43.02123 -9.9373,0 0,-17.632645 -17.14789,0 0,17.632645 -9.9373,0 0,-43.02123 9.9373,0 0,16.663153 17.14789,0 0,-16.663153 9.9373,0 z" />
      <path
         id="path6653"
         style="font-style:normal;font-variant:normal;font-weight:800;font-stretch:normal;font-family:Raleway;-inkscape-font-specification:'Raleway Ultra-Bold';fill:#5e5086;fill-opacity:1"
         d="m 342.50756,68.908331 q -2.36314,0 -4.42331,-0.727119 -1.99958,-0.787713 -3.45382,-2.120765 -1.45424,-1.393645 -2.30254,-3.211444 -0.84831,-1.878391 -0.84831,-4.059749 0,-2.363138 0.96949,-4.302123 1.03009,-1.938985 2.84789,-3.332631 1.8178,-1.393645 4.30212,-2.181358 2.48433,-0.787713 5.51399,-0.787713 1.99958,0 3.87797,0.36356 1.87839,0.302967 3.27204,0.969493 l 0,-1.454239 q 0,-5.513989 -6.3623,-5.513989 -2.60551,0 -4.96865,0.9089 -2.36313,0.848305 -4.96864,2.605511 l -2.84789,-6.059328 q 3.15085,-2.060172 6.54408,-3.090258 3.39322,-1.030086 7.2106,-1.030086 7.2106,0 11.14916,3.393224 3.93856,3.393224 3.93856,9.937298 l 0,8.180093 q 0,1.454239 0.42416,2.060172 0.48474,0.545339 1.63601,0.666526 l 0,8.180093 q -1.27245,0.302966 -2.30254,0.363559 -1.03009,0.121187 -1.87839,0.121187 -2.7267,0 -4.12035,-1.030086 -1.39364,-1.090679 -1.7572,-3.029664 l -0.18178,-1.454239 q -2.12077,2.726698 -5.08984,4.180937 -2.90847,1.454238 -6.18051,1.454238 z m 2.84788,-6.968227 q 1.57543,0 3.02967,-0.545339 1.51483,-0.54534 2.48432,-1.454239 1.39365,-1.090679 1.39365,-2.302545 l 0,-3.029664 q -1.27246,-0.484746 -2.78729,-0.727119 -1.45424,-0.302967 -2.7267,-0.302967 -2.66611,0 -4.42331,1.211866 -1.69661,1.211866 -1.69661,3.150851 0,1.757205 1.33305,2.908477 1.33305,1.090679 3.39322,1.090679 z" />
      <path
         id="path6655"
         style="font-style:normal;font-variant:normal;font-weight:800;font-stretch:normal;font-family:Raleway;-inkscape-font-specification:'Raleway Ultra-Bold';fill:#5e5086;fill-opacity:1"
         d="m 367.10464,52.366366 q 0,-3.272037 1.15128,-6.241108 1.15127,-3.029664 3.33263,-5.271616 2.18136,-2.302544 5.33221,-3.635596 3.21144,-1.333053 7.27119,-1.333053 5.51399,0 9.27077,2.363138 3.75679,2.302545 5.63518,6.059328 l -9.45255,2.847885 q -1.8784,-3.029664 -5.51399,-3.029664 -3.02967,0 -5.08984,2.241951 -1.99958,2.241951 -1.99958,5.998735 0,1.878392 0.54534,3.453817 0.54534,1.514832 1.51483,2.605511 0.9695,1.090679 2.24196,1.696612 1.33305,0.605933 2.78729,0.605933 1.81779,0 3.33263,-0.848306 1.51483,-0.9089 2.24195,-2.302545 l 9.45255,2.908477 q -1.7572,3.696191 -5.63517,6.059329 -3.81738,2.363137 -9.33137,2.363137 -3.99916,0 -7.2106,-1.333052 -3.15085,-1.393645 -5.3928,-3.635597 -2.18136,-2.302544 -3.33263,-5.271615 -1.15128,-3.029664 -1.15128,-6.301701 z" />
    </g>
  </g>
</svg>
