<?xml version="1.0" encoding="UTF-8" standalone="no"?>
<svg
   xmlns:dc="http://purl.org/dc/elements/1.1/"
   xmlns:cc="http://creativecommons.org/ns#"
   xmlns:rdf="http://www.w3.org/1999/02/22-rdf-syntax-ns#"
   xmlns:svg="http://www.w3.org/2000/svg"
   xmlns="http://www.w3.org/2000/svg"
   xmlns:sodipodi="http://sodipodi.sourceforge.net/DTD/sodipodi-0.dtd"
   xmlns:inkscape="http://www.inkscape.org/namespaces/inkscape"
   version="1.1"
   id="svg6047"
   viewBox="0 0 381.95616 74.000333"
   height="20.884539mm"
   width="107.79652mm"
   sodipodi:docname="logo-plain.svg"
   inkscape:version="0.92.2 (5c3e80d, 2017-08-06)">
  <sodipodi:namedview
     pagecolor="#ffffff"
     bordercolor="#666666"
     borderopacity="1"
     objecttolerance="10"
     gridtolerance="10"
     guidetolerance="10"
     inkscape:pageopacity="0"
     inkscape:pageshadow="2"
     inkscape:window-width="2554"
     inkscape:window-height="1411"
     id="namedview24"
     showgrid="false"
     inkscape:zoom="3.998759"
     inkscape:cx="216.32327"
     inkscape:cy="40.751235"
     inkscape:window-x="2560"
     inkscape:window-y="0"
     inkscape:window-maximized="0"
     inkscape:current-layer="text4426-7-1" />
  <defs
     id="defs6049" />
  <metadata
     id="metadata6052">
    <rdf:RDF>
      <cc:Work
         rdf:about="">
        <dc:format>image/svg+xml</dc:format>
        <dc:type
           rdf:resource="http://purl.org/dc/dcmitype/StillImage" />
        <dc:title />
      </cc:Work>
    </rdf:RDF>
  </metadata>
  <g
     transform="translate(-17.999445,-25.092764)"
     id="layer1">
    <path
       id="path4324-5-3"
       d="m 17.999445,25.64584 48.79882,73.19531 -0.0723,0.10742 36.599605,0 0.0723,-0.10742 -48.798815,-73.19531 -36.59961,0 z"
       style="font-style:normal;font-weight:normal;font-size:45px;line-height:125%;font-family:Sans;letter-spacing:0px;word-spacing:0px;fill:#453a62;fill-opacity:1;fill-rule:nonzero;stroke:none;stroke-width:1px;stroke-linecap:butt;stroke-linejoin:miter;stroke-opacity:1" />
    <path
       id="path4330-4-7"
       d="m 162.854,98.80324 -16.26665,-24.39831 81.32993,-0.002 0,24.39999 -65.06327,0 z m 0,0"
       style="font-style:normal;font-weight:normal;font-size:45px;line-height:125%;font-family:Sans;letter-spacing:0px;word-spacing:0px;fill:#8f4e8b;fill-opacity:1;fill-rule:nonzero;stroke:none;stroke-width:1px;stroke-linecap:butt;stroke-linejoin:miter;stroke-opacity:1" />
    <g
       id="text4426-7-1"
       style="font-style:normal;font-weight:normal;font-size:44.18637085px;line-height:125%;font-family:Sans;letter-spacing:0px;word-spacing:0px;fill:#8f4e8b;fill-opacity:1;stroke:none;stroke-width:1px;stroke-linecap:butt;stroke-linejoin:miter;stroke-opacity:1"
       transform="matrix(1.3934999,0,0,0.7243159,-387.87389,-546.4781)">
      <text
         xml:space="preserve"
         style="font-style:normal;font-weight:normal;font-size:46.2827301px;line-height:28.92670631px;font-family:sans-serif;letter-spacing:0px;word-spacing:0px;fill:#8f4e8b;fill-opacity:1;stroke:none;stroke-width:1.15706825px"
         x="423.74817"
         y="931.09161"
         id="text3745"
         transform="scale(1.0462608,0.95578463)"><tspan
           sodipodi:role="line"
           id="tspan3743"
           x="423.74817"
           y="931.09161"
           style="font-style:normal;font-variant:normal;font-weight:bold;font-stretch:normal;font-family:Verdana;-inkscape-font-specification:'Verdana Bold';letter-spacing:-4.42650747px;fill:#8f4e8b;fill-opacity:1;stroke-width:1.15706825px"
           dx="0 0 0 0.021319514">2018</tspan></text>
    </g>
    <path
       id="path4326-6-3"
       d="m 66.798265,25.64584 48.798825,73.19531 -0.16797,0.25195 36.9336,0 -48.96485,-73.44726 -36.599605,0 z"
       style="font-style:normal;font-weight:normal;font-size:45px;line-height:125%;font-family:Sans;letter-spacing:0px;word-spacing:0px;fill:#5e5086;fill-opacity:1;fill-rule:nonzero;stroke:none;stroke-width:1px;stroke-linecap:butt;stroke-linejoin:miter;stroke-opacity:1" />
    <g
       id="text4785"
       style="font-style:normal;font-weight:normal;font-size:60.59328079px;line-height:125%;font-family:Sans;letter-spacing:0px;word-spacing:0px;fill:#5e5086;fill-opacity:1;stroke:none;stroke-width:1px;stroke-linecap:butt;stroke-linejoin:miter;stroke-opacity:1"
       transform="scale(1.0019969,0.99800707)">
      <path
         id="path6643"
         style="font-style:normal;font-variant:normal;font-weight:800;font-stretch:normal;font-family:Raleway;-inkscape-font-specification:'Raleway Ultra-Bold';fill:#5e5086;fill-opacity:1"
         d="m 179.91023,68.302399 0,-25.752145 -9.33136,18.723324 -5.33221,0 -9.33137,-18.723324 0,25.752145 -9.9373,0 0,-43.02123 10.78561,0 11.14916,22.480107 11.20976,-22.480107 10.72501,0 0,43.02123 -9.9373,0 z" />
      <path
         id="path6645"
         style="font-style:normal;font-variant:normal;font-weight:800;font-stretch:normal;font-family:Raleway;-inkscape-font-specification:'Raleway Ultra-Bold';fill:#5e5086;fill-opacity:1"
         d="m 206.89696,68.908331 q -4.90805,0 -7.45297,-3.029664 -2.48433,-3.090257 -2.48433,-9.028398 l 0,-20.359343 9.69493,0 0,18.238578 q 0,2.908477 1.15127,4.483903 1.15127,1.514832 3.27204,1.514832 1.93898,0 3.75678,-1.030086 1.8178,-1.030086 3.21145,-3.575004 l 0,-19.632223 9.69492,0 0,20.904682 q 0,1.454239 0.42415,2.060172 0.48475,0.545339 1.63602,0.666526 l 0,8.180093 q -1.39364,0.302966 -2.36314,0.363559 -0.96949,0.121187 -1.7572,0.121187 -5.21102,0 -5.93814,-4.05975 l -0.18178,-1.938985 q -2.18136,3.150851 -5.4534,4.665683 -3.21144,1.454238 -7.2106,1.454238 z" />
      <path
         id="path6647"
         style="font-style:normal;font-variant:normal;font-weight:800;font-stretch:normal;font-family:Raleway;-inkscape-font-specification:'Raleway Ultra-Bold';fill:#5e5086;fill-opacity:1"
         d="m 265.91197,68.302399 -9.69492,0 0,-17.875018 q 0,-3.150851 -1.21187,-4.544496 -1.15127,-1.454239 -3.09025,-1.454239 -1.03009,0 -2.06018,0.424153 -1.03008,0.424153 -1.99957,1.211866 -0.9695,0.727119 -1.75721,1.757205 -0.72712,1.030086 -1.15127,2.241951 l 0,18.238578 -9.69493,0 0,-31.811473 8.72544,0 0,5.332209 q 1.7572,-2.847884 4.96865,-4.362716 3.21144,-1.575426 7.39238,-1.575426 3.09025,0 4.96864,1.151273 1.8784,1.090679 2.90848,2.908477 1.03009,1.757205 1.33305,3.87797 0.36356,2.120765 0.36356,4.120343 l 0,20.359343 z" />
      <path
         id="path6649"
         style="font-style:normal;font-variant:normal;font-weight:800;font-stretch:normal;font-family:Raleway;-inkscape-font-specification:'Raleway Ultra-Bold';fill:#5e5086;fill-opacity:1"
         d="m 272.29416,68.302399 0,-31.811473 9.69492,0 0,31.811473 z m 0,-35.44707 0,-7.712457 9.69492,0 0,7.712457 z" />
      <path
         id="path6651"
         style="font-style:normal;font-variant:normal;font-weight:800;font-stretch:normal;font-family:Raleway;-inkscape-font-specification:'Raleway Ultra-Bold';fill:#5e5086;fill-opacity:1"
         d="m 326.43614,25.281169 0,43.02123 -9.9373,0 0,-17.632645 -17.14789,0 0,17.632645 -9.9373,0 0,-43.02123 9.9373,0 0,16.663153 17.14789,0 0,-16.663153 9.9373,0 z" />
      <path
         id="path6653"
         style="font-style:normal;font-variant:normal;font-weight:800;font-stretch:normal;font-family:Raleway;-inkscape-font-specification:'Raleway Ultra-Bold';fill:#5e5086;fill-opacity:1"
         d="m 342.50756,68.908331 q -2.36314,0 -4.42331,-0.727119 -1.99958,-0.787713 -3.45382,-2.120765 -1.45424,-1.393645 -2.30254,-3.211444 -0.84831,-1.878391 -0.84831,-4.059749 0,-2.363138 0.96949,-4.302123 1.03009,-1.938985 2.84789,-3.332631 1.8178,-1.393645 4.30212,-2.181358 2.48433,-0.787713 5.51399,-0.787713 1.99958,0 3.87797,0.36356 1.87839,0.302967 3.27204,0.969493 l 0,-1.454239 q 0,-5.513989 -6.3623,-5.513989 -2.60551,0 -4.96865,0.9089 -2.36313,0.848305 -4.96864,2.605511 l -2.84789,-6.059328 q 3.15085,-2.060172 6.54408,-3.090258 3.39322,-1.030086 7.2106,-1.030086 7.2106,0 11.14916,3.393224 3.93856,3.393224 3.93856,9.937298 l 0,8.180093 q 0,1.454239 0.42416,2.060172 0.48474,0.545339 1.63601,0.666526 l 0,8.180093 q -1.27245,0.302966 -2.30254,0.363559 -1.03009,0.121187 -1.87839,0.121187 -2.7267,0 -4.12035,-1.030086 -1.39364,-1.090679 -1.7572,-3.029664 l -0.18178,-1.454239 q -2.12077,2.726698 -5.08984,4.180937 -2.90847,1.454238 -6.18051,1.454238 z m 2.84788,-6.968227 q 1.57543,0 3.02967,-0.545339 1.51483,-0.54534 2.48432,-1.454239 1.39365,-1.090679 1.39365,-2.302545 l 0,-3.029664 q -1.27246,-0.484746 -2.78729,-0.727119 -1.45424,-0.302967 -2.7267,-0.302967 -2.66611,0 -4.42331,1.211866 -1.69661,1.211866 -1.69661,3.150851 0,1.757205 1.33305,2.908477 1.33305,1.090679 3.39322,1.090679 z" />
      <path
         id="path6655"
         style="font-style:normal;font-variant:normal;font-weight:800;font-stretch:normal;font-family:Raleway;-inkscape-font-specification:'Raleway Ultra-Bold';fill:#5e5086;fill-opacity:1"
         d="m 367.10464,52.366366 q 0,-3.272037 1.15128,-6.241108 1.15127,-3.029664 3.33263,-5.271616 2.18136,-2.302544 5.33221,-3.635596 3.21144,-1.333053 7.27119,-1.333053 5.51399,0 9.27077,2.363138 3.75679,2.302545 5.63518,6.059328 l -9.45255,2.847885 q -1.8784,-3.029664 -5.51399,-3.029664 -3.02967,0 -5.08984,2.241951 -1.99958,2.241951 -1.99958,5.998735 0,1.878392 0.54534,3.453817 0.54534,1.514832 1.51483,2.605511 0.9695,1.090679 2.24196,1.696612 1.33305,0.605933 2.78729,0.605933 1.81779,0 3.33263,-0.848306 1.51483,-0.9089 2.24195,-2.302545 l 9.45255,2.908477 q -1.7572,3.696191 -5.63517,6.059329 -3.81738,2.363137 -9.33137,2.363137 -3.99916,0 -7.2106,-1.333052 -3.15085,-1.393645 -5.3928,-3.635597 -2.18136,-2.302544 -3.33263,-5.271615 -1.15128,-3.029664 -1.15128,-6.301701 z" />
    </g>
  </g>
</svg>
