<?xml version="1.0" encoding="UTF-8" standalone="no"?>
<svg
   xmlns:dc="http://purl.org/dc/elements/1.1/"
   xmlns:cc="http://creativecommons.org/ns#"
   xmlns:rdf="http://www.w3.org/1999/02/22-rdf-syntax-ns#"
   xmlns:svg="http://www.w3.org/2000/svg"
   xmlns="http://www.w3.org/2000/svg"
   viewBox="0 0 329.28748 94.300003"
   height="94.300003"
   width="329.28748"
   xml:space="preserve"
   version="1.1"
   id="svg2"><metadata
     id="metadata8"><rdf:RDF><cc:Work
         rdf:about=""><dc:format>image/svg+xml</dc:format><dc:type
           rdf:resource="http://purl.org/dc/dcmitype/StillImage" /></cc:Work></rdf:RDF></metadata><defs
     id="defs6" /><g
     transform="matrix(1.25,0,0,-1.25,0,94.300003)"
     id="g10"><g
       id="g12"><path
         id="path14"
         style="fill:#8080ff;fill-opacity:1;fill-rule:nonzero;stroke:none"
         d="m 11.234,32.42 8.047,0 0,42.52 -8.047,0 C 5.305,74.94 0.5,70.135 0.5,64.206 l 0,-21.051 C 0.5,37.225 5.305,32.42 11.234,32.42 Z" /><path
         id="path16"
         style="fill:#000033;fill-opacity:1;fill-rule:nonzero;stroke:none"
         d="m 22.824,55.452 20.196,0 0,8.754 c 0,5.929 -4.805,10.734 -10.735,10.734 l -9.461,0 0,-19.488 z" /><path
         id="path18"
         style="fill:#0000b3;fill-opacity:1;fill-rule:nonzero;stroke:none"
         d="m 22.824,32.42 20.196,0 0,19.489 -21.969,0 1.773,-19.489 z" /><path
         id="path20"
         style="fill:#000000;fill-opacity:1;fill-rule:nonzero;stroke:none"
         d="m 91.5,61.92 -4.031,0 -7.453,-19.734 -1.157,-3.766 -0.937,3.766 -7.047,19.734 -4.609,0 3,-7.937 -4.485,-11.797 -1.172,-3.766 -0.937,3.766 -7.031,19.734 -5.297,0 2.609,-4.937 8.922,-24.563 2.5,-0.578 5.828,15.141 0.766,2.828 0.812,-2.781 5.328,-14.61 2.782,-0.578 L 91.5,61.92 Z" /><path
         id="path22"
         style="fill:#000000;fill-opacity:1;fill-rule:nonzero;stroke:none"
         d="m 102.258,55.155 c -6.86,0 -9.906,-5.797 -9.906,-12.11 0,-5.562 3.359,-11.203 9.234,-11.203 5.562,0 8.75,3.094 8.75,3.094 l -0.625,3.406 c 0,0 -3.234,-3.047 -7.047,-3.047 -4.344,0 -6.234,4.125 -6.312,8.157 l 12.5,0 1.031,1.156 c -0.094,2.781 -0.625,10.547 -7.625,10.547 z m -0.531,-2.922 c 3.093,0 3.937,-3.578 4.078,-5.922 l -9.235,0 c 0.625,3.234 2.11,5.922 5.157,5.922 z" /><path
         id="path24"
         style="fill:#000000;fill-opacity:1;fill-rule:nonzero;stroke:none"
         d="m 120.16,66.264 -4.359,-0.484 0.594,-4.125 0,-29.235 4.203,0 -0.438,3.36 0,30.484 z" /><path
         id="path26"
         style="fill:#000000;fill-opacity:1;fill-rule:nonzero;stroke:none"
         d="m 132.441,66.264 -4.359,-0.484 0.594,-4.125 0,-29.235 4.203,0 -0.438,3.36 0,30.484 z" /><path
         id="path28"
         style="fill:#000000;fill-opacity:1;fill-rule:nonzero;stroke:none"
         d="m 138.086,45.155 0,-3.328 10.172,0 0.906,3.328 -11.078,0 z" /><path
         id="path30"
         style="fill:#000000;fill-opacity:1;fill-rule:nonzero;stroke:none"
         d="m 146.059,58.514 9.421,0 0,-26.094 4.485,0 -0.453,3.36 0,22.734 9.687,0 0,3.406 -23.14,0 0,-3.406 z" /><path
         id="path32"
         style="fill:#000000;fill-opacity:1;fill-rule:nonzero;stroke:none"
         d="m 188.031,55.061 -3.953,-0.578 -5.64,-14.359 -0.954,-3.266 -0.578,3.266 -5.25,14.937 -4.39,-0.578 1.968,-3.734 6.157,-18.157 -0.953,-2.453 c -1.25,-3.281 -3.454,-4.75 -5.782,-4.75 -0.765,0 -1.515,0.172 -2.281,0.438 L 167,22.014 c 0.812,-0.312 1.562,-0.484 2.328,-0.484 3.188,0 6.234,2.469 8.11,7.125 l 10.593,26.406 z" /><path
         id="path34"
         style="fill:#000000;fill-opacity:1;fill-rule:nonzero;stroke:none"
         d="m 192.562,21.655 4.204,0 -0.438,3.375 0,7.078 c 1.25,-0.141 2.5,-0.266 3.484,-0.266 6.454,0 10.938,5.641 10.938,12.094 0,7.172 -3.766,11.125 -8.062,11.125 -4.219,0 -6.36,-2.734 -6.36,-2.734 l 0,2.64 -4.359,-0.484 0.593,-4.125 0,-28.703 z m 3.766,13.406 0,13.906 c 0,0 2.063,2.907 5.063,2.907 2.953,0 5.203,-3.266 5.203,-8.329 0,-4.718 -2.735,-8.796 -6.063,-8.796 -1.75,0 -4.297,0.312 -4.203,0.312 z" /><path
         id="path36"
         style="fill:#000000;fill-opacity:1;fill-rule:nonzero;stroke:none"
         d="m 225.277,55.155 c -6.859,0 -9.906,-5.797 -9.906,-12.11 0,-5.562 3.359,-11.203 9.234,-11.203 5.563,0 8.75,3.094 8.75,3.094 l -0.625,3.406 c 0,0 -3.234,-3.047 -7.046,-3.047 -4.344,0 -6.235,4.125 -6.313,8.157 l 12.5,0 1.031,1.156 c -0.093,2.781 -0.625,10.547 -7.625,10.547 z m -0.531,-2.922 c 3.094,0 3.938,-3.578 4.078,-5.922 l -9.234,0 c 0.625,3.234 2.109,5.922 5.156,5.922 z" /><path
         id="path38"
         style="fill:#000000;fill-opacity:1;fill-rule:nonzero;stroke:none"
         d="m 255.539,66.264 -4.344,-0.484 0.578,-4.125 0,-6.86 c -1.25,0.125 -2.5,0.266 -3.484,0.266 -6.469,0 -10.937,-5.656 -10.937,-12.109 0,-7.172 3.765,-11.11 8.062,-11.11 2.156,0 4.531,1.078 6.672,3.266 0.234,-1.797 1.312,-3.266 1.312,-3.266 l 4.172,0.578 c 0,0 -2.031,2.375 -2.031,5.063 l 0,28.781 z m -8.687,-31.375 c -2.922,0 -5.344,3.313 -5.344,8.469 0,4.703 2.734,8.781 6.062,8.781 1.75,0 4.297,-0.312 4.203,-0.312 l 0,-13.938 c -1.515,-1.969 -3.359,-3 -4.921,-3 z" /><path
         id="path40"
         style="fill:#ffffff;fill-opacity:1;fill-rule:nonzero;stroke:#ffffff;stroke-width:0.80000001;stroke-linecap:butt;stroke-linejoin:miter;stroke-miterlimit:10;stroke-dasharray:none;stroke-opacity:1"
         d="m 19.281,74.94 3.543,0 0,-42.52 -3.543,0 0,42.52 z" /><path
         id="path42"
         style="fill:#ffffff;fill-opacity:1;fill-rule:nonzero;stroke:#ffffff;stroke-width:0.80000001;stroke-linecap:butt;stroke-linejoin:miter;stroke-miterlimit:10;stroke-dasharray:none;stroke-opacity:1"
         d="m 21.762,55.452 21.258,0 0,-3.543 -21.258,0 0,3.543 z" /><path
         id="path44"
         style="fill:#000000;fill-opacity:1;fill-rule:nonzero;stroke:none"
         d="m 50.172,15.319 3.906,0 0,-11.25 2.219,0 -0.188,1.484 0,9.766 4.172,0 0,1.562 -10.265,0 0,-1.562 0.156,0 z" /><path
         id="path46"
         style="fill:#000000;fill-opacity:1;fill-rule:nonzero;stroke:none"
         d="m 70.027,4.1 -0.187,1.422 0,6.078 c 0,1.547 -1.406,2.344 -2.672,2.344 -1.281,0 -2.766,-0.641 -3.328,-1.281 l 0,6.109 -2.156,-0.25 0.25,-1.812 0,-12.641 2.093,0 -0.187,1.484 0,5.391 -0.031,-0.031 c 0,0 0.828,1.422 2.859,1.422 1.187,0 1.25,-0.829 1.25,-2.657 l 0,-5.609 2.109,0 0,0.031 z" /><path
         id="path48"
         style="fill:#000000;fill-opacity:1;fill-rule:nonzero;stroke:none"
         d="m 76.668,13.96 c -2.953,0 -4.422,-2.547 -4.422,-5.266 0,-2.406 1.609,-4.875 4.141,-4.875 2.39,0 3.859,1.328 3.859,1.328 L 80.293,5.194 80.012,6.663 79.98,6.616 c 0,0 -1.484,-1.219 -3.125,-1.219 -1.875,0 -2.562,1.719 -2.593,3.422 l 5.328,0 0.5,0.562 c -0.031,1.188 -0.406,4.579 -3.422,4.579 z m -0.219,-1.344 c 1.328,0 1.547,-1.516 1.594,-2.453 l -3.688,0 c 0.266,1.328 0.782,2.453 2.094,2.453 z" /><path
         id="path50"
         style="fill:#000000;fill-opacity:1;fill-rule:nonzero;stroke:none"
         d="m 98.578,16.881 -2.156,0 0.25,-1.828 0,-3.547 -6.5,0 0,5.375 -2.281,0 0.25,-1.828 0,-10.984 2.218,0 -0.187,1.484 0,4.313 6.5,0 0,-5.797 2.234,0 -0.203,1.484 0,11.328 -0.125,0 z" /><path
         id="path52"
         style="fill:#000000;fill-opacity:1;fill-rule:nonzero;stroke:none"
         d="m 103,11.1 c 0,0 0.875,1.453 2.641,1.453 0.797,0 1.297,-0.484 1.297,-2.031 l 0,-0.641 c -3.032,0 -5.422,-1.484 -5.422,-3.625 0,-1.437 1.328,-2.437 2.64,-2.437 1.203,0 2.656,0.797 3.172,1.578 l -0.25,0.047 c 0.016,-0.859 0.813,-1.625 0.813,-1.625 l -0.094,0 1.797,0.25 0.094,0 c 0,0 -0.829,1.062 -0.829,2.219 l 0,5.125 c 0,1.812 -1.531,2.531 -3.031,2.531 -2.562,0 -3.703,-1.578 -3.703,-1.578 l -0.203,0 0.859,-1.266 0.219,0 z m 1.875,-5.797 c -1.031,0 -1.328,0.625 -1.328,1.235 0,1.984 3.047,2 3.391,2 l 0,-2.11 c -0.344,-0.39 -1.219,-1.125 -2.063,-1.125 z" /><path
         id="path54"
         style="fill:#000000;fill-opacity:1;fill-rule:nonzero;stroke:none"
         d="m 111.641,4.944 c 0,0 0.828,-1.125 2.797,-1.125 2.046,0 3.5,1.25 3.5,2.969 0,3.125 -4.719,2.672 -4.719,4.734 0,0.641 0.515,1.109 1.297,1.109 0.718,0 1.609,-0.187 2.531,-1.14 l 0.547,1.781 c -0.516,0.313 -1.438,0.688 -2.922,0.688 -1.813,0 -3.375,-1.157 -3.375,-2.891 0,-2.891 4.719,-2.781 4.719,-4.531 0,-0.969 -0.625,-1.235 -1.547,-1.235 -1.657,0 -2.657,1.203 -2.657,1.203 l -0.25,0.032 -0.171,-1.563 0.25,-0.031 z" /><path
         id="path56"
         style="fill:#000000;fill-opacity:1;fill-rule:nonzero;stroke:none"
         d="m 128.691,4.147 -4.562,5.297 4.344,4.234 -2.719,0 -0.547,-0.968 -2.859,-3.063 0,9.125 -2.157,-0.25 0.25,-1.812 0,-12.641 2.094,0 -0.187,1.484 0,3.594 -0.25,-0.031 4.187,-5.047 2.469,0 -0.063,0.078 z" /><path
         id="path58"
         style="fill:#000000;fill-opacity:1;fill-rule:nonzero;stroke:none"
         d="m 133.879,13.96 c -2.953,0 -4.422,-2.547 -4.422,-5.266 0,-2.406 1.609,-4.875 4.141,-4.875 2.39,0 3.859,1.328 3.859,1.328 l 0.047,0.047 -0.281,1.469 -0.032,-0.047 c 0,0 -1.484,-1.219 -3.125,-1.219 -1.875,0 -2.562,1.719 -2.593,3.422 l 5.328,0 0.5,0.562 c -0.031,1.188 -0.406,4.579 -3.422,4.579 z m -0.219,-1.344 c 1.328,0 1.547,-1.516 1.594,-2.453 l -3.688,0 c 0.266,1.328 0.782,2.453 2.094,2.453 z" /><path
         id="path60"
         style="fill:#000000;fill-opacity:1;fill-rule:nonzero;stroke:none"
         d="m 141.59,18.756 -2.016,-0.234 0.25,-1.812 0,-12.641 2.094,0 -0.188,1.484 0,13.219 -0.14,-0.016 z" /><path
         id="path62"
         style="fill:#000000;fill-opacity:1;fill-rule:nonzero;stroke:none"
         d="m 146.887,18.756 -2.016,-0.234 0.25,-1.812 0,-12.641 2.094,0 -0.188,1.484 0,13.219 -0.14,-0.016 z" /><path
         id="path64"
         style="fill:#000000;fill-opacity:1;fill-rule:nonzero;stroke:none"
         d="m 165.121,15.506 c -1.141,1.047 -2.547,1.61 -4.156,1.61 -3.406,0 -6.297,-2.953 -6.297,-6.922 0,-4.141 3.047,-6.375 6.047,-6.375 2.625,0 4.578,1.687 4.578,1.687 l 0.047,0.032 -0.438,1.437 -0.031,-0.047 c 0,0 -2.094,-1.531 -3.844,-1.531 -2.172,0 -4.218,1.875 -4.218,4.984 0,2.688 1.593,5.204 4.078,5.204 1.281,0 2.218,-0.516 3.25,-1.579 l 1,1.485 -0.016,0.015 z" /><path
         id="path66"
         style="fill:#000000;fill-opacity:1;fill-rule:nonzero;stroke:none"
         d="m 166.672,8.71 c 0,-0.313 0.25,-4.891 4.234,-4.891 2.969,0 4.844,2.469 4.844,5.25 0,3.297 -1.875,4.891 -4.188,4.891 -2.937,0 -4.89,-2.25 -4.89,-5.25 z m 2.062,0.171 c 0,2.032 0.86,3.688 2.469,3.688 1.625,0 2.485,-1.656 2.485,-3.688 0,-2.031 -0.86,-3.671 -2.485,-3.671 -1.609,0 -2.469,1.64 -2.469,3.671 z" /><path
         id="path68"
         style="fill:#000000;fill-opacity:1;fill-rule:nonzero;stroke:none"
         d="m 186.344,4.1 -0.188,1.422 0,6.078 c 0,1.547 -1.406,2.344 -2.672,2.344 -1.281,0 -2.765,-0.641 -3.328,-1.281 l 0,1.25 -2.156,-0.25 0.25,-1.828 0,-7.766 2.094,0 -0.188,1.484 0,5.391 -0.031,-0.031 c 0,0 0.828,1.422 2.859,1.422 1.188,0 1.25,-0.829 1.25,-2.657 l 0,-5.609 2.11,0 0,0.031 z" /><path
         id="path70"
         style="fill:#000000;fill-opacity:1;fill-rule:nonzero;stroke:none"
         d="m 188.934,4.944 c 0,0 0.828,-1.125 2.796,-1.125 2.047,0 3.5,1.25 3.5,2.969 0,3.125 -4.718,2.672 -4.718,4.734 0,0.641 0.515,1.109 1.297,1.109 0.718,0 1.609,-0.187 2.531,-1.14 l 0.547,1.781 c -0.516,0.313 -1.438,0.688 -2.922,0.688 -1.813,0 -3.375,-1.157 -3.375,-2.891 0,-2.891 4.719,-2.781 4.719,-4.531 0,-0.969 -0.625,-1.235 -1.547,-1.235 -1.657,0 -2.657,1.203 -2.657,1.203 l -0.25,0.032 -0.171,-1.563 0.25,-0.031 z" /><path
         id="path72"
         style="fill:#000000;fill-opacity:1;fill-rule:nonzero;stroke:none"
         d="m 203.766,5.538 c 0,-0.891 0.812,-1.719 0.812,-1.719 l -0.109,0 1.797,0.25 0.109,0 c 0,0 -0.844,1.062 -0.844,2.219 l 0,7.625 -2.156,-0.25 0.25,-1.828 0,-5.016 0.25,-0.047 c 0,0 -1.031,-1.344 -3.047,-1.344 -1.203,0 -1.281,0.813 -1.281,2.641 l 0,5.844 -2.172,-0.25 0.25,-1.828 0,-5.704 c 0,-1.546 1.422,-2.312 2.687,-2.312 1.282,0 2.938,0.719 3.704,1.687 l -0.25,0.032 z" /><path
         id="path74"
         style="fill:#000000;fill-opacity:1;fill-rule:nonzero;stroke:none"
         d="m 210.613,18.756 -2.015,-0.234 0.25,-1.812 0,-12.641 2.093,0 -0.187,1.484 0,13.219 -0.141,-0.016 z" /><path
         id="path76"
         style="fill:#000000;fill-opacity:1;fill-rule:nonzero;stroke:none"
         d="m 216.203,15.631 -1.969,-0.234 0,-1.719 -1.187,0 0,-1.422 1.187,0 0,-5.468 c 0,-2.125 1.188,-2.969 2.454,-2.969 0.89,0 2.015,0.219 2.874,0.906 l -0.312,1.703 c -0.703,-0.672 -1.438,-0.968 -2.172,-0.968 -0.609,0 -0.937,0.265 -0.937,1.187 l 0,5.609 2.359,0 0.625,1.422 -2.984,0 0.203,1.969 -0.141,-0.016 z" /><path
         id="path78"
         style="fill:#000000;fill-opacity:1;fill-rule:nonzero;stroke:none"
         d="m 221.828,11.1 c 0,0 0.875,1.453 2.641,1.453 0.797,0 1.297,-0.484 1.297,-2.031 l 0,-0.641 c -3.032,0 -5.422,-1.484 -5.422,-3.625 0,-1.437 1.328,-2.437 2.64,-2.437 1.204,0 2.657,0.797 3.172,1.578 l -0.25,0.047 c 0.016,-0.859 0.813,-1.625 0.813,-1.625 l -0.094,0 1.797,0.25 0.094,0 c 0,0 -0.828,1.062 -0.828,2.219 l 0,5.125 c 0,1.812 -1.532,2.531 -3.032,2.531 -2.562,0 -3.703,-1.578 -3.703,-1.578 l -0.203,0 0.859,-1.266 0.219,0 z m 1.875,-5.797 c -1.031,0 -1.328,0.625 -1.328,1.235 0,1.984 3.047,2 3.391,2 l 0,-2.11 c -0.344,-0.39 -1.219,-1.125 -2.063,-1.125 z" /><path
         id="path80"
         style="fill:#000000;fill-opacity:1;fill-rule:nonzero;stroke:none"
         d="m 239.109,4.1 -0.187,1.422 0,6.078 c 0,1.547 -1.406,2.344 -2.672,2.344 -1.281,0 -2.766,-0.641 -3.328,-1.281 l 0,1.25 -2.156,-0.25 0.25,-1.828 0,-7.766 2.093,0 -0.187,1.484 0,5.391 -0.031,-0.031 c 0,0 0.828,1.422 2.859,1.422 1.188,0 1.25,-0.829 1.25,-2.657 l 0,-5.609 2.109,0 0,0.031 z" /><path
         id="path82"
         style="fill:#000000;fill-opacity:1;fill-rule:nonzero;stroke:none"
         d="m 244.309,15.631 -1.969,-0.234 0,-1.719 -1.188,0 0,-1.422 1.188,0 0,-5.468 c 0,-2.125 1.187,-2.969 2.453,-2.969 0.891,0 2.016,0.219 2.875,0.906 l -0.313,1.703 c -0.703,-0.672 -1.437,-0.968 -2.171,-0.968 -0.61,0 -0.938,0.265 -0.938,1.187 l 0,5.609 2.359,0 0.625,1.422 -2.984,0 0.203,1.969 -0.14,-0.016 z" /><path
         id="path84"
         style="fill:#000000;fill-opacity:1;fill-rule:nonzero;stroke:none"
         d="m 248.793,4.944 c 0,0 0.828,-1.125 2.797,-1.125 2.047,0 3.5,1.25 3.5,2.969 0,3.125 -4.719,2.672 -4.719,4.734 0,0.641 0.516,1.109 1.297,1.109 0.719,0 1.609,-0.187 2.531,-1.14 l 0.547,1.781 c -0.516,0.313 -1.437,0.688 -2.922,0.688 -1.812,0 -3.375,-1.157 -3.375,-2.891 0,-2.891 4.719,-2.781 4.719,-4.531 0,-0.969 -0.625,-1.235 -1.547,-1.235 -1.656,0 -2.656,1.203 -2.656,1.203 l -0.25,0.032 -0.172,-1.563 0.25,-0.031 z" /></g></g></svg>